<svg xmlns="http://www.w3.org/2000/svg" xmlns:xlink="http://www.w3.org/1999/xlink" width="308.4" height="84.108" viewBox="0 0 308.4 84.108">
  <defs>
    <clipPath id="clip-path">
      <rect id="長方形_969" data-name="長方形 969" width="307.4" height="83.108" rx="7.178" transform="translate(715.236 494.433)" fill="#fff"/>
    </clipPath>
  </defs>
  <g id="グループ_3928" data-name="グループ 3928" transform="translate(-814.736 -445.933)">
    <g id="グループ_3868" data-name="グループ 3868" transform="translate(100 -48)">
      <g id="グループ_3867" data-name="グループ 3867" clip-path="url(#clip-path)">
        <rect id="長方形_968" data-name="長方形 968" width="307.4" height="83.108" transform="translate(715.236 494.433)" fill="#fff"/>
      </g>
    </g>
    <rect id="長方形_970" data-name="長方形 970" width="307.4" height="83.108" rx="7.178" transform="translate(815.236 446.433)" fill="#fff" stroke="#b2b2b3" stroke-miterlimit="10" stroke-width="1"/>
    <path id="パス_8601" data-name="パス 8601" d="M779.6,523.2h-4.548a1.371,1.371,0,0,0-1.368,1.366v12.3a1.372,1.372,0,0,0,1.368,1.368H779.6a1.373,1.373,0,0,0,1.369-1.368v-12.3A1.372,1.372,0,0,0,779.6,523.2m-1.689,12.142a.586.586,0,0,1-1.168,0v-9.246a.586.586,0,0,1,1.168,0Z" transform="translate(100 -48)" fill="#0568af"/>
    <path id="パス_8602" data-name="パス 8602" d="M796.041,523.2h-5.915v15.039h2.985v-5.524h2.93a1.373,1.373,0,0,0,1.369-1.367v-6.781a1.372,1.372,0,0,0-1.369-1.367m-1.68,6.374a.455.455,0,0,1-.516.516h-.734v-4.475h.734a.456.456,0,0,1,.516.517Z" transform="translate(100 -48)" fill="#0568af"/>
    <path id="パス_8603" data-name="パス 8603" d="M789.142,528.556v-3.991a1.371,1.371,0,0,0-1.367-1.367h-4.549a1.371,1.371,0,0,0-1.368,1.367v3.847a1.836,1.836,0,0,0,.805,1.737c.8.531,2.269,1.4,2.8,1.737s.653.506.653.988v2.434a.626.626,0,1,1-1.251,0v-2.965h-3.007v4.526a1.371,1.371,0,0,0,1.368,1.368h4.549a1.372,1.372,0,0,0,1.367-1.368V532.03a1.985,1.985,0,0,0-1.17-1.809c-.531-.314-1.883-1.061-2.293-1.327a1.309,1.309,0,0,1-.763-1.279v-1.471a.583.583,0,1,1,1.167,0v2.412Z" transform="translate(100 -48)" fill="#0568af"/>
    <path id="パス_8604" data-name="パス 8604" d="M772.812,536.869v-1.577h-9.2v2.945h9.672a2.238,2.238,0,0,1-.469-1.368m0-4.056h-9.2v2.034h9.2Zm0-1.737h-9.2v1.346h9.2Zm0-.82h-9.2v.413h9.2Zm21.174,7.981h11.83v-2.945h-11.83Zm4.3-6.892a2.231,2.231,0,0,1-.276,1.078h7.808v-1.347h-7.532Zm0-.677h7.531v-.413h-7.531Zm-2.244,2.922h-2.055v1.257h11.831v-2.034h-8.082a2.236,2.236,0,0,1-1.694.777m-32.432,9.665h42.207V538.7H763.609Z" transform="translate(100 -48)" fill="#0568af"/>
    <path id="パス_8605" data-name="パス 8605" d="M953.891,529.311a.409.409,0,0,1,.146.29,1.921,1.921,0,0,1-.055.426,13.144,13.144,0,0,1-.927,2.626,12.052,12.052,0,0,1-1.324,2.151,7.179,7.179,0,0,1-1.473,1.5.841.841,0,0,1-.329.066.443.443,0,0,1-.379-.213.632.632,0,0,1-.153-.445.617.617,0,0,1,.164-.422,8.516,8.516,0,0,0,1.381-1.354,11.872,11.872,0,0,0,1.21-1.96,11.6,11.6,0,0,0,.876-2.375.5.5,0,0,1,.533-.412.606.606,0,0,1,.33.122m1.174,5.009a.511.511,0,0,1,.2.379,1.936,1.936,0,0,1-.054.362,38.969,38.969,0,0,1-3.1,5.887,59.186,59.186,0,0,0,7.157-.636,17.6,17.6,0,0,0-2.034-3.061,1.842,1.842,0,0,1-.054-.413c0-.3.186-.468.583-.468a.738.738,0,0,1,.535.284,22.848,22.848,0,0,1,3.046,5.039,1.585,1.585,0,0,1,.114.529c0,.365-.27.549-.757.549-.219,0-.371-.172-.476-.486-.137-.3-.257-.586-.386-.837-.029,0-.06.015-.092.015-3.144.427-6.117.743-8.959.938-.4,0-.589-.255-.589-.772a.557.557,0,0,1,.509-.638,48.105,48.105,0,0,0,3.435-6.458.419.419,0,0,1,.43-.361.948.948,0,0,1,.491.148m2.019-4.95a15.739,15.739,0,0,0,2.077,3.738A9,9,0,0,0,961.233,535a.654.654,0,0,1-.363,1.186,1.333,1.333,0,0,1-.427-.216,10.208,10.208,0,0,1-2.51-2.668,12.956,12.956,0,0,1-1.545-2.866,1.281,1.281,0,0,1-.329-.774.47.47,0,0,1,.528-.529.9.9,0,0,1,.5.236" transform="translate(100 -48)"/>
    <path id="パス_8606" data-name="パス 8606" d="M973.087,529.37c.783,0,1.176.442,1.176,1.307v10.136q0,1.89-2.128,1.891a10.878,10.878,0,0,1-2.829-.419.6.6,0,0,1-.528-.593c0-.425.177-.65.528-.65a13.755,13.755,0,0,0,2.829.42c.667,0,1.009-.29,1.009-.893v-9.356c0-.429-.176-.661-.53-.661h-9.553c-.349,0-.527-.2-.527-.588s.178-.594.527-.594Zm-1.212,2.888c0,.408-.177.6-.531.6h-7.855c-.354,0-.531-.2-.531-.6,0-.387.177-.579.531-.579h7.855c.354,0,.531.192.531.579m-1.818,1.914c.778,0,1.18.417,1.18,1.235v3.145c0,.883-.4,1.3-1.18,1.3h-5.28c-.8,0-1.175-.418-1.175-1.3v-3.145c0-.818.379-1.235,1.175-1.235Zm.109,3.966v-2.3c0-.365-.164-.546-.488-.546h-4.532c-.327,0-.482.181-.482.546v2.3c0,.4.155.595.482.595h4.532c.324,0,.488-.2.488-.595" transform="translate(100 -48)"/>
    <path id="パス_8607" data-name="パス 8607" d="M878.48,536c.074-.269.163-.566.566-.566.1,0,.6.045.6.493a9.144,9.144,0,0,1-1.773,3.72,7.888,7.888,0,0,0,2.666,1.712c.327.135.506.269.506.566a.711.711,0,0,1-.671.73,4.318,4.318,0,0,1-1.355-.611,7.755,7.755,0,0,1-1.92-1.533,10.237,10.237,0,0,1-3.275,2.039,1.251,1.251,0,0,1-.491.135.611.611,0,0,1-.581-.656c0-.358.253-.492.536-.6a8.276,8.276,0,0,0,3.067-1.814,9.759,9.759,0,0,1-1.682-3.649.554.554,0,0,1,.595-.536c.4,0,.492.343.552.566a9.151,9.151,0,0,0,1.309,2.754A9.287,9.287,0,0,0,878.48,536" transform="translate(100 -48)"/>
    <path id="パス_8608" data-name="パス 8608" d="M873.76,535.509a.633.633,0,0,1-.581-.626c0-.222.03-.253.611-.714a7.863,7.863,0,0,0,1.459-1.562.511.511,0,0,1,.462-.237.562.562,0,0,1,.581.534c0,.506-1.951,2.6-2.532,2.6" transform="translate(100 -48)"/>
    <path id="パス_8609" data-name="パス 8609" d="M880.43,530.7c.178,0,.611,0,.611.551,0,.491-.313.564-.611.564h-6.58a.56.56,0,1,1,0-1.115h2.7v-1.236c0-.327.132-.611.579-.611.358,0,.656.1.656.611V530.7Z" transform="translate(100 -48)"/>
    <path id="パス_8610" data-name="パス 8610" d="M879.388,532.95a12.84,12.84,0,0,0,1.355,1.339.63.63,0,0,1,.282.506.6.6,0,0,1-.6.611c-.312,0-.908-.581-1.206-.892-.4-.4-1.221-1.237-1.221-1.624a.593.593,0,0,1,.552-.581c.3,0,.342.06.833.641" transform="translate(100 -48)"/>
    <path id="パス_8611" data-name="パス 8611" d="M869.459,529.439h2.159a.922.922,0,0,1,1.043,1.044V541.24a1.133,1.133,0,0,1-1.28,1.283c-.1,0-.567-.015-1.4-.045a.634.634,0,0,1-.461-.538.6.6,0,0,1,.64-.638c.019,0,.347.018.983.058.239,0,.358-.113.358-.342v-3.265h-2.012c-.04.6-.1,1.586-.194,2.163a13.554,13.554,0,0,1-.535,2.383.62.62,0,0,1-.582.282.569.569,0,0,1-.521-.581,2.808,2.808,0,0,1,.06-.433,14.386,14.386,0,0,0,.416-1.831,32.052,32.052,0,0,0,.283-4.009v-5.244a.923.923,0,0,1,1.044-1.044m.1,7.212H871.5v-2.623h-1.922v1.7q0,.462-.015.924m.015-3.726H871.5v-2.039a.311.311,0,0,0-.358-.345H869.92a.3.3,0,0,0-.342.345Z" transform="translate(100 -48)"/>
    <path id="パス_8612" data-name="パス 8612" d="M886.4,533.144l.019,0a.972.972,0,0,0,.187.029.477.477,0,0,0,.436-.323,16.155,16.155,0,0,0,.867-2.755v-.092a.518.518,0,0,0-.4-.542.629.629,0,0,0-.179-.034.435.435,0,0,0-.454.382,15.559,15.559,0,0,1-.774,2.613.564.564,0,0,0-.047.221.519.519,0,0,0,.344.5" transform="translate(100 -48)"/>
    <path id="パス_8613" data-name="パス 8613" d="M882.432,530.131h0a16.238,16.238,0,0,1,.721,2.54.505.505,0,0,0,.495.442.443.443,0,0,0,.089-.01.631.631,0,0,1,.067-.005l.014,0a.532.532,0,0,0,.38-.556.782.782,0,0,0-.016-.182,15.341,15.341,0,0,0-.751-2.6.479.479,0,0,0-.677-.309.55.55,0,0,0-.353.494.717.717,0,0,0,.022.152Z" transform="translate(100 -48)"/>
    <path id="パス_8614" data-name="パス 8614" d="M887.869,534.315c0-.361-.165-.575-.439-.575h-1.715v-4.814a.554.554,0,0,0-1.1,0v4.814h-1.938c-.271,0-.441.22-.441.575s.17.575.441.575h1.741a11.687,11.687,0,0,1-2.2,4.336.688.688,0,0,0-.15.447.717.717,0,0,0,.155.439.573.573,0,0,0,.383.168.631.631,0,0,0,.486-.284,13.106,13.106,0,0,0,1.658-3.366,19.039,19.039,0,0,0-.137,1.932v3.846a.477.477,0,0,0,.536.5c.36,0,.567-.183.567-.5v-4.124c0-.529-.042-1.242-.108-1.854a10.953,10.953,0,0,0,.876,1.881.457.457,0,0,0,.4.239.5.5,0,0,0,.389-.208.7.7,0,0,0,.107-.4.911.911,0,0,0-.178-.555,11.026,11.026,0,0,1-1.425-2.5h1.65c.269,0,.439-.221.439-.575" transform="translate(100 -48)"/>
    <path id="パス_8615" data-name="パス 8615" d="M894.616,531.454h-3.23v-2.343a.581.581,0,1,0-1.159,0v6.529h-1.284c-.862,0-1.232.407-1.232,1.363v4.124c0,.931.381,1.347,1.232,1.347h4.31c.854,0,1.234-.416,1.234-1.347V537c0-.956-.369-1.363-1.234-1.363h-1.867v-2.973h3.23c.276,0,.454-.238.454-.606s-.17-.607-.454-.607m-5.366,5.367h3.685c.294,0,.393.105.393.414v3.613c0,.309-.1.412-.393.412H889.25c-.293,0-.38-.1-.38-.412v-3.613c0-.314.092-.414.38-.414" transform="translate(100 -48)"/>
    <path id="パス_8616" data-name="パス 8616" d="M906.544,529.241h-3.312a1.062,1.062,0,0,0-1.191,1.2V542.2c0,.4.186.609.549.609s.555-.211.555-.609V530.979c0-.347.132-.517.406-.517h2.574c.263,0,.4.179.4.517v7.967c0,.5-.187.745-.571.745a4.361,4.361,0,0,1-1.293-.273,1.663,1.663,0,0,0-.414-.079c-.335,0-.5.237-.5.728a.635.635,0,0,0,.381.618,6.309,6.309,0,0,0,1.935.351c1.037,0,1.564-.566,1.564-1.681v-8.909c0-.8-.367-1.2-1.088-1.2" transform="translate(100 -48)"/>
    <path id="パス_8617" data-name="パス 8617" d="M900.88,528.877h0a14.164,14.164,0,0,1-3.641.591,1.093,1.093,0,0,0-.846.3,1.557,1.557,0,0,0-.294,1.029v9.272c0,.774.306,1.151.935,1.151a5.49,5.49,0,0,0,1.213-.249,19.8,19.8,0,0,0,2.332-1.066.682.682,0,0,0,.321-.549c-.032-.418-.211-.636-.548-.666a1.9,1.9,0,0,0-.714.165,9.731,9.731,0,0,1-2.233.838c-.138,0-.2-.068-.2-.213v-3.839h3.4c.374,0,.565-.228.565-.677,0-.4-.2-.609-.565-.609h-3.4V531.1c0-.264.119-.393.366-.393.136,0,.288-.027.428-.033q.327-.015.674-.053c.322-.035.649-.085.987-.149.2-.038.4-.081.6-.13s.372-.068.568-.122a.63.63,0,0,0,.6-.67c0-.439-.191-.672-.555-.672" transform="translate(100 -48)"/>
    <path id="パス_8618" data-name="パス 8618" d="M915.831,529.179h-5.4c-.661,0-.983.335-.983,1.023v4.991a27.463,27.463,0,0,1-.216,3.524c-.144.9-.332,1.9-.576,3.072a.57.57,0,0,0,.6.608.59.59,0,0,0,.548-.424,19.736,19.736,0,0,0,.5-2.372c.037-.295.055-.62.083-.928,0-.037.006-.074.011-.112.1-1.064.161-2.179.161-3.368V532.9h2.8v1.515h-1.269c-.72,0-1.086.383-1.086,1.14v5.828c0,.365.168.55.5.55a.487.487,0,0,0,.548-.55v-5.356c0-.34.137-.513.409-.513h.9V542.2c0,.382.163.567.5.567a.5.5,0,0,0,.551-.567v-6.689h.832c.307,0,.461.173.461.513v4.042c0,.421-.084.644-.245.644a.863.863,0,0,1-.36-.1l-.006,0a.317.317,0,0,1-.075-.01.153.153,0,0,0-.034-.006c-.271,0-.4.219-.4.67a.525.525,0,0,0,.342.49,2.3,2.3,0,0,0,.646.119c.792,0,1.2-.384,1.2-1.141v-5.175c0-.757-.351-1.14-1.043-1.14h-1.31V532.9h1.418c.657,0,.99-.364.99-1.083V530.2a.893.893,0,0,0-.99-1.023m-.125,1.449v.817c0,.2-.058.291-.189.291h-4.954v-1.108c0-.19.082-.286.244-.286h4.6c.192.026.3.127.3.286" transform="translate(100 -48)"/>
    <path id="パス_8619" data-name="パス 8619" d="M918.186,539.615c.372,0,.554-.2.554-.617v-8.432c0-.409-.182-.608-.554-.608s-.547.2-.547.608V539c0,.415.179.617.547.617" transform="translate(100 -48)"/>
    <path id="パス_8620" data-name="パス 8620" d="M920.6,528.94c-.363,0-.549.205-.549.609v11.178c0,.469-.189.7-.58.7a5.933,5.933,0,0,1-1.416-.366l-.048-.012a1.37,1.37,0,0,0-.247-.043c-.321.024-.491.234-.491.6a.6.6,0,0,0,.44.61,5.71,5.71,0,0,0,1.824.431,1.413,1.413,0,0,0,1.615-1.573V529.549c0-.4-.185-.609-.548-.609m-1.321,13.655c-.072-.007-.15-.018-.231-.032.079.013.158.025.231.032" transform="translate(100 -48)"/>
    <path id="パス_8621" data-name="パス 8621" d="M935.025,530.495c0,.393-.168.591-.482.591h-6.761a10.41,10.41,0,0,1-.586.935c-.162.232-.325.45-.487.664h6.455c.741,0,1.119.4,1.119,1.192v7.1c0,1.032-.683,1.546-2.033,1.546a7.836,7.836,0,0,1-1.966-.3.541.541,0,0,1-.385-.529c0-.467.139-.715.44-.715a1.684,1.684,0,0,1,.426.077,5.952,5.952,0,0,0,1.373.229c.686,0,1.026-.229,1.026-.713v-1.492h-6.877v2.98a.53.53,0,0,1-.594.592c-.354,0-.535-.2-.535-.592v-7.739a9.128,9.128,0,0,1-2.086,1.456.949.949,0,0,1-.37.061.438.438,0,0,1-.377-.216.6.6,0,0,1-.153-.44.789.789,0,0,1,.163-.482,10.972,10.972,0,0,0,3.916-3.414,1.5,1.5,0,0,0,.14-.2h-3.416c-.324,0-.487-.2-.487-.591,0-.347.163-.531.487-.531h4.085a11.636,11.636,0,0,0,.492-1.121.535.535,0,0,1,.548-.427.646.646,0,0,1,.368.122.367.367,0,0,1,.16.3,4.343,4.343,0,0,1-.049.467c-.084.245-.18.459-.259.654h6.223c.314,0,.482.184.482.531m-1.861,4.794v-.941c0-.346-.151-.533-.437-.533h-6.08c-.242,0-.36.187-.36.533v.941Zm0,1.081h-6.877v1.651h6.877Z" transform="translate(100 -48)"/>
    <path id="パス_8622" data-name="パス 8622" d="M939.193,529.134c.494,0,.754.284.754.831a2.319,2.319,0,0,1-.1.532l-.762,2.713a1.924,1.924,0,0,0-.042.424,1.159,1.159,0,0,0,.137.539,10.453,10.453,0,0,1,.723,1.772,6.589,6.589,0,0,1,.152,1.363,2.391,2.391,0,0,1-.572,1.653,1.764,1.764,0,0,1-1.414.665,2.172,2.172,0,0,1-.956-.254v2.913c0,.4-.176.59-.529.59s-.535-.2-.535-.59V530.149c0-.67.315-1.015.958-1.015h2.182Zm-1.215,9.3a.884.884,0,0,0,.736-.366,1.349,1.349,0,0,0,.277-.814,4.624,4.624,0,0,0-.123-1,9.147,9.147,0,0,0-.795-1.929,1.29,1.29,0,0,1-.095-.5,2.713,2.713,0,0,1,.043-.512l.753-2.866c0-.15-.067-.245-.205-.245h-1.121c-.219,0-.331.152-.331.424v7.464a2.332,2.332,0,0,0,.861.352m3.835,2.441c0,.152.07.224.229.224a6.666,6.666,0,0,0,1.537-.63,1,1,0,0,1,.477-.144c.327.035.5.247.534.654a.676.676,0,0,1-.316.548c-.722.395-1.295.681-1.721.865a4.929,4.929,0,0,1-.9.2c-.6,0-.9-.381-.9-1.124V530.437c0-.7.316-1.066.959-1.066h4.8c.628,0,.956.365.956,1.066v4.506c0,.716-.328,1.062-.956,1.062h-2.486a7.708,7.708,0,0,0,.426,1.418,4.871,4.871,0,0,0,.573,1.13,16.074,16.074,0,0,0,2.168-1.836,1.834,1.834,0,0,1,.379-.122c.363,0,.537.2.537.588a.818.818,0,0,1-.22.549,16.336,16.336,0,0,1-2.274,1.64,6.2,6.2,0,0,0,.909.986,5.577,5.577,0,0,0,1.174.848.9.9,0,0,1,.571.486.673.673,0,0,1,.1.366c0,.4-.173.593-.53.593a2.679,2.679,0,0,1-.915-.472,9.608,9.608,0,0,1-1.447-1.188,9.753,9.753,0,0,1-1.053-1.287,8.494,8.494,0,0,1-.816-1.59,10.631,10.631,0,0,1-.563-2.109h-1.233Zm.321-10.376c-.219,0-.321.119-.321.347v1.369h4.643v-1.369c0-.228-.111-.347-.32-.347h-4Zm-.321,4.386h4.323c.209,0,.32-.109.32-.35v-1.244h-4.643Z" transform="translate(100 -48)"/>
    <path id="パス_8623" data-name="パス 8623" d="M845.322,535.369v3.312a1.062,1.062,0,0,0,1.2,1.191h5.3a.536.536,0,0,0,.608-.581.544.544,0,0,0-.608-.586h-4.857c-.347,0-.516-.069-.516-.343v-2.574Z" transform="translate(100 -48)"/>
    <path id="パス_8624" data-name="パス 8624" d="M845.881,539.178l-.558-.47v-5.124c0-.3.21-.483.564-.483s.566.185.566.483v5.124h1.553v-7.487a25.878,25.878,0,0,1-2.948.467h-.046c-.318,0-.524-.219-.551-.587v-.05a.509.509,0,0,1,.494-.576,20.06,20.06,0,0,0,6.335-1.509.548.548,0,0,1,.23-.051.57.57,0,0,1,.5.368.9.9,0,0,1,.075.332.528.528,0,0,1-.323.494,19.882,19.882,0,0,1-2.625.856V534h2.41c.289,0,.454.21.454.577s-.17.59-.454.59h-2.41v3.545h2.884c.274,0,.439.213.439.574s-.169.591-.439.591H847.52Z" transform="translate(100 -48)"/>
    <path id="パス_8625" data-name="パス 8625" d="M852.283,541.316h-.059c-1.082.094-2.378.139-3.958.139a7.417,7.417,0,0,1-4.157-.873,4.7,4.7,0,0,1-1.221-1.135,13.841,13.841,0,0,0,1.326-4.279,1.322,1.322,0,0,0,.015-.241.929.929,0,0,0-.969-.992l-1.376.015c-.089,0-.143-.016-.143-.042a.239.239,0,0,1,.084-.122,21.455,21.455,0,0,0,2.007-2.893,1.017,1.017,0,0,0,.148-.537.848.848,0,0,0-.9-.869H840.3c-.271,0-.454.232-.454.576s.191.591.454.591h2.085c.214,0,.214.065.214.1a.489.489,0,0,1-.063.175,18.84,18.84,0,0,1-2.024,2.742,1.008,1.008,0,0,0-.248.65.7.7,0,0,0,.746.714h1.862c.161,0,.228.064.228.213a.372.372,0,0,1-.013.117,10.348,10.348,0,0,1-.884,2.995,11.433,11.433,0,0,1-.755-1.923.5.5,0,0,0-.466-.39.443.443,0,0,0-.244.066.557.557,0,0,0-.363.524.749.749,0,0,0,.059.294,12.393,12.393,0,0,0,1.169,2.548,9.265,9.265,0,0,1-1.865,2.186.643.643,0,0,0-.225.485.685.685,0,0,0,.149.419.614.614,0,0,0,.458.25.526.526,0,0,0,.382-.168,10.736,10.736,0,0,0,1.807-2.206,6.292,6.292,0,0,0,1.089,1.035c1.083.811,2.535,1.166,4.853,1.185.431.015.856.015,1.266.015.761,0,1.762-.009,2.753-.078.332,0,.525-.232.525-.637v-.049c-.039-.5-.3-.6-.51-.6" transform="translate(100 -48)"/>
    <path id="パス_8626" data-name="パス 8626" d="M827.913,531.338a.567.567,0,0,0,.87,0,.712.712,0,0,0,.164-.448.749.749,0,0,0-.193-.483,11.823,11.823,0,0,0-1.748-1.567.6.6,0,0,0-.321-.1.612.612,0,0,0-.5.252.675.675,0,0,0-.151.415.557.557,0,0,0,.2.427,15.148,15.148,0,0,1,1.676,1.508" transform="translate(100 -48)"/>
    <path id="パス_8627" data-name="パス 8627" d="M828.414,533.018a.567.567,0,0,0,.166.4.552.552,0,0,0,.414.187.593.593,0,0,0,.441-.219,13.268,13.268,0,0,0,1.466-2.3h6.949c.267,0,.439-.232.439-.591s-.168-.591-.439-.591h-6.4c.11-.264.193-.485.263-.693a.884.884,0,0,0,.044-.261.521.521,0,0,0-.341-.5.942.942,0,0,0-.279-.049.509.509,0,0,0-.479.389,11.976,11.976,0,0,1-2.036,3.722.846.846,0,0,0-.206.5" transform="translate(100 -48)"/>
    <path id="パス_8628" data-name="パス 8628" d="M827.234,535.232h0a.562.562,0,0,0,.41.168.632.632,0,0,0,.471-.218.648.648,0,0,0,.164-.435.691.691,0,0,0-.222-.5,11.752,11.752,0,0,0-1.732-1.458.588.588,0,0,0-.321-.1.673.673,0,0,0-.635.653.526.526,0,0,0,.2.427,12.222,12.222,0,0,1,1.663,1.462" transform="translate(100 -48)"/>
    <path id="パス_8629" data-name="パス 8629" d="M833.764,535.557h0a.562.562,0,0,0,.41.168.632.632,0,0,0,.471-.218.65.65,0,0,0,.164-.435.69.69,0,0,0-.222-.5,3.93,3.93,0,0,0-1.025-.807.6.6,0,0,0-.321-.1.672.672,0,0,0-.634.652.525.525,0,0,0,.2.427,3.987,3.987,0,0,1,.956.811" transform="translate(100 -48)"/>
    <path id="パス_8630" data-name="パス 8630" d="M833.678,539.262h0a.562.562,0,0,0,.41.168.632.632,0,0,0,.471-.218.648.648,0,0,0,.164-.435.691.691,0,0,0-.222-.5,3.931,3.931,0,0,0-1.025-.807.6.6,0,0,0-.321-.1.672.672,0,0,0-.634.652.528.528,0,0,0,.2.428,3.966,3.966,0,0,1,.956.81" transform="translate(100 -48)"/>
    <path id="パス_8631" data-name="パス 8631" d="M838.043,535.887h-.78c.045-.812.067-1.537.067-2.22a1.354,1.354,0,0,0-.3-1.005,1.217,1.217,0,0,0-.9-.3h-4.81c-.811,0-1.161.363-1.247,1.3-.071.728-.166,1.476-.283,2.225h-.958c-.272,0-.442.215-.442.559,0,.439.241.53.442.53h.774c-.141.811-.324,1.665-.532,2.471a1.975,1.975,0,0,0-.057.475c0,.6.388.93,1.093.93h5.514c-.025.118-.048.235-.072.339-.086.357-.237.471-.617.471a3.375,3.375,0,0,1-.9-.136.669.669,0,0,0-.181-.034c-.235,0-.4.158-.479.456l-.011.048a.562.562,0,0,0-.02.134.539.539,0,0,0,.4.543,5.556,5.556,0,0,0,1.335.141,1.334,1.334,0,0,0,1.466-1.181l.02-.081c.053-.216.107-.446.154-.7h.96a.215.215,0,0,0,.108-.033.182.182,0,0,1,.046-.023l.03-.011.007,0a.36.36,0,0,0,.2-.213l0-.01a.425.425,0,0,1,.021-.053.332.332,0,0,0,.04-.152c0-.35-.169-.56-.453-.56h-.776c.124-.874.22-1.8.293-2.818h.857c.2,0,.441-.091.441-.53,0-.344-.17-.559-.441-.559m-4.167,1.089h2.236c-.075,1.068-.177,1.99-.308,2.818h-5.281c-.215,0-.3-.06-.3-.212a1.04,1.04,0,0,1,.021-.161l0-.028c.166-.692.333-1.55.467-2.417h3.158Zm-.966-1.089H830.9c.107-.7.186-1.4.255-2.047.027-.3.135-.354.354-.354h4.407c.21,0,.324.057.324.365-.012.632-.025,1.347-.066,2.036H832.91Z" transform="translate(100 -48)"/>
    <path id="パス_8632" data-name="パス 8632" d="M827.95,537.185l-.03-.006a1.119,1.119,0,0,0-.2-.027.492.492,0,0,0-.5.391,22.134,22.134,0,0,1-1.525,3.977,1.025,1.025,0,0,0-.131.455.548.548,0,0,0,.288.506.6.6,0,0,0,.32.1.632.632,0,0,0,.559-.382,26.918,26.918,0,0,0,1.615-4.244l0-.009a.829.829,0,0,0,.027-.188.589.589,0,0,0-.426-.573" transform="translate(100 -48)"/>
    <path id="パス_8633" data-name="パス 8633" d="M823.877,539.052H823.8a.2.2,0,0,0-.1.034.159.159,0,0,1-.045.023.363.363,0,0,0-.054.021.425.425,0,0,0-.209.229l0,.006v0c-.008.02-.018.037-.027.055a.442.442,0,0,0-.054.17,5.308,5.308,0,0,1-.315,1.45c-.057.112-.112.173-.164.173-.073,0-.157-.068-.252-.2a7.578,7.578,0,0,1-1.152-2.143,19.077,19.077,0,0,0,1.8-5.06l0-.008a.831.831,0,0,0,.029-.186.53.53,0,0,0-.443-.53l-.021,0a.919.919,0,0,0-.184-.027.466.466,0,0,0-.467.427,18.327,18.327,0,0,1-1.159,3.82,19.228,19.228,0,0,1-.4-2.687c-.08-.908-.137-1.939-.166-3.065h3.159c.268,0,.427-.22.427-.59,0-.347-.162-.561-.427-.561h-.6c.021-.015.042-.033.063-.051a.52.52,0,0,0,.156-.378.559.559,0,0,0-.169-.406,6.466,6.466,0,0,0-1.346-1.012.563.563,0,0,0-.274-.083.436.436,0,0,0-.388.251.536.536,0,0,0-.109.309.47.47,0,0,0,.26.411,9.2,9.2,0,0,1,1.191.957l0,0h-1.966c-.013-.464-.013-.956-.013-1.478a.5.5,0,0,0-.564-.483.488.488,0,0,0-.552.483V530.4h-5.9c-.855,0-1.289.485-1.289,1.441v1.883c0,3.932-.328,6.422-1.065,8.073a.653.653,0,0,0-.06.282.594.594,0,0,0,.349.555.622.622,0,0,0,.286.066.546.546,0,0,0,.518-.369c.751-1.791,1.117-4.524,1.117-8.36v-1.868c0-.4.125-.552.464-.552h5.609c.04,1.19.107,2.256.207,3.259a19.369,19.369,0,0,0,.705,3.941,9.569,9.569,0,0,1-2.506,2.809.583.583,0,0,0-.257.488.721.721,0,0,0,.133.4.545.545,0,0,0,.432.251.664.664,0,0,0,.42-.164,10.432,10.432,0,0,0,2.267-2.453,7.318,7.318,0,0,0,1.139,1.905,1.513,1.513,0,0,0,1.081.651.983.983,0,0,0,.853-.646,6.768,6.768,0,0,0,.561-2.369v-.063a.485.485,0,0,0-.465-.513" transform="translate(100 -48)"/>
    <path id="パス_8634" data-name="パス 8634" d="M818.218,540.843a.7.7,0,0,0,.1-.367.608.608,0,0,0-.274-.519l-.153-.1-.007-.005c-.152-.1-.308-.207-.479-.313a8.412,8.412,0,0,0,1.085-3.1h.611c.254,0,.426-.212.426-.529s-.163-.53-.426-.53h-2.811c.142-.49.273-.986.389-1.475h1.991c.254,0,.413-.2.413-.528s-.154-.53-.413-.53h-4.63c-.258,0-.412.2-.412.53s.157.528.412.528h1.548c-.1.406-.224.955-.389,1.475h-1.45c-.259,0-.413.2-.413.53s.159.529.413.529h1.093c-.164.444-.356.89-.583,1.364a1.444,1.444,0,0,0-.186.639c0,.318.19.568.6.787.355.181.723.4,1.126.656a7.686,7.686,0,0,1-2.386,1.491.5.5,0,0,0-.325.495.819.819,0,0,0,.046.25c.112.268.273.4.478.4a.686.686,0,0,0,.257-.051,8,8,0,0,0,2.838-1.987c.233.166.477.349.724.545a.512.512,0,0,0,.324.118.56.56,0,0,0,.461-.3m-.745-4.408a6.752,6.752,0,0,1-.954,2.569c-.337-.2-.712-.4-1.117-.611-.107-.053-.152-.114-.152-.2a.578.578,0,0,1,.078-.255,15.381,15.381,0,0,0,.615-1.5Z" transform="translate(100 -48)"/>
    <path id="パス_8635" data-name="パス 8635" d="M865.944,535.028c0,.409-.177.606-.532.606H855.038c-.354,0-.531-.2-.531-.606,0-.386.177-.581.531-.581h10.374c.355,0,.532.2.532.581" transform="translate(100 -48)"/>
    <path id="パス_8636" data-name="パス 8636" d="M866.63,538.3c0,.409-.177.606-.532.606H854.353c-.356,0-.533-.2-.533-.606,0-.387.177-.581.533-.581H866.1q.532,0,.532.581" transform="translate(100 -48)"/>
    <path id="パス_8637" data-name="パス 8637" d="M866.63,531.755c0,.409-.177.606-.532.606H854.353c-.356,0-.533-.2-.533-.606,0-.386.177-.581.533-.581H866.1c.355,0,.532.2.532.581" transform="translate(100 -48)"/>
    <path id="パス_8638" data-name="パス 8638" d="M860.213,528.923c.409,0,.606.177.606.532V542.3c0,.355-.2.532-.606.532-.386,0-.581-.177-.581-.532V529.455c0-.355.2-.532.581-.532" transform="translate(100 -48)"/>
  </g>
</svg>
