<svg xmlns="http://www.w3.org/2000/svg" xmlns:xlink="http://www.w3.org/1999/xlink" width="308.4" height="84.108" viewBox="0 0 308.4 84.108">
  <defs>
    <clipPath id="clip-path">
      <path id="パス_8337" data-name="パス 8337" d="M722.409,186.815a7.179,7.179,0,0,0-7.067,7.177v68.753a7.179,7.179,0,0,0,7.179,7.178h293.044a7.178,7.178,0,0,0,7.177-7.178V193.992a7.178,7.178,0,0,0-7.065-7.177Z" fill="#fff"/>
    </clipPath>
  </defs>
  <g id="グループ_3919" data-name="グループ 3919" transform="translate(-814.843 -138.314)">
    <g id="グループ_3836" data-name="グループ 3836" transform="translate(100 -48)">
      <g id="グループ_3835" data-name="グループ 3835" clip-path="url(#clip-path)">
        <rect id="長方形_937" data-name="長方形 937" width="307.4" height="83.108" transform="translate(715.342 186.815)" fill="#fff"/>
      </g>
    </g>
    <rect id="長方形_938" data-name="長方形 938" width="307.4" height="83.108" rx="7.178" transform="translate(815.343 138.814)" fill="#fff" stroke="#b2b2b3" stroke-miterlimit="10" stroke-width="1"/>
    <path id="パス_8433" data-name="パス 8433" d="M794.377,220.183a4.423,4.423,0,0,1-8.679,0c-4.583,1.547-7.84,5.472-7.84,10.071a10.75,10.75,0,0,0,6.85,9.693s1.437.714,1.865-.135c.478-.951-1-1.626-1-1.626a7.123,7.123,0,0,1-3.952-6.174c0-4.021,3.77-7.28,8.42-7.28s8.419,3.259,8.419,7.28a7.136,7.136,0,0,1-4.023,6.212s-1.281.533-.844,1.483,1.686.279,1.686.279a10.766,10.766,0,0,0,6.941-9.732c0-4.6-3.256-8.524-7.84-10.071" transform="translate(100 -48)"/>
    <path id="パス_8434" data-name="パス 8434" d="M796.331,231.7c0,1.147-2.818,2.077-6.293,2.077s-6.294-.93-6.294-2.077,2.818-2.078,6.294-2.078,6.293.93,6.293,2.078" transform="translate(100 -48)" fill="#04a658"/>
    <path id="パス_8435" data-name="パス 8435" d="M793.4,219.327a3.36,3.36,0,1,1-3.36-3.36,3.36,3.36,0,0,1,3.36,3.36" transform="translate(100 -48)"/>
    <path id="パス_8436" data-name="パス 8436" d="M950.63,225.935h-2.507a.963.963,0,0,1,0-1.91h1.466v-1.377a.9.9,0,0,1,1.786,0v1.377h.94a.806.806,0,0,1,.8.692.768.768,0,0,1,.6-.269h1.362v-1.783a.929.929,0,0,1,1.839,0v1.783h1.765a.965.965,0,0,1,0,1.911H956.92v6.686h2.471a.963.963,0,0,1,0,1.91h-7.05a.963.963,0,0,1,0-1.91h2.74v-6.686h-1.362a.785.785,0,0,1-.762-.55,10.522,10.522,0,0,1-1.183,2.16l-.14.2,2.108,1.792a.865.865,0,0,1,.064,1.236.852.852,0,0,1-1.222.122l-1.352-1.15v4.439a.9.9,0,0,1-1.784,0V230.9a6.667,6.667,0,0,1-.593.589c-.636.53-1.1.458-1.451.034a.967.967,0,0,1,.106-1.379,24.342,24.342,0,0,0,2.087-2.194,10.093,10.093,0,0,0,1.193-1.775c.075-.161.039-.241-.16-.241" transform="translate(100 -48)" fill="#2b4b98"/>
    <path id="パス_8437" data-name="パス 8437" d="M933.528,230.035c-.428-.035-.851.133-.878.821-.028.786-.13,1.568-.292,1.568-.317,0-.724-1.4-1.219-3.768-.2-.948-.35-1.943-.46-2.86h2.636a.964.964,0,0,0,0-1.911h-.123l.007-.006a.836.836,0,0,0-.127-1.194,4.915,4.915,0,0,0-.87-.689.965.965,0,0,0-1.234.1c-.387.352-.279.839.146,1.175l.746.617h-1.372c-.046-.523-.067-.958-.081-1.24a.9.9,0,0,0-1.789.068c0,.336.021.737.058,1.172h-5.661a.965.965,0,0,0,0,1.911h5.877c.153,1.126.358,2.337.574,3.443A18.379,18.379,0,0,0,930.9,233.8c.636,1.169.975,1.38,1.611,1.38s1.069-.531,1.377-1.451a12.521,12.521,0,0,0,.423-2.688.827.827,0,0,0-.784-1.008m-5.625,1.512c-.419.164-.824.315-1.233.461v-3.2h1.361a.934.934,0,0,0,0-1.852h-4.8a.935.935,0,0,0,0,1.852h1.713v3.716c-.54.135-1.13.259-1.817.375-.65.109-.9.585-.8,1.291.117.8.582.9,1.464.753a19.533,19.533,0,0,0,4.7-1.514c.717-.379,1.012-.743.9-1.46-.085-.573-.6-.773-1.487-.424" transform="translate(100 -48)" fill="#2b4b98"/>
    <path id="パス_8438" data-name="パス 8438" d="M944.222,230.684a1,1,0,0,0-1.327-.08.776.776,0,0,0-.081,1.141c.156.183.329.4.512.632-.844.117-1.963.26-2.981.332-.44.032-.895.058-1.331.081l1.248-2.622h5.656a.916.916,0,0,0,0-1.815h-10.09a.916.916,0,0,0,0,1.815h2.423l-1.295,2.723c-.38.016-.685.033-.889.048-.5.038-.886.283-.885,1.039a.828.828,0,0,0,.952.907c.886-.018,2.8-.142,4.634-.355,1.526-.174,2.991-.391,3.733-.517.162.236.316.469.46.695a.961.961,0,0,0,1.462.381.927.927,0,0,0,.2-1.336,19.886,19.886,0,0,0-2.4-3.069m2.112-5.256a22.742,22.742,0,0,1-3.346-2.068c-1.032-.743-1.408-1.487-2.148-1.487s-1.129.744-2.164,1.487a22.921,22.921,0,0,1-3.344,2.068.968.968,0,0,0-.488,1.427c.287.6.705.834,1.7.247.211-.126.425-.261.641-.4a.8.8,0,0,0,.789.862h5.661a.815.815,0,0,0,.793-.892c.231.149.461.293.691.428.992.587,1.414.354,1.7-.247a.969.969,0,0,0-.485-1.427m-7.764.323c.852-.621,1.64-1.265,2.265-1.827.622.562,1.41,1.206,2.258,1.827Z" transform="translate(100 -48)" fill="#2b4b98"/>
    <path id="パス_8439" data-name="パス 8439" d="M921.5,232.971c-.319-.513-.893-1.35-1.432-2.229a25.147,25.147,0,0,1-1.224-2.365h1.717a.915.915,0,0,0,0-1.814h-2.28v-1.192h2.143a.916.916,0,0,0,0-1.815h-2.143v-1.24a.815.815,0,0,0-1.613,0v1.24h-.731a5.791,5.791,0,0,0,.132-.842.742.742,0,0,0-.7-.807c-.441-.061-.795.062-.895.582a11.624,11.624,0,0,1-.288,1.23,5.682,5.682,0,0,1-.271.644.731.731,0,0,0-.641-.348h-.654v-1.7a.812.812,0,0,0-1.608,0v1.7H909.94a.916.916,0,0,0,0,1.816h1.006a16.824,16.824,0,0,1-.6,2.153,15.691,15.691,0,0,1-.9,2.033,1.4,1.4,0,0,0-.061,1.477c.36.576.925.232,1.3-.416a5.222,5.222,0,0,0,.329-.752v4.148a.812.812,0,0,0,1.608,0v-4.949c.019.046.038.089.055.124.264.611.808.929,1.26.571a.969.969,0,0,0,.17-1.352c-.4-.73-.945-1.887-1.485-3v-.033h.654a.794.794,0,0,0,.237-.04.846.846,0,0,0,.233.334c.335.3.873.424,1.4-.387a3.537,3.537,0,0,0,.2-.367h1.331v1.192h-2.2a.915.915,0,0,0,0,1.814h1.539c-.287.619-.784,1.643-1.224,2.365-.538.879-1.116,1.716-1.433,2.229a.9.9,0,0,0,.034,1.221.73.73,0,0,0,1.206-.071c.306-.4.914-1.42,1.468-2.37a12.342,12.342,0,0,0,.607-1.238v3.961a.815.815,0,0,0,1.613,0v-3.743a10.514,10.514,0,0,0,.516,1.02c.551.95,1.158,1.973,1.466,2.37a.726.726,0,0,0,1.2.071.9.9,0,0,0,.035-1.221" transform="translate(100 -48)" fill="#2b4b98"/>
    <path id="パス_8440" data-name="パス 8440" d="M812.993,221.96c-3.2,0-5.8,2.367-5.8,6.533s2.6,6.534,5.8,6.534,5.8-2.363,5.8-6.534-2.6-6.533-5.8-6.533m0,11.076c-2.01,0-3.642-1.644-3.642-4.543s1.632-4.538,3.642-4.538,3.64,1.642,3.64,4.538-1.631,4.543-3.64,4.543" transform="translate(100 -48)" fill="#2b4b98"/>
    <path id="パス_8441" data-name="パス 8441" d="M820.024,225.561c0-2.591,2.181-3.6,4.748-3.6,3.212,0,4.381,1.674,4.68,2.225s.3,1.169-.3,1.467c-.641.321-1.193.251-1.514-.321-.38-.676-1.054-1.492-3.142-1.492-1.009,0-2.317.5-2.317,1.584s.857,1.4,1.858,1.584a23.058,23.058,0,0,1,4.015.914,3.171,3.171,0,0,1,1.926,3.144c0,2.018-1.377,3.968-4.977,3.968-4.634,0-5.183-2.657-5.482-3.6-.161-.5.09-1.052.94-1.171a1.019,1.019,0,0,1,1.285.691,2.836,2.836,0,0,0,3.1,2.156c2.568,0,2.982-1.217,2.982-1.973a1.77,1.77,0,0,0-1.6-1.742,28.558,28.558,0,0,1-4.245-.9,3.031,3.031,0,0,1-1.95-2.937" transform="translate(100 -48)" fill="#2b4b98"/>
    <path id="パス_8442" data-name="パス 8442" d="M831.2,223.479v10.707c0,.587.477.853,1.064.853s1.067-.266,1.067-.853V229.31h5.437c2.591,0,3.531-1.653,3.531-3.671s-1.035-3.673-3.531-3.673h-5.971a1.4,1.4,0,0,0-1.6,1.513m2.772.395h4.437c1.2,0,1.7.606,1.7,1.765,0,1.12-.45,1.768-1.7,1.768h-5.078v-2.952c0-.469.243-.581.641-.581" transform="translate(100 -48)" fill="#2b4b98"/>
    <path id="パス_8443" data-name="パス 8443" d="M853.9,222.244H843.812a.917.917,0,0,0-.855,1.014.95.95,0,0,0,.855,1.05H852.6c.34,0,.453.045.453.411a3.8,3.8,0,0,1-.692,1.967,5.176,5.176,0,0,1-2.193,1.817.979.979,0,0,0-.524,1.367,1.126,1.126,0,0,0,1.592.508,6.882,6.882,0,0,0,2.9-2.533,7.755,7.755,0,0,0,1.1-4.174,1.308,1.308,0,0,0-1.343-1.427" transform="translate(100 -48)" fill="#2b4b98"/>
    <path id="パス_8444" data-name="パス 8444" d="M847.987,225.055a1.015,1.015,0,0,0-1.028.988,10.268,10.268,0,0,1-.637,4.378,5.942,5.942,0,0,1-2.923,2.705.963.963,0,0,0-.435,1.44c.322.619.922.6,1.478.4a7.986,7.986,0,0,0,3.7-3.618,12.781,12.781,0,0,0,.915-5.309,1.056,1.056,0,0,0-1.074-.988" transform="translate(100 -48)" fill="#2b4b98"/>
    <path id="パス_8445" data-name="パス 8445" d="M866.023,223.7a.578.578,0,0,0,1.046-.494l-.969-2.067a.579.579,0,0,0-1.046.495Z" transform="translate(100 -48)" fill="#2b4b98"/>
    <path id="パス_8446" data-name="パス 8446" d="M864.456,224.253a.578.578,0,1,0,1.046-.493l-.968-2.066a.578.578,0,1,0-1.046.494Z" transform="translate(100 -48)" fill="#2b4b98"/>
    <path id="パス_8447" data-name="パス 8447" d="M866.739,228.883a23.939,23.939,0,0,0-3.31-1.345c-1.573-.574-3.182-1.083-3.976-1.326v-3.469a.994.994,0,0,0-1.072-.89.982.982,0,0,0-1.06.89v11.449a.983.983,0,0,0,1.06.89,1,1,0,0,0,1.072-.89V228.3c.935.271,2.013.658,3.024,1.033,1.213.452,2.72,1.13,3.308,1.426a1.054,1.054,0,0,0,.954-1.877" transform="translate(100 -48)" fill="#2b4b98"/>
    <path id="パス_8448" data-name="パス 8448" d="M879.313,224.364a.6.6,0,0,0,1.077-.508l-1-2.126a.6.6,0,1,0-1.077.507Z" transform="translate(100 -48)" fill="#2b4b98"/>
    <path id="パス_8449" data-name="パス 8449" d="M872.089,221.9c-.777.006-1.072.56-1.113,1.192a33.513,33.513,0,0,1-.8,5.557,22.739,22.739,0,0,1-1.705,4.783c-.315.616-.279,1.162.28,1.466a1.178,1.178,0,0,0,1.686-.465,20.793,20.793,0,0,0,1.861-5.319,37.735,37.735,0,0,0,.844-6.15.975.975,0,0,0-1.056-1.064" transform="translate(100 -48)" fill="#2b4b98"/>
    <path id="パス_8450" data-name="パス 8450" d="M881.005,221.161a.6.6,0,0,0-1.077.51l1,2.126a.595.595,0,1,0,1.076-.508Z" transform="translate(100 -48)" fill="#2b4b98"/>
    <path id="パス_8451" data-name="パス 8451" d="M879.653,228.152a45.881,45.881,0,0,0-1.876-5.347c-.295-.609-.64-.988-1.4-.732a.892.892,0,0,0-.612,1.333c.256.662,1.239,3.467,1.82,5.473.7,2.413,1.017,4.069,1.258,5.28.149.758.656,1,1.446.765a1.056,1.056,0,0,0,.667-1.366c-.144-.755-.562-2.795-1.307-5.406" transform="translate(100 -48)" fill="#2b4b98"/>
    <path id="パス_8452" data-name="パス 8452" d="M894.638,224.133a1.034,1.034,0,0,0-1.261.741,11.8,11.8,0,0,1-2.974,5.38,10.212,10.212,0,0,1-5.261,2.615c-.906.224-1.318.567-1.205,1.328.1.7.7.965,1.632.8a11.8,11.8,0,0,0,6.58-3.574,14.569,14.569,0,0,0,3.2-5.925c.164-.8-.1-1.237-.706-1.369" transform="translate(100 -48)" fill="#2b4b98"/>
    <path id="パス_8453" data-name="パス 8453" d="M884.85,224.5c.94.417,2.234,1.13,3.173,1.672.571.33,1.114.317,1.45-.295a.875.875,0,0,0-.18-1.255,17.32,17.32,0,0,0-3.519-1.882c-.7-.228-1.1-.073-1.336.509-.248.624-.062,1.041.412,1.251" transform="translate(100 -48)" fill="#2b4b98"/>
    <path id="パス_8454" data-name="パス 8454" d="M906.274,231.382c-.635-.705-1.378-1.486-2.112-2.182a13.411,13.411,0,0,0,1.858-5.355,1.293,1.293,0,0,0-1.371-1.341h-6.522a1.039,1.039,0,0,0,0,2.065h5.317c.242,0,.329.039.312.278a9.723,9.723,0,0,1-2.415,4.557,14.733,14.733,0,0,1-4.669,3.637.939.939,0,0,0-.34,1.408c.458.791,1.463.433,2.007.128a15.822,15.822,0,0,0,2.669-1.806,11.747,11.747,0,0,0,1.855-1.919,21.567,21.567,0,0,1,1.737,1.868c.589.712,1.042,1.343,1.483,1.9a1.11,1.11,0,0,0,1.791-1.284,23.644,23.644,0,0,0-1.6-1.954" transform="translate(100 -48)" fill="#2b4b98"/>
  </g>
</svg>
