<svg xmlns="http://www.w3.org/2000/svg" xmlns:xlink="http://www.w3.org/1999/xlink" width="308.4" height="84.108" viewBox="0 0 308.4 84.108">
  <defs>
    <clipPath id="clip-path">
      <rect id="長方形_957" data-name="長方形 957" width="307.399" height="83.108" rx="7.178" transform="translate(715.756 599.815)" fill="#fff"/>
    </clipPath>
  </defs>
  <g id="グループ_3931" data-name="グループ 3931" transform="translate(-815.255 -551.314)">
    <g id="グループ_3856" data-name="グループ 3856" transform="translate(100 -48)">
      <g id="グループ_3855" data-name="グループ 3855" clip-path="url(#clip-path)">
        <rect id="長方形_956" data-name="長方形 956" width="307.399" height="83.108" transform="translate(715.756 599.815)" fill="#fff"/>
      </g>
    </g>
    <rect id="長方形_958" data-name="長方形 958" width="307.4" height="83.108" rx="7.178" transform="translate(815.755 551.814)" fill="#fff" stroke="#b2b2b3" stroke-miterlimit="10" stroke-width="1"/>
    <path id="パス_8584" data-name="パス 8584" d="M787.634,641.8a6.835,6.835,0,0,1-.415,2.424,5.355,5.355,0,0,1-3.069,3.155,6.377,6.377,0,0,1-2.449.452,6.63,6.63,0,0,1-2.513-.452,5.245,5.245,0,0,1-3.052-3.155,6.97,6.97,0,0,1-.409-2.424,6.872,6.872,0,0,1,.423-2.447,5.546,5.546,0,0,1,1.194-1.908,5.381,5.381,0,0,1,1.875-1.251,6.415,6.415,0,0,1,2.461-.446,6.561,6.561,0,0,1,2.5.446,5.26,5.26,0,0,1,3.047,3.159,7.054,7.054,0,0,1,.407,2.447m-1.548,0a5.863,5.863,0,0,0-.338-2.075,4.2,4.2,0,0,0-.933-1.5,3.9,3.9,0,0,0-1.4-.91,5.038,5.038,0,0,0-3.469,0,3.946,3.946,0,0,0-1.4.91,4.2,4.2,0,0,0-.93,1.5,5.862,5.862,0,0,0-.339,2.075,5.717,5.717,0,0,0,.344,2.065,4.3,4.3,0,0,0,.938,1.494,3.909,3.909,0,0,0,1.4.9,4.954,4.954,0,0,0,1.745.308,4.849,4.849,0,0,0,1.726-.308,3.9,3.9,0,0,0,1.388-.9,4.257,4.257,0,0,0,.933-1.494,5.787,5.787,0,0,0,.338-2.065" transform="translate(100 -48)"/>
    <path id="パス_8585" data-name="パス 8585" d="M790.526,639.043a1.58,1.58,0,0,0,.208.85,1.7,1.7,0,0,0,.559.555,3.585,3.585,0,0,0,.817.353c.312.094.632.181.967.266.452.106.9.23,1.332.363a4.292,4.292,0,0,1,1.172.552,2.715,2.715,0,0,1,.826.917,2.979,2.979,0,0,1,.317,1.456,3.317,3.317,0,0,1-.344,1.561,3.022,3.022,0,0,1-.949,1.085,4.4,4.4,0,0,1-1.431.624,7.662,7.662,0,0,1-1.81.2,7.974,7.974,0,0,1-.929-.054c-.317-.041-.618-.092-.907-.157a6.528,6.528,0,0,1-.777-.22,2.719,2.719,0,0,1-.548-.243v-1.3a5.677,5.677,0,0,0,.705.289,7.8,7.8,0,0,0,.808.219,7.4,7.4,0,0,0,.846.146,7.5,7.5,0,0,0,.8.053,5.962,5.962,0,0,0,1.16-.109,2.988,2.988,0,0,0,.973-.344,1.8,1.8,0,0,0,.659-.668,2.06,2.06,0,0,0,.245-1.056,1.6,1.6,0,0,0-.214-.863,1.79,1.79,0,0,0-.57-.562,3.443,3.443,0,0,0-.823-.36c-.31-.1-.637-.183-.981-.263-.449-.106-.893-.222-1.327-.35a4.137,4.137,0,0,1-1.156-.545,2.657,2.657,0,0,1-.819-.9,2.83,2.83,0,0,1-.308-1.4,3.355,3.355,0,0,1,.325-1.531,3.022,3.022,0,0,1,.878-1.055,3.761,3.761,0,0,1,1.276-.619,5.866,5.866,0,0,1,1.543-.2,8.014,8.014,0,0,1,1.735.177,8.23,8.23,0,0,1,1.475.469V637.7a9.846,9.846,0,0,0-1.492-.5,6.75,6.75,0,0,0-1.651-.2,4.164,4.164,0,0,0-1.146.142,2.3,2.3,0,0,0-.81.412,1.587,1.587,0,0,0-.481.644,2.175,2.175,0,0,0-.155.838" transform="translate(100 -48)"/>
    <path id="パス_8586" data-name="パス 8586" d="M832.981,639.043a1.58,1.58,0,0,0,.209.85,1.7,1.7,0,0,0,.559.555,3.585,3.585,0,0,0,.817.353c.311.094.633.181.967.266.451.106.9.23,1.332.363a4.286,4.286,0,0,1,1.171.552,2.708,2.708,0,0,1,.827.917,2.98,2.98,0,0,1,.316,1.456,3.317,3.317,0,0,1-.343,1.561,3.022,3.022,0,0,1-.949,1.085,4.4,4.4,0,0,1-1.432.624,7.653,7.653,0,0,1-1.809.2,7.974,7.974,0,0,1-.929-.054c-.317-.041-.618-.092-.907-.157a6.528,6.528,0,0,1-.777-.22,2.756,2.756,0,0,1-.549-.243v-1.3a5.757,5.757,0,0,0,.706.289,7.717,7.717,0,0,0,.807.219,7.42,7.42,0,0,0,.847.146,7.5,7.5,0,0,0,.8.053,5.97,5.97,0,0,0,1.16-.109,2.988,2.988,0,0,0,.973-.344,1.82,1.82,0,0,0,.659-.668,2.06,2.06,0,0,0,.244-1.056,1.6,1.6,0,0,0-.214-.863,1.787,1.787,0,0,0-.569-.562,3.433,3.433,0,0,0-.824-.36c-.31-.1-.636-.183-.98-.263-.449-.106-.893-.222-1.327-.35a4.124,4.124,0,0,1-1.156-.545,2.656,2.656,0,0,1-.819-.9,2.829,2.829,0,0,1-.309-1.4,3.343,3.343,0,0,1,.326-1.531,3.033,3.033,0,0,1,.878-1.055,3.757,3.757,0,0,1,1.277-.619,5.852,5.852,0,0,1,1.542-.2,8.021,8.021,0,0,1,1.735.177,8.23,8.23,0,0,1,1.475.469V637.7a9.811,9.811,0,0,0-1.492-.5,6.75,6.75,0,0,0-1.651-.2,4.164,4.164,0,0,0-1.146.142,2.3,2.3,0,0,0-.81.412,1.576,1.576,0,0,0-.48.644,2.158,2.158,0,0,0-.157.838" transform="translate(100 -48)"/>
    <path id="パス_8587" data-name="パス 8587" d="M800.635,647.758H799.2v-11.8h3.27a10.055,10.055,0,0,1,1.351.09,5.83,5.83,0,0,1,1.141.273,3.278,3.278,0,0,1,1.6,1.134,3.076,3.076,0,0,1,.547,1.854,3.382,3.382,0,0,1-.358,1.585,3.162,3.162,0,0,1-1.033,1.143,5.009,5.009,0,0,1-1.652.691,9.592,9.592,0,0,1-2.207.234c-.392,0-.8-.015-1.223-.053Zm0-6.161c.193.024.4.041.609.049s.411.021.6.021a8.048,8.048,0,0,0,1.727-.159,3.394,3.394,0,0,0,1.167-.46,1.81,1.81,0,0,0,.65-.744,2.3,2.3,0,0,0,.205-.992,1.825,1.825,0,0,0-.331-1.126,2.026,2.026,0,0,0-.938-.671,3.683,3.683,0,0,0-.876-.2,9.991,9.991,0,0,0-1.144-.061h-1.667Z" transform="translate(100 -48)"/>
    <path id="パス_8588" data-name="パス 8588" d="M903.167,647.758h-1.439v-11.8H905a10.066,10.066,0,0,1,1.351.09,5.83,5.83,0,0,1,1.141.273,3.278,3.278,0,0,1,1.6,1.134,3.076,3.076,0,0,1,.547,1.854,3.382,3.382,0,0,1-.358,1.585,3.171,3.171,0,0,1-1.033,1.143,5.01,5.01,0,0,1-1.652.691,9.592,9.592,0,0,1-2.207.234c-.392,0-.8-.015-1.223-.053Zm0-6.161c.193.024.4.041.609.049s.411.021.6.021a8.048,8.048,0,0,0,1.727-.159,3.393,3.393,0,0,0,1.167-.46,1.81,1.81,0,0,0,.65-.744,2.3,2.3,0,0,0,.2-.992,1.824,1.824,0,0,0-.331-1.126,2.025,2.025,0,0,0-.938-.671,3.683,3.683,0,0,0-.876-.2,9.992,9.992,0,0,0-1.144-.061h-1.667Z" transform="translate(100 -48)"/>
    <path id="パス_8589" data-name="パス 8589" d="M884.388,647.6l4.742-10.53.57-1.234.658,1.234L895.1,647.6H893.56l-1.389-3.167H887.3l-1.389,3.167Zm5.344-8.888c-.52,1.31-1.017,2.5-1.489,3.574l-.435.992h3.86l-.443-.99q-.715-1.638-1.461-3.576Z" transform="translate(100 -48)"/>
    <path id="パス_8590" data-name="パス 8590" d="M809.875,647.6l4.742-10.53.57-1.234.658,1.234,4.745,10.53h-1.543l-1.389-3.167h-4.871L811.4,647.6Zm5.344-8.888c-.52,1.31-1.017,2.5-1.489,3.574l-.435.992h3.86l-.443-.99q-.715-1.638-1.461-3.576Z" transform="translate(100 -48)"/>
    <path id="パス_8591" data-name="パス 8591" d="M860.807,647.6l4.742-10.53.57-1.234.658,1.234,4.745,10.53h-1.543l-1.389-3.167h-4.871L862.33,647.6Zm5.344-8.888c-.52,1.31-1.017,2.5-1.489,3.574l-.435.992h3.86l-.443-.99q-.715-1.638-1.461-3.576Z" transform="translate(100 -48)"/>
    <rect id="長方形_990" data-name="長方形 990" width="1.421" height="11.647" transform="translate(981.354 587.961)"/>
    <path id="パス_8592" data-name="パス 8592" d="M874.155,635.961v10.366h5.686v1.281h-7.1V635.961Z" transform="translate(100 -48)"/>
    <path id="パス_8593" data-name="パス 8593" d="M916.609,647.608H915.19V637.242H911.3v-1.281h9.2v1.281h-3.891Z" transform="translate(100 -48)"/>
    <path id="パス_8594" data-name="パス 8594" d="M845.676,647.608h-1.419V637.242h-3.892v-1.281h9.2v1.281h-3.89Z" transform="translate(100 -48)"/>
    <path id="パス_8595" data-name="パス 8595" d="M937.805,635.961v10.366h5.686v1.281h-7.1V635.961Z" transform="translate(100 -48)"/>
    <path id="パス_8596" data-name="パス 8596" d="M948.027,647.608h-1.419V637.242h-3.892v-1.281h9.2v1.281h-3.891Z" transform="translate(100 -48)"/>
    <path id="パス_8597" data-name="パス 8597" d="M963.182,641.732a7.054,7.054,0,0,1-.252,1.915,5.176,5.176,0,0,1-.764,1.618A4.975,4.975,0,0,1,960.9,646.5a6,6,0,0,1-1.779.813,7.2,7.2,0,0,1-1.263.23c-.45.044-.944.062-1.469.062h-2.639V635.96h2.662c.532,0,1.019.025,1.474.068a7,7,0,0,1,1.26.231,6.024,6.024,0,0,1,1.784.8,4.776,4.776,0,0,1,1.258,1.21,4.967,4.967,0,0,1,.75,1.578,6.761,6.761,0,0,1,.249,1.881m-1.411,0a4.618,4.618,0,0,0-.741-2.724,3.95,3.95,0,0,0-2.124-1.481,6.112,6.112,0,0,0-1.182-.225c-.437-.038-.927-.061-1.475-.061h-1.084v9.086h1.084c.548,0,1.038-.017,1.475-.058a5.614,5.614,0,0,0,1.182-.23,3.857,3.857,0,0,0,2.124-1.523,4.834,4.834,0,0,0,.741-2.784" transform="translate(100 -48)"/>
    <path id="パス_8598" data-name="パス 8598" d="M828.125,635.984v7.222a5.908,5.908,0,0,1-.057.806,3.635,3.635,0,0,1-.178.752,2.673,2.673,0,0,1-1.013,1.332,3.01,3.01,0,0,1-3.277,0,2.667,2.667,0,0,1-1.013-1.332,3.764,3.764,0,0,1-.179-.752,6.064,6.064,0,0,1-.056-.806v-7.222h-1.418v7.188a8.685,8.685,0,0,0,.056.965,5.3,5.3,0,0,0,.188.931,4.385,4.385,0,0,0,.512,1.11,3.265,3.265,0,0,0,.849.879,4.086,4.086,0,0,0,1.24.578,5.2,5.2,0,0,0,2.919,0,4.085,4.085,0,0,0,1.24-.578,3.261,3.261,0,0,0,.848-.879,4.357,4.357,0,0,0,.514-1.11,5.292,5.292,0,0,0,.186-.931,8.467,8.467,0,0,0,.058-.965v-7.188Z" transform="translate(100 -48)"/>
    <path id="パス_8599" data-name="パス 8599" d="M856.139,642.626a5.026,5.026,0,0,0,1.249-.381,3.272,3.272,0,0,0,.967-.665,2.872,2.872,0,0,0,.627-.96,3.331,3.331,0,0,0,.223-1.255,3.055,3.055,0,0,0-.635-1.976,3.422,3.422,0,0,0-1.836-1.119,5.915,5.915,0,0,0-.965-.178,12.571,12.571,0,0,0-1.283-.055h-2.977v11.571h1.4v-4.792H854.6l.233.316,3.205,4.476h1.667Zm-3.23-5.319H854.5c.441,0,.8.014,1.091.043a3.809,3.809,0,0,1,.739.139,2.033,2.033,0,0,1,1.021.653,1.866,1.866,0,0,1,.378,1.2,1.992,1.992,0,0,1-.4,1.288,2.229,2.229,0,0,1-1.125.718,4.254,4.254,0,0,1-.816.157q-.454.042-1.1.042h-1.383Z" transform="translate(100 -48)"/>
    <path id="パス_8600" data-name="パス 8600" d="M927.142,643v4.755H925.7V643l-4.3-7.07h1.573l3.429,5.744h.044l3.429-5.744h1.574Z" transform="translate(100 -48)"/>
  </g>
</svg>
