<svg xmlns="http://www.w3.org/2000/svg" xmlns:xlink="http://www.w3.org/1999/xlink" width="308.4" height="84.108" viewBox="0 0 308.4 84.108">
  <defs>
    <clipPath id="clip-path">
      <path id="長方形_973" data-name="長方形 973" d="M7.177,0H300.221A7.178,7.178,0,0,1,307.4,7.178V75.931a7.177,7.177,0,0,1-7.177,7.177H7.177A7.177,7.177,0,0,1,0,75.931V7.177A7.177,7.177,0,0,1,7.177,0Z" transform="translate(64.756 390.815)" fill="#fff"/>
    </clipPath>
  </defs>
  <g id="グループ_3923" data-name="グループ 3923" transform="translate(-164.255 -342.314)">
    <g id="グループ_3872" data-name="グループ 3872" transform="translate(100 -48)">
      <g id="グループ_3871" data-name="グループ 3871" clip-path="url(#clip-path)">
        <rect id="長方形_972" data-name="長方形 972" width="307.399" height="83.108" transform="translate(64.756 390.815)" fill="#fff"/>
      </g>
    </g>
    <rect id="長方形_974" data-name="長方形 974" width="307.4" height="83.108" rx="7.178" transform="translate(164.755 342.814)" fill="#fff" stroke="#b2b2b3" stroke-miterlimit="10" stroke-width="1"/>
    <path id="パス_8339" data-name="パス 8339" d="M139.26,427.877a5.6,5.6,0,1,1-5.6-5.6,5.6,5.6,0,0,1,5.6,5.6" transform="translate(100 -48)" fill="#ef87a5"/>
    <path id="パス_8340" data-name="パス 8340" d="M151.069,427.9c-.535-3.159-2.3-5.4-5.994-5.362-2.624.025-5.034,2.13-4.875,5.962a6.03,6.03,0,0,1-3.9,5.746,4.842,4.842,0,0,1-2,.429c-.093,0-.184.006-.278.006a7.41,7.41,0,0,1-5.505-2.3,10.509,10.509,0,0,0,3.5,5.826c2.354,2.2,4.47,2.287,6.3,3.072a9.666,9.666,0,0,1,2.047,1.379,23.792,23.792,0,0,1,4.764-3.741c4.568-2.954,6.618-7.028,5.941-11.022" transform="translate(100 -48)" fill="#0aa5e9"/>
    <path id="パス_8341" data-name="パス 8341" d="M299.258,429.993h-2.506a.963.963,0,0,1,0-1.909h1.466v-1.378a.9.9,0,0,1,1.786,0v1.378h.94a.805.805,0,0,1,.8.691.774.774,0,0,1,.6-.268h1.361v-1.783a.929.929,0,0,1,1.84,0v1.783h1.763a.965.965,0,0,1,0,1.911H305.55v6.687h2.47a.963.963,0,0,1,0,1.909h-7.05a.963.963,0,0,1,0-1.909h2.74v-6.687h-1.361a.784.784,0,0,1-.763-.551,10.579,10.579,0,0,1-1.183,2.161l-.14.2,2.107,1.791a.865.865,0,0,1,.065,1.237.852.852,0,0,1-1.222.122l-1.352-1.15v4.439a.9.9,0,0,1-1.784,0V434.96a6.809,6.809,0,0,1-.593.589c-.637.53-1.1.458-1.451.034a.966.966,0,0,1,.106-1.379,24.346,24.346,0,0,0,2.087-2.194,10.151,10.151,0,0,0,1.193-1.775c.075-.161.039-.242-.161-.242" transform="translate(100 -48)"/>
    <path id="パス_8342" data-name="パス 8342" d="M282.156,434.093c-.428-.034-.85.133-.878.821-.028.786-.128,1.568-.291,1.568-.318,0-.725-1.4-1.22-3.768-.2-.949-.35-1.943-.46-2.86h2.636a.963.963,0,0,0,0-1.91h-.123l.008-.007a.836.836,0,0,0-.127-1.193,4.933,4.933,0,0,0-.871-.691.97.97,0,0,0-1.234.1.731.731,0,0,0,.146,1.177l.746.617h-1.372c-.045-.526-.066-.957-.081-1.242a.825.825,0,0,0-.92-.8.834.834,0,0,0-.869.868c0,.335.021.737.058,1.173h-5.661a.964.964,0,0,0,0,1.91h5.877c.153,1.127.358,2.337.574,3.443a18.394,18.394,0,0,0,1.435,4.564c.636,1.168.975,1.38,1.611,1.38s1.069-.531,1.377-1.452a12.463,12.463,0,0,0,.423-2.688.826.826,0,0,0-.784-1.008m-5.625,1.513c-.419.164-.824.316-1.233.46v-3.2h1.361a.935.935,0,0,0,0-1.853h-4.8a.936.936,0,0,0,0,1.853h1.713v3.717c-.54.135-1.13.258-1.818.374-.649.109-.9.585-.8,1.291.117.8.582.9,1.464.753a19.517,19.517,0,0,0,4.7-1.514c.717-.378,1.012-.743.9-1.459-.085-.574-.6-.774-1.487-.424" transform="translate(100 -48)"/>
    <path id="パス_8343" data-name="パス 8343" d="M292.85,434.744a1,1,0,0,0-1.327-.081.776.776,0,0,0-.081,1.141c.158.183.329.4.512.632-.844.117-1.963.26-2.98.332-.441.032-.9.059-1.332.082l1.248-2.623h5.656a.916.916,0,0,0,0-1.815h-10.09a.916.916,0,0,0,0,1.815h2.424l-1.3,2.722c-.38.017-.684.034-.889.049-.5.039-.886.283-.885,1.039a.828.828,0,0,0,.952.907c.886-.017,2.8-.142,4.634-.355,1.526-.174,2.991-.391,3.734-.517.162.236.315.47.459.7a.96.96,0,0,0,1.462.381.927.927,0,0,0,.2-1.336,19.878,19.878,0,0,0-2.4-3.068m2.114-5.257a22.6,22.6,0,0,1-3.347-2.068c-1.033-.743-1.409-1.487-2.149-1.487s-1.129.744-2.164,1.487a22.921,22.921,0,0,1-3.344,2.068.969.969,0,0,0-.488,1.427c.287.6.705.834,1.7.247.211-.126.424-.261.641-.4a.8.8,0,0,0,.789.862h5.661a.814.814,0,0,0,.793-.892c.232.149.461.293.691.428.992.587,1.415.354,1.7-.247a.969.969,0,0,0-.483-1.427m-7.766.323c.852-.621,1.64-1.265,2.265-1.827a28.968,28.968,0,0,0,2.259,1.827Z" transform="translate(100 -48)"/>
    <path id="パス_8344" data-name="パス 8344" d="M270.127,437.03c-.318-.513-.893-1.35-1.432-2.229a25.143,25.143,0,0,1-1.224-2.365h1.717a.915.915,0,0,0,0-1.814h-2.28v-1.193h2.143a.916.916,0,0,0,0-1.815h-2.143v-1.24a.815.815,0,0,0-1.613,0v1.24h-.731a5.8,5.8,0,0,0,.132-.842.741.741,0,0,0-.7-.806c-.441-.061-.795.061-.9.581a11.3,11.3,0,0,1-.287,1.231,5.513,5.513,0,0,1-.272.644.728.728,0,0,0-.64-.348h-.654v-1.7a.812.812,0,0,0-1.608,0v1.7h-1.072a.916.916,0,0,0,0,1.814h1.007a16.609,16.609,0,0,1-.6,2.154,15.65,15.65,0,0,1-.9,2.034,1.4,1.4,0,0,0-.062,1.477c.36.576.925.232,1.3-.415a5.334,5.334,0,0,0,.33-.753v4.148a.812.812,0,0,0,1.608,0v-4.949c.019.046.038.089.055.124.263.611.808.929,1.26.571a.971.971,0,0,0,.17-1.353c-.4-.729-.946-1.886-1.485-3v-.034h.654a.788.788,0,0,0,.236-.038.874.874,0,0,0,.234.334c.334.3.873.424,1.4-.388a3.731,3.731,0,0,0,.2-.367H265.3v1.193h-2.2a.915.915,0,0,0,0,1.814h1.54c-.287.618-.784,1.644-1.224,2.365-.539.879-1.116,1.716-1.433,2.229a.9.9,0,0,0,.034,1.22.729.729,0,0,0,1.206-.07c.306-.4.914-1.42,1.468-2.371a12.218,12.218,0,0,0,.607-1.237v3.961a.815.815,0,0,0,1.613,0V434.79a10.379,10.379,0,0,0,.516,1.019c.551.951,1.158,1.974,1.466,2.371a.725.725,0,0,0,1.2.07.9.9,0,0,0,.035-1.22" transform="translate(100 -48)"/>
    <path id="パス_8345" data-name="パス 8345" d="M161.627,426.017c-3.2,0-5.8,2.367-5.8,6.533s2.6,6.534,5.8,6.534,5.8-2.363,5.8-6.534-2.6-6.533-5.8-6.533m0,11.076c-2.01,0-3.641-1.644-3.641-4.543s1.631-4.539,3.641-4.539,3.64,1.643,3.64,4.539-1.63,4.543-3.64,4.543" transform="translate(100 -48)"/>
    <path id="パス_8346" data-name="パス 8346" d="M168.659,429.617c0-2.592,2.181-3.6,4.749-3.6,3.211,0,4.38,1.674,4.679,2.225s.3,1.169-.3,1.467c-.641.321-1.193.251-1.512-.321-.38-.676-1.056-1.492-3.143-1.492-1.01,0-2.318.505-2.318,1.584s.857,1.4,1.858,1.584a22.883,22.883,0,0,1,4.015.915,3.168,3.168,0,0,1,1.926,3.143c0,2.019-1.375,3.968-4.977,3.968-4.634,0-5.183-2.656-5.482-3.6-.161-.5.091-1.053.94-1.171a1.019,1.019,0,0,1,1.285.691,2.837,2.837,0,0,0,3.1,2.156c2.57,0,2.982-1.217,2.982-1.973a1.768,1.768,0,0,0-1.6-1.742,28.557,28.557,0,0,1-4.245-.9,3.031,3.031,0,0,1-1.95-2.937" transform="translate(100 -48)"/>
    <path id="パス_8347" data-name="パス 8347" d="M179.83,427.535v10.708c0,.585.477.851,1.065.851s1.067-.266,1.067-.851v-4.877H187.4c2.591,0,3.531-1.653,3.531-3.672s-1.035-3.673-3.531-3.673h-5.971a1.4,1.4,0,0,0-1.6,1.514m2.773.394h4.437c1.2,0,1.7.606,1.7,1.765,0,1.121-.451,1.768-1.7,1.768h-5.078v-2.951c0-.47.243-.582.641-.582" transform="translate(100 -48)"/>
    <path id="パス_8348" data-name="パス 8348" d="M195.336,425.954c-.777.006-1.072.559-1.113,1.191a33.643,33.643,0,0,1-.8,5.558,22.8,22.8,0,0,1-1.705,4.784c-.315.615-.28,1.16.28,1.464a1.177,1.177,0,0,0,1.686-.465,20.763,20.763,0,0,0,1.861-5.318,37.763,37.763,0,0,0,.844-6.149.975.975,0,0,0-1.056-1.065" transform="translate(100 -48)"/>
    <path id="パス_8349" data-name="パス 8349" d="M203.343,432.208a45.893,45.893,0,0,0-1.876-5.347c-.295-.609-.641-.988-1.4-.732a.891.891,0,0,0-.611,1.332c.257.663,1.239,3.468,1.82,5.474.7,2.413,1.017,4.07,1.258,5.281.149.758.656,1,1.446.765a1.057,1.057,0,0,0,.667-1.367c-.144-.755-.562-2.794-1.307-5.406" transform="translate(100 -48)"/>
    <path id="パス_8350" data-name="パス 8350" d="M217.493,431.419H206.512a1,1,0,0,0,0,1.981h10.981a1,1,0,0,0,0-1.981" transform="translate(100 -48)"/>
    <path id="パス_8351" data-name="パス 8351" d="M230.1,432.793a24.182,24.182,0,0,0-3.324-1.351c-1.578-.576-3.194-1.087-3.991-1.33v-3.7a1,1,0,0,0-1.077-.895.987.987,0,0,0-1.063.895v11.714a.987.987,0,0,0,1.063.894,1,1,0,0,0,1.077-.894v-5.913c.938.271,2.021.66,3.035,1.038,1.219.453,2.733,1.133,3.322,1.43a1.058,1.058,0,0,0,.958-1.884" transform="translate(100 -48)"/>
    <path id="パス_8352" data-name="パス 8352" d="M230.98,428.582a.889.889,0,0,1-.987-1.006c0-1.022.759-1.022.987-1.022h9.363c.956,0,1.608.319,1.608,1.516a12.8,12.8,0,0,1-3.277,7.843c-1.518,1.678-3.733,3.1-4.507,3.1a1.112,1.112,0,0,1-1.032-1.15c0-.543.318-.7,1.154-1.117a11.029,11.029,0,0,0,4.339-4.3,9.2,9.2,0,0,0,1.123-3.465c0-.4-.243-.4-.455-.4Z" transform="translate(100 -48)"/>
    <path id="パス_8353" data-name="パス 8353" d="M245.884,426.642v3.326a13.2,13.2,0,0,1-.62,4.662,4.946,4.946,0,0,1-1.888,2.009,1.059,1.059,0,0,0-.421.867.926.926,0,0,0,.178.65,1.231,1.231,0,0,0,.962.43,1.667,1.667,0,0,0,.8-.386,6.461,6.461,0,0,0,2.207-2.676,15.058,15.058,0,0,0,.777-5.444v-3.422a.991.991,0,0,0-1-1.067.977.977,0,0,0-.99,1.051" transform="translate(100 -48)"/>
    <path id="パス_8354" data-name="パス 8354" d="M249.464,426.531v0l-.056,10.518c0,1.738,1.1,1.925,1.579,1.925l.756-.107a7.959,7.959,0,0,0,4.934-4.775c0-.007.076-.418.076-.418a1.021,1.021,0,0,0-.534-.93c0,.009-.481-.138-.481-.138a.879.879,0,0,0-.821.607,6.533,6.533,0,0,1-3.36,3.431s-.089.027-.152.047l0-.02.055-10.136a.987.987,0,0,0-1-1.037.959.959,0,0,0-.99,1.035" transform="translate(100 -48)"/>
  </g>
</svg>
