<svg xmlns="http://www.w3.org/2000/svg" xmlns:xlink="http://www.w3.org/1999/xlink" width="308.4" height="84.108" viewBox="0 0 308.4 84.108">
  <defs>
    <clipPath id="clip-path">
      <path id="長方形_945" data-name="長方形 945" d="M7.177,0H300.222A7.177,7.177,0,0,1,307.4,7.177V75.929a7.179,7.179,0,0,1-7.179,7.179H7.177A7.177,7.177,0,0,1,0,75.931V7.177A7.177,7.177,0,0,1,7.177,0Z" transform="translate(64.796 186.815)" fill="#fff"/>
    </clipPath>
    <clipPath id="clip-path-2">
      <rect id="長方形_983" data-name="長方形 983" width="8.583" height="8.993" transform="translate(289.156 225.927)" fill="none"/>
    </clipPath>
  </defs>
  <g id="グループ_3917" data-name="グループ 3917" transform="translate(-164.295 -138.314)">
    <g id="グループ_3844" data-name="グループ 3844" transform="translate(100 -48)">
      <g id="グループ_3843" data-name="グループ 3843" clip-path="url(#clip-path)">
        <rect id="長方形_944" data-name="長方形 944" width="307.399" height="83.108" transform="translate(64.796 186.815)" fill="#fff"/>
      </g>
    </g>
    <rect id="長方形_946" data-name="長方形 946" width="307.4" height="83.108" rx="7.178" transform="translate(164.795 138.814)" fill="#fff" stroke="#b2b2b3" stroke-miterlimit="10" stroke-width="1"/>
    <path id="パス_8472" data-name="パス 8472" d="M127.122,220.079c-15.359.818-22.759,7.845-24.769,11.758-.759,1.475-1.487,3.6.773,4.645,2.08.96,4.8.7,8.958-1.278h0c.067-.032.1-.023.133.024a3.816,3.816,0,0,0,3.432,1.658,5.654,5.654,0,0,0,4.167-1.674.059.059,0,0,1,.1.016v0c1.582,2.416,5.5,1.883,7.08.446,2.557-2.319,3.331-5.464,4.887-7.7,2.627-3.774,7.383-3.339,7.949-.755.576,2.635-2.231,3.679-3,3.841-1.769.37-4.007-.121-4.926-1.86,2.111,5.124,9.556,2.418,9.335-1.557-.065-1.18-.947-3.485-4.361-3.485a6.767,6.767,0,0,0-4.7,1.593v0c-.052.052-.083.031-.118-.017v0a3.915,3.915,0,0,0-3.379-1.59c-2.715,0-4.805,1.413-6.883,5.064-2.016,3.545-3.552,6.857-7.031,6.857a3.641,3.641,0,0,1-2.4-.922c-.031-.036-.024-.068.022-.092h0a17.019,17.019,0,0,0,2.74-1.825,15,15,0,0,0,2.63-2.675c2.8-3.677,1.413-5.375.09-5.934a5.66,5.66,0,0,0-4.344.273c2.721-.55,3.5.158,3.5.158,2.893,2.208-3.409,10.523-10.962,11.249-2.741.264-3.319-1.443-2.385-3.474,3.5-7.627,14.268-11.483,25.677-11.789,11.44-.3,19.383,5.909,9.06,14.75,9.913-6.688,7.445-16.7-11.267-15.7m-4.571,10.876c1.081-2.314,3.055-6.022,6.641-6.022a3.941,3.941,0,0,1,2.726.91.077.077,0,0,1,0,.118h0a14.678,14.678,0,0,0-2.421,3.244c-2.015,3.458-3.515,6.855-6.934,6.855a3.522,3.522,0,0,1-2.532-.945c-.037-.04-.047-.076.034-.161h0a15.161,15.161,0,0,0,2.485-4" transform="translate(100 -48)" fill="#344b98"/>
    <path id="パス_8473" data-name="パス 8473" d="M261.823,227.33h-10.98a1,1,0,0,0,0,1.981h10.98a1,1,0,0,0,0-1.981" transform="translate(100 -48)"/>
    <path id="パス_8474" data-name="パス 8474" d="M300.016,224.314c.943.416,2.24,1.133,3.182,1.675.574.329,1.117.317,1.456-.3a.874.874,0,0,0-.182-1.257,17.368,17.368,0,0,0-3.529-1.886c-.7-.231-1.108-.074-1.342.507-.245.628-.06,1.046.415,1.258m9.814-.372a1.039,1.039,0,0,0-1.263.744,11.873,11.873,0,0,1-2.98,5.394,10.252,10.252,0,0,1-5.279,2.622c-.908.225-1.319.568-1.207,1.332.1.705.7.968,1.637.805a11.826,11.826,0,0,0,6.6-3.582,14.593,14.593,0,0,0,3.2-5.944c.163-.8-.1-1.237-.709-1.371" transform="translate(100 -48)"/>
    <path id="パス_8475" data-name="パス 8475" d="M323.616,223.279l-.972-2.072a.581.581,0,0,0-1.051.5l.973,2.072a.581.581,0,1,0,1.05-.5m-2.013-.434-.5-1.054a.579.579,0,1,0-1.047.5l.158.339h-4.739a1.546,1.546,0,0,0-1.566.9,15.585,15.585,0,0,1-2.656,3.688c-.379.389-.662.928-.025,1.433a1.024,1.024,0,0,0,1.461-.106,15.463,15.463,0,0,0,2.732-3.608.613.613,0,0,1,.605-.265h3.48c.373,0,.56.052.507.5a10.006,10.006,0,0,1-1.752,4.617,10.23,10.23,0,0,1-5.333,3.371c-.743.21-1.065.663-.9,1.327a.983.983,0,0,0,1.223.822,11.4,11.4,0,0,0,5.917-3.449,12.574,12.574,0,0,0,2.867-6.878,3.846,3.846,0,0,0-.429-2.137" transform="translate(100 -48)"/>
    <path id="パス_8476" data-name="パス 8476" d="M265.289,222.553v3.326a13.2,13.2,0,0,1-.62,4.662,4.953,4.953,0,0,1-1.888,2.009,1.056,1.056,0,0,0-.421.866.926.926,0,0,0,.178.65,1.231,1.231,0,0,0,.962.43,1.664,1.664,0,0,0,.8-.385,6.465,6.465,0,0,0,2.206-2.676,15.033,15.033,0,0,0,.778-5.444v-3.422a.991.991,0,0,0-1-1.067.977.977,0,0,0-.99,1.051" transform="translate(100 -48)"/>
    <path id="パス_8477" data-name="パス 8477" d="M268.868,222.441v0l-.056,10.518c0,1.737,1.1,1.923,1.579,1.923l.756-.107A7.953,7.953,0,0,0,276.081,230c0-.005.076-.418.076-.418a1.018,1.018,0,0,0-.534-.928c0,.009-.481-.139-.481-.139a.878.878,0,0,0-.821.608,6.535,6.535,0,0,1-3.361,3.431s-.088.027-.151.046l0-.02.055-10.135a.987.987,0,0,0-1-1.037.959.959,0,0,0-.99,1.035" transform="translate(100 -48)"/>
    <path id="パス_8478" data-name="パス 8478" d="M333.633,231.2c-.622-.709-1.349-1.5-2.07-2.2a13.729,13.729,0,0,0,1.822-5.389,1.282,1.282,0,0,0-1.344-1.349h-6.387a1.049,1.049,0,0,0,0,2.078h5.208c.236,0,.319.038.3.279a9.9,9.9,0,0,1-2.364,4.588,14.475,14.475,0,0,1-4.573,3.659.958.958,0,0,0-.335,1.418c.449.793,1.434.434,1.967.128a15.485,15.485,0,0,0,2.614-1.819,11.722,11.722,0,0,0,1.818-1.93,21.866,21.866,0,0,1,1.7,1.88c.578.717,1.02,1.352,1.452,1.912a.963.963,0,0,0,1.472.128,1.015,1.015,0,0,0,.282-1.42,23.378,23.378,0,0,0-1.566-1.966" transform="translate(100 -48)"/>
    <g id="グループ_3884" data-name="グループ 3884" transform="translate(100 -48)">
      <g id="グループ_3883" data-name="グループ 3883" clip-path="url(#clip-path-2)">
        <path id="パス_8479" data-name="パス 8479" d="M295.272,233.976v-4.6a.068.068,0,0,1,.026-.052,20,20,0,0,0,2.132-1.812.829.829,0,0,0-.04-1.323h0a1.1,1.1,0,0,0-.775-.265,1.01,1.01,0,0,0-.7.3,20.345,20.345,0,0,1-6.14,4.011.866.866,0,0,0-.617.825.94.94,0,0,0,.28.663,1,1,0,0,0,.7.319l.531-.124a21.959,21.959,0,0,0,2.4-1.178.064.064,0,0,1,.064,0,.063.063,0,0,1,.034.056v3.18a.835.835,0,0,0,.313.692,1.133,1.133,0,0,0,.692.254,1.113,1.113,0,0,0,.764-.244.831.831,0,0,0,.335-.7"/>
      </g>
    </g>
    <path id="パス_8480" data-name="パス 8480" d="M279.489,223.857h6.175a.926.926,0,0,0,.747-.31,1.044,1.044,0,0,0,.269-.722.981.981,0,0,0-.236-.7,1.023,1.023,0,0,0-.78-.312h-6.175a.973.973,0,0,0-.748.3.985.985,0,0,0-.268.7.993.993,0,0,0,1.016,1.042m9.618,2.541a.983.983,0,0,0-.777-.328H277.311a.972.972,0,0,0-.761.294,1.047,1.047,0,0,0-.27.735.992.992,0,0,0,.24.687.98.98,0,0,0,.791.342h5l.083.035.03.085a5.134,5.134,0,0,1-1.062,3.114,5.55,5.55,0,0,1-2.351,1.423.983.983,0,0,0-.724,1.081,1.073,1.073,0,0,0,.286.707.888.888,0,0,0,.627.342.879.879,0,0,0,.426-.077,7.29,7.29,0,0,0,3.35-2.1,7.78,7.78,0,0,0,1.51-4.505.113.113,0,0,1,.113-.106h3.731a.936.936,0,0,0,.746-.3,1.056,1.056,0,0,0,.269-.737.966.966,0,0,0-.238-.7" transform="translate(100 -48)"/>
    <path id="パス_8481" data-name="パス 8481" d="M291.468,222.936l-.96-2.046a.574.574,0,0,0-1.038.489l.96,2.045a.573.573,0,1,0,1.038-.488" transform="translate(100 -48)"/>
    <path id="パス_8482" data-name="パス 8482" d="M289.89,223.485l-.96-2.047a.574.574,0,0,0-1.038.49l.96,2.046a.574.574,0,1,0,1.038-.489" transform="translate(100 -48)"/>
    <path id="パス_8483" data-name="パス 8483" d="M240.077,227.171c-.32,2.7-1.407,3.466-2.3,4.593a.976.976,0,0,0-.2.671.841.841,0,0,0,.366.685.859.859,0,0,0,.469.185,1.09,1.09,0,0,0,.961-.457,9.547,9.547,0,0,0,2.531-5.275c0,.014.018-.228.018-.228a.9.9,0,0,0-.733-.961.922.922,0,0,0-1.111.787" transform="translate(100 -48)"/>
    <path id="パス_8484" data-name="パス 8484" d="M247.315,227.171c.32,2.7,1.407,3.466,2.3,4.593a.981.981,0,0,1,.2.671.841.841,0,0,1-.366.685.859.859,0,0,1-.469.185,1.09,1.09,0,0,1-.961-.457,9.54,9.54,0,0,1-2.531-5.275c0,.014-.018-.228-.018-.228a.9.9,0,0,1,.732-.961.923.923,0,0,1,1.112.787" transform="translate(100 -48)"/>
    <path id="パス_8485" data-name="パス 8485" d="M242.631,222.294v1.165h-3.852a.893.893,0,0,0-.823.982.874.874,0,0,0,.823.968h3.852v8.575a.9.9,0,0,0,.942.938.939.939,0,0,0,.994-.938v-8.575h4.083a.873.873,0,0,0,.821-.968.893.893,0,0,0-.821-.982h-4.083v-1.165a.939.939,0,0,0-.994-.937.9.9,0,0,0-.942.937" transform="translate(100 -48)"/>
    <path id="パス_8486" data-name="パス 8486" d="M190.766,225.9H188.26a.963.963,0,0,1,0-1.91h1.466v-1.377a.9.9,0,0,1,1.786,0v1.377h.94a.805.805,0,0,1,.8.691.774.774,0,0,1,.6-.268h1.362v-1.783a.929.929,0,0,1,1.839,0v1.783h1.764a.965.965,0,0,1,0,1.911h-1.764v6.686h2.471a.963.963,0,0,1,0,1.91h-7.05a.963.963,0,0,1,0-1.91h2.74v-6.686h-1.362a.784.784,0,0,1-.762-.551,10.576,10.576,0,0,1-1.183,2.161c-.045.064-.093.131-.14.2l2.106,1.791a.864.864,0,0,1,.066,1.236.851.851,0,0,1-1.222.123l-1.352-1.15v4.439a.9.9,0,0,1-1.784,0v-3.707a6.635,6.635,0,0,1-.593.588c-.637.531-1.1.459-1.451.035a.966.966,0,0,1,.106-1.379,24.334,24.334,0,0,0,2.087-2.194,10.15,10.15,0,0,0,1.193-1.775c.075-.161.039-.241-.161-.241" transform="translate(100 -48)"/>
    <path id="パス_8487" data-name="パス 8487" d="M173.665,230a.746.746,0,0,0-.878.821c-.028.786-.13,1.568-.291,1.568-.318,0-.725-1.4-1.22-3.768-.2-.948-.35-1.943-.46-2.86h2.636a.963.963,0,0,0,0-1.91h-.123l.008-.007a.837.837,0,0,0-.128-1.194,4.912,4.912,0,0,0-.87-.689.968.968,0,0,0-1.234.1c-.387.353-.279.84.146,1.176l.746.617h-1.372c-.046-.524-.067-.958-.081-1.241a.825.825,0,0,0-.92-.8.834.834,0,0,0-.869.868c0,.336.021.737.058,1.173h-5.661a.964.964,0,0,0,0,1.91h5.877c.153,1.127.358,2.337.574,3.443a18.392,18.392,0,0,0,1.435,4.564c.636,1.168.975,1.38,1.611,1.38s1.069-.531,1.377-1.452a12.525,12.525,0,0,0,.423-2.688.826.826,0,0,0-.784-1.008m-5.625,1.513c-.419.164-.824.317-1.233.46v-3.2h1.361a.935.935,0,0,0,0-1.853h-4.8a.936.936,0,0,0,0,1.853h1.713v3.716c-.54.135-1.13.26-1.816.374-.651.109-.9.585-.8,1.291.117.8.582.9,1.464.753a19.517,19.517,0,0,0,4.7-1.514c.717-.378,1.01-.743.9-1.459-.086-.574-.6-.774-1.487-.424" transform="translate(100 -48)"/>
    <path id="パス_8488" data-name="パス 8488" d="M184.359,230.651a1,1,0,0,0-1.327-.08.776.776,0,0,0-.081,1.141c.156.183.329.4.512.632-.844.117-1.963.259-2.981.332-.44.03-.895.058-1.331.081l1.248-2.623h5.656a.915.915,0,0,0,0-1.814h-10.09a.915.915,0,0,0,0,1.814h2.424l-1.3,2.722c-.38.018-.684.035-.889.05-.5.038-.886.282-.885,1.039a.828.828,0,0,0,.952.907c.886-.018,2.795-.142,4.634-.355,1.526-.175,2.991-.393,3.733-.517.162.236.316.469.46.694a.96.96,0,0,0,1.462.381.925.925,0,0,0,.2-1.335,19.886,19.886,0,0,0-2.4-3.069m2.112-5.256a22.741,22.741,0,0,1-3.346-2.068c-1.032-.743-1.408-1.487-2.148-1.487s-1.129.744-2.164,1.487a22.92,22.92,0,0,1-3.344,2.068.969.969,0,0,0-.488,1.427c.287.6.705.834,1.7.246.211-.125.425-.26.641-.4a.805.805,0,0,0,.789.862h5.661a.815.815,0,0,0,.793-.892c.231.148.46.293.691.427.992.588,1.414.354,1.7-.246a.969.969,0,0,0-.485-1.427m-7.764.323c.851-.621,1.64-1.265,2.265-1.827a28.976,28.976,0,0,0,2.259,1.827Z" transform="translate(100 -48)"/>
    <path id="パス_8489" data-name="パス 8489" d="M161.637,232.938c-.318-.513-.893-1.35-1.432-2.229a25.265,25.265,0,0,1-1.224-2.365H160.7a.915.915,0,0,0,0-1.814h-2.28v-1.193h2.143a.916.916,0,0,0,0-1.814h-2.143v-1.24a.815.815,0,0,0-1.613,0v1.24h-.73a5.965,5.965,0,0,0,.131-.842.741.741,0,0,0-.7-.807c-.442-.061-.8.062-.9.581a11.615,11.615,0,0,1-.288,1.231,5.683,5.683,0,0,1-.271.644.731.731,0,0,0-.641-.348h-.654v-1.7a.812.812,0,0,0-1.608,0v1.7h-1.071a.915.915,0,0,0,0,1.814h1.006a16.743,16.743,0,0,1-.6,2.154,15.644,15.644,0,0,1-.9,2.034,1.4,1.4,0,0,0-.061,1.477c.36.576.925.232,1.3-.416a5.275,5.275,0,0,0,.329-.752v4.148a.812.812,0,0,0,1.608,0v-4.949c.019.046.038.089.055.124.264.611.808.929,1.26.571a.969.969,0,0,0,.17-1.352c-.4-.73-.945-1.887-1.485-3.005V225.8h.654a.8.8,0,0,0,.237-.038.853.853,0,0,0,.233.334c.335.3.873.424,1.4-.387a3.557,3.557,0,0,0,.2-.368H156.8v1.193h-2.2a.915.915,0,0,0,0,1.814h1.539c-.287.618-.784,1.643-1.224,2.365-.538.879-1.116,1.716-1.433,2.229a.9.9,0,0,0,.034,1.22.729.729,0,0,0,1.206-.07c.306-.4.914-1.42,1.468-2.371a12.217,12.217,0,0,0,.607-1.237v3.961a.815.815,0,0,0,1.613,0V230.7a10.372,10.372,0,0,0,.516,1.019c.551.951,1.158,1.974,1.466,2.371a.725.725,0,0,0,1.2.07.9.9,0,0,0,.035-1.22" transform="translate(100 -48)"/>
    <path id="パス_8490" data-name="パス 8490" d="M206.838,221.928c-3.2,0-5.8,2.366-5.8,6.532s2.6,6.534,5.8,6.534,5.8-2.363,5.8-6.534-2.6-6.532-5.8-6.532m0,11.075c-2.01,0-3.641-1.644-3.641-4.543s1.631-4.537,3.641-4.537,3.64,1.641,3.64,4.537S208.847,233,206.838,233" transform="translate(100 -48)"/>
    <path id="パス_8491" data-name="パス 8491" d="M213.869,225.527c0-2.591,2.181-3.6,4.748-3.6,3.212,0,4.381,1.674,4.68,2.225s.3,1.169-.3,1.467c-.641.321-1.193.251-1.514-.321-.38-.676-1.054-1.492-3.142-1.492-1.009,0-2.317.5-2.317,1.584s.857,1.4,1.858,1.584a22.926,22.926,0,0,1,4.015.915,3.168,3.168,0,0,1,1.926,3.143c0,2.018-1.376,3.968-4.977,3.968-4.634,0-5.183-2.656-5.482-3.6-.161-.5.091-1.052.94-1.171a1.019,1.019,0,0,1,1.285.691,2.837,2.837,0,0,0,3.1,2.156c2.569,0,2.982-1.217,2.982-1.973a1.769,1.769,0,0,0-1.6-1.742,28.557,28.557,0,0,1-4.245-.9,3.031,3.031,0,0,1-1.95-2.937" transform="translate(100 -48)"/>
    <path id="パス_8492" data-name="パス 8492" d="M225.041,223.446v10.706c0,.587.477.853,1.064.853s1.067-.266,1.067-.853v-4.876h5.437c2.591,0,3.53-1.653,3.53-3.671s-1.034-3.673-3.53-3.673h-5.971a1.4,1.4,0,0,0-1.6,1.514m2.772.394h4.437c1.2,0,1.7.606,1.7,1.765,0,1.12-.45,1.768-1.7,1.768h-5.078v-2.952c0-.469.243-.581.641-.581" transform="translate(100 -48)"/>
  </g>
</svg>
