<svg xmlns="http://www.w3.org/2000/svg" xmlns:xlink="http://www.w3.org/1999/xlink" width="308.4" height="84.108" viewBox="0 0 308.4 84.108">
  <defs>
    <clipPath id="clip-path">
      <path id="長方形_941" data-name="長方形 941" d="M7.179,0H300.222A7.178,7.178,0,0,1,307.4,7.178V75.931a7.177,7.177,0,0,1-7.177,7.177H7.177A7.177,7.177,0,0,1,0,75.931V7.179A7.179,7.179,0,0,1,7.179,0Z" transform="translate(388.68 186.815)" fill="#fff"/>
    </clipPath>
  </defs>
  <g id="グループ_3918" data-name="グループ 3918" transform="translate(-488.181 -138.314)">
    <g id="グループ_3840" data-name="グループ 3840" transform="translate(100 -48)">
      <g id="グループ_3839" data-name="グループ 3839" clip-path="url(#clip-path)">
        <rect id="長方形_940" data-name="長方形 940" width="307.4" height="83.108" transform="translate(388.68 186.815)" fill="#fff"/>
      </g>
    </g>
    <rect id="長方形_942" data-name="長方形 942" width="307.4" height="83.108" rx="7.178" transform="translate(488.681 138.814)" fill="#fff" stroke="#b2b2b3" stroke-miterlimit="10" stroke-width="1"/>
    <path id="パス_8455" data-name="パス 8455" d="M453.549,215.185h-4.576a1.381,1.381,0,0,0-1.377,1.376v12.382a1.381,1.381,0,0,0,1.377,1.377h4.576a1.382,1.382,0,0,0,1.378-1.377V216.561a1.382,1.382,0,0,0-1.378-1.376m-1.7,12.22a.59.59,0,0,1-1.175,0v-9.3a.59.59,0,0,1,1.175,0Z" transform="translate(100 -48)" fill="#0568af"/>
    <path id="パス_8456" data-name="パス 8456" d="M470.092,215.185h-5.953V230.32h3v-5.56h2.949a1.38,1.38,0,0,0,1.377-1.375v-6.824a1.381,1.381,0,0,0-1.377-1.376M468.4,221.6a.459.459,0,0,1-.519.52h-.739v-4.5h.739a.459.459,0,0,1,.519.52Z" transform="translate(100 -48)" fill="#0568af"/>
    <path id="パス_8457" data-name="パス 8457" d="M463.15,220.578v-4.016a1.38,1.38,0,0,0-1.376-1.375H457.2a1.378,1.378,0,0,0-1.376,1.375v3.87a1.843,1.843,0,0,0,.81,1.748c.8.535,2.283,1.409,2.817,1.749s.657.51.657,1v2.448a.629.629,0,1,1-1.258,0V224.39H455.82v4.554a1.38,1.38,0,0,0,1.376,1.377h4.578a1.382,1.382,0,0,0,1.376-1.377v-4.87a1.994,1.994,0,0,0-1.178-1.82c-.534-.317-1.895-1.068-2.307-1.336a1.32,1.32,0,0,1-.768-1.287v-1.48a.587.587,0,0,1,1.175,0v2.427Z" transform="translate(100 -48)" fill="#0568af"/>
    <path id="パス_8458" data-name="パス 8458" d="M446.715,228.943v-1.587h-9.261v2.964h9.733a2.248,2.248,0,0,1-.472-1.377m0-4.082h-9.26v2.047h9.26Zm0-1.748h-9.26v1.355h9.26Zm0-.825h-9.26v.416h9.26Zm21.309,8.032H479.93v-2.964H468.024Zm4.326-6.936a2.25,2.25,0,0,1-.277,1.084h7.856v-1.355H472.35Zm0-.681h7.579v-.416H472.35Zm-2.258,2.94h-2.068v1.265h11.9v-2.047H471.8a2.247,2.247,0,0,1-1.7.782m-32.638,9.727h42.475v-4.583H437.454Z" transform="translate(100 -48)" fill="#0568af"/>
    <path id="パス_8459" data-name="パス 8459" d="M494.7,230.024a17.472,17.472,0,0,1-1.6-3.422h3.889a1.043,1.043,0,0,0,0-2.07h-4.183v-2.119c0-.606-.491-.915-1.093-.915s-1.1.309-1.1.915v2.119h-4.641a1.043,1.043,0,0,0,0,2.07h4.367a17.684,17.684,0,0,1-1.605,3.422,22.473,22.473,0,0,1-2.733,3.449,1.053,1.053,0,0,0-.106,1.593c.466.524,1.075.465,1.619-.079a21.507,21.507,0,0,0,3.1-3.963,14.068,14.068,0,0,0,1.106-2.317,14.329,14.329,0,0,0,1.108,2.317,21.613,21.613,0,0,0,3.1,3.963c.545.544,1.154.6,1.618.079.427-.477.452-.981-.1-1.593a22.575,22.575,0,0,1-2.735-3.449" transform="translate(100 -48)"/>
    <path id="パス_8460" data-name="パス 8460" d="M534.433,227.579h-10.98a1,1,0,0,0,0,1.981h10.98a1,1,0,0,0,0-1.981" transform="translate(100 -48)"/>
    <path id="パス_8461" data-name="パス 8461" d="M537.005,222.211a.987.987,0,0,0-1.092.874v6.794a1.116,1.116,0,0,0,2.181,0v-6.794a.985.985,0,0,0-1.089-.874m8.337-.213a1.007,1.007,0,0,0-1.1.982v5.664c0,2.535-1.881,3.994-5.119,4.6-.633.117-1.325.386-1.167,1.273s.842.953,1.7.769c3.981-.849,6.79-2.866,6.79-6.647V222.98a1,1,0,0,0-1.1-.982" transform="translate(100 -48)"/>
    <path id="パス_8462" data-name="パス 8462" d="M512.7,224.4a31.7,31.7,0,0,1,3.043,1.079c.613.249,1.15.16,1.4-.495a.878.878,0,0,0-.356-1.22,14.271,14.271,0,0,0-3.414-1.24c-.723-.129-1.107.081-1.256.692-.157.654.084,1.041.584,1.184m2.28,5.016c.618.233,1.153.134,1.386-.527a.875.875,0,0,0-.382-1.212,14.311,14.311,0,0,0-3.442-1.159c-.728-.112-1.1.107-1.24.719-.144.659.108,1.041.611,1.174a30.946,30.946,0,0,1,3.067,1m7.018-4.945a.992.992,0,0,0-1.265.743,9.615,9.615,0,0,1-2.371,4.935,9.107,9.107,0,0,1-5.741,2.521c-.78.088-1.207.452-1.14,1.221.076.89.715,1.061,1.644.954a10.813,10.813,0,0,0,6.9-3.422,12.282,12.282,0,0,0,2.708-5.678.94.94,0,0,0-.733-1.274" transform="translate(100 -48)"/>
    <path id="パス_8463" data-name="パス 8463" d="M548.022,224.563c.943.416,2.24,1.133,3.182,1.675.574.329,1.117.316,1.456-.3a.873.873,0,0,0-.182-1.257,17.39,17.39,0,0,0-3.529-1.887c-.7-.23-1.108-.073-1.342.508-.245.627-.06,1.046.415,1.258m9.814-.372a1.039,1.039,0,0,0-1.263.744,11.873,11.873,0,0,1-2.98,5.394,10.252,10.252,0,0,1-5.279,2.622c-.908.225-1.319.568-1.207,1.331.1.706.7.969,1.637.806a11.823,11.823,0,0,0,6.6-3.582,14.592,14.592,0,0,0,3.2-5.944c.163-.8-.1-1.237-.709-1.371" transform="translate(100 -48)"/>
    <path id="パス_8464" data-name="パス 8464" d="M570.983,223.528l-.971-2.072a.582.582,0,0,0-1.052.5l.973,2.072a.581.581,0,1,0,1.05-.5m-2.013-.434-.5-1.054a.579.579,0,1,0-1.047.5l.158.339h-4.739a1.546,1.546,0,0,0-1.566.9,15.555,15.555,0,0,1-2.656,3.688c-.379.389-.662.928-.025,1.433a1.024,1.024,0,0,0,1.461-.106,15.461,15.461,0,0,0,2.732-3.608.612.612,0,0,1,.6-.265h3.48c.373,0,.56.052.507.5a10.005,10.005,0,0,1-1.752,4.617,10.237,10.237,0,0,1-5.333,3.371c-.743.21-1.065.663-.9,1.327a.983.983,0,0,0,1.223.822,11.4,11.4,0,0,0,5.917-3.449,12.581,12.581,0,0,0,2.867-6.878,3.844,3.844,0,0,0-.429-2.137" transform="translate(100 -48)"/>
    <path id="パス_8465" data-name="パス 8465" d="M505.483,223.912h4.28a.921.921,0,0,0,0-1.838h-5.439a.911.911,0,0,0-.812.5.872.872,0,0,0-.8-.515l-3.546,0a.759.759,0,0,0-.76.761v11.83a.874.874,0,0,0,1.714,0v-3.61a2.111,2.111,0,0,0,.388.164,2.522,2.522,0,0,0,2.158-.173,8.771,8.771,0,0,1-1.751,2.693c-.454.506-.46.836-.08,1.274.346.4.857.513,1.46-.106a10.534,10.534,0,0,0,2.52-5.2c.057-.243.105-.486.149-.726a15.99,15.99,0,0,0,1.23,2.584c.088.137.176.268.264.4a8.648,8.648,0,0,1-2.624,1.615c-.371.159-.611.637-.318,1.274s.717.61,1.272.371a8.809,8.809,0,0,0,2.749-1.8,13.481,13.481,0,0,0,1.392,1.481c.581.514,1.292.6,1.617,0a.991.991,0,0,0-.105-1.353,19.2,19.2,0,0,1-1.711-1.609c.087-.14.17-.284.253-.434a10.272,10.272,0,0,0,1.3-5.523.89.89,0,0,0-.91-.893h-4.1c0-.267-.007-.751-.019-1,0-.094.053-.17.226-.17m-5.136-.164h1.1s.256-.046.176.169c-.2.521-.849,2.16-.956,2.476a.894.894,0,0,0,.143.939,6.757,6.757,0,0,1,.779,1.22.947.947,0,0,1,.105.867c-.105.212-.459.229-.848.088a1.727,1.727,0,0,0-.725-.148v-5.385a.216.216,0,0,1,.224-.226m3.119,3.9c-.027.329-.07.637-.117.937a3.481,3.481,0,0,0-.362-.813c-.229-.354-.654-1.133-.654-1.133s.574-1.638.867-2.406c.094-.244.175-.47.239-.667a27.177,27.177,0,0,1,.027,4.082m2.483-.731h2.359c.186,0,.227.081.227.266a5.919,5.919,0,0,1-.919,3.316c-.1-.149-.2-.3-.3-.463a13.512,13.512,0,0,1-1.363-3.119" transform="translate(100 -48)"/>
    <path id="パス_8466" data-name="パス 8466" d="M581.1,224.253v7.766c0,.6-.317.725-.779.637-.4-.078-1.167-.318-1.361.511-.229.982.531,1.364,1.877,1.364,1.111,0,1.995-.654,1.995-2.281v-9.1a.816.816,0,0,0-.865-.807h-4.175a.817.817,0,0,0-.866.807v11.619a.869.869,0,0,0,1.733,0V224.253a.248.248,0,0,1,.266-.238h1.943a.212.212,0,0,1,.232.238m-7.657-.055c1.115-.31,2.417-.7,2.844-.871a.952.952,0,0,0,.63-1.184.922.922,0,0,0-1.211-.6c-.76.265-2.263.671-3.5.991-.576.147-.765.344-.765.822v10.548a.77.77,0,0,0,.809.808h3.708a.906.906,0,0,0,0-1.807h-2.471c-.271,0-.31-.139-.31-.3V229.09h2.771a.9.9,0,0,0,0-1.8h-2.771v-2.768c0-.172.032-.265.268-.32" transform="translate(100 -48)"/>
    <path id="パス_8467" data-name="パス 8467" d="M637.709,226.15H635.2a.963.963,0,0,1,0-1.91h1.466v-1.377a.9.9,0,0,1,1.786,0v1.377h.94a.805.805,0,0,1,.8.692.771.771,0,0,1,.6-.269h1.362V222.88a.929.929,0,0,1,1.839,0v1.783h1.764a.965.965,0,0,1,0,1.911H644v6.687h2.471a.963.963,0,0,1,0,1.909h-7.05a.963.963,0,0,1,0-1.909h2.74v-6.687H640.8a.785.785,0,0,1-.762-.55,10.573,10.573,0,0,1-1.183,2.16l-.14.2,2.106,1.792a.863.863,0,0,1,.066,1.236.852.852,0,0,1-1.222.122l-1.352-1.15v4.439a.9.9,0,0,1-1.784,0v-3.707a6.808,6.808,0,0,1-.593.589c-.637.53-1.1.459-1.451.034a.966.966,0,0,1,.106-1.379,24.342,24.342,0,0,0,2.087-2.194,10.152,10.152,0,0,0,1.193-1.775c.075-.161.039-.241-.161-.241" transform="translate(100 -48)"/>
    <path id="パス_8468" data-name="パス 8468" d="M620.607,230.25a.746.746,0,0,0-.878.821c-.028.786-.13,1.568-.292,1.568-.317,0-.724-1.4-1.22-3.768-.2-.948-.349-1.943-.459-2.86h2.636a.963.963,0,0,0,0-1.91h-.123l.007-.007a.835.835,0,0,0-.127-1.193,4.912,4.912,0,0,0-.87-.69.967.967,0,0,0-1.234.1c-.387.353-.279.84.146,1.176l.746.617h-1.372c-.046-.524-.067-.957-.081-1.241a.825.825,0,0,0-.92-.8.834.834,0,0,0-.869.868c0,.337.021.737.058,1.173h-5.661a.964.964,0,0,0,0,1.91h5.877c.153,1.127.358,2.337.574,3.443a18.4,18.4,0,0,0,1.435,4.564c.636,1.168.975,1.38,1.61,1.38s1.07-.531,1.378-1.452a12.451,12.451,0,0,0,.422-2.688.825.825,0,0,0-.783-1.008m-5.625,1.513c-.419.164-.824.316-1.233.46v-3.2h1.361a.934.934,0,0,0,0-1.852h-4.8a.935.935,0,0,0,0,1.852h1.713v3.717c-.54.135-1.13.259-1.817.374-.651.109-.9.585-.8,1.291.117.8.582.9,1.464.753a19.576,19.576,0,0,0,4.7-1.514c.717-.379,1.01-.743.9-1.459-.086-.574-.6-.774-1.487-.424" transform="translate(100 -48)"/>
    <path id="パス_8469" data-name="パス 8469" d="M631.3,230.9a1,1,0,0,0-1.327-.08.776.776,0,0,0-.081,1.141c.156.183.329.4.512.632-.844.117-1.963.26-2.981.332-.439.032-.9.058-1.331.081l1.248-2.622H633a.916.916,0,0,0,0-1.815H622.908a.916.916,0,0,0,0,1.815h2.423l-1.3,2.722c-.38.017-.684.034-.889.049-.5.038-.886.283-.885,1.039a.828.828,0,0,0,.952.907c.886-.018,2.795-.142,4.634-.355,1.526-.174,2.991-.391,3.733-.517.162.236.316.469.46.695a.96.96,0,0,0,1.462.38.925.925,0,0,0,.2-1.335,19.887,19.887,0,0,0-2.4-3.069m2.112-5.256a22.739,22.739,0,0,1-3.346-2.068c-1.032-.743-1.408-1.487-2.148-1.487s-1.129.744-2.164,1.487a22.92,22.92,0,0,1-3.344,2.068.968.968,0,0,0-.488,1.427c.287.6.705.834,1.7.247.211-.126.425-.261.641-.4a.8.8,0,0,0,.789.862h5.661a.815.815,0,0,0,.793-.892c.231.149.461.293.691.428.992.587,1.414.354,1.7-.247a.969.969,0,0,0-.485-1.427m-7.764.323c.852-.621,1.64-1.265,2.265-1.827.622.562,1.41,1.206,2.258,1.827Z" transform="translate(100 -48)"/>
    <path id="パス_8470" data-name="パス 8470" d="M608.579,233.186c-.319-.513-.893-1.349-1.432-2.229a25.161,25.161,0,0,1-1.224-2.365h1.717a.915.915,0,0,0,0-1.814h-2.28v-1.192H607.5a.916.916,0,0,0,0-1.815H605.36v-1.24a.815.815,0,0,0-1.613,0v1.24h-.73a5.775,5.775,0,0,0,.13-.842.74.74,0,0,0-.7-.807c-.441-.061-.8.062-.9.582a11.593,11.593,0,0,1-.288,1.23,5.672,5.672,0,0,1-.271.644.731.731,0,0,0-.641-.348H599.7v-1.7a.812.812,0,0,0-1.608,0v1.7h-1.071a.917.917,0,0,0,0,1.816h1.006a16.837,16.837,0,0,1-.6,2.153,15.684,15.684,0,0,1-.9,2.033,1.4,1.4,0,0,0-.061,1.477c.36.576.925.232,1.3-.415a5.3,5.3,0,0,0,.329-.753v4.148a.812.812,0,0,0,1.608,0V229.74c.019.046.038.089.055.124.264.611.808.929,1.26.571a.969.969,0,0,0,.17-1.352c-.4-.73-.945-1.887-1.485-3v-.033h.654a.794.794,0,0,0,.237-.04.847.847,0,0,0,.233.334c.335.3.874.424,1.4-.387a3.342,3.342,0,0,0,.2-.367h1.332v1.192h-2.2a.915.915,0,0,0,0,1.814h1.539c-.287.619-.784,1.643-1.224,2.365-.538.88-1.116,1.716-1.433,2.229a.9.9,0,0,0,.034,1.221.73.73,0,0,0,1.206-.071c.306-.4.914-1.42,1.468-2.37a12.355,12.355,0,0,0,.607-1.238v3.961a.815.815,0,0,0,1.613,0v-3.743a10.512,10.512,0,0,0,.516,1.02c.551.95,1.158,1.973,1.466,2.37a.726.726,0,0,0,1.2.071.9.9,0,0,0,.035-1.221" transform="translate(100 -48)"/>
    <path id="パス_8471" data-name="パス 8471" d="M594.6,222.206a.739.739,0,0,0-.827.714v9.825c0,.441-.1.769-.679.6-.455-.13-1.169-.211-1.152.69s.744,1.115,1.63,1.115a1.679,1.679,0,0,0,1.846-1.874V222.92a.734.734,0,0,0-.818-.714m-1.949,10.018a.677.677,0,0,0,.725-.666v-7.806a.729.729,0,0,0-1.452,0v7.806a.677.677,0,0,0,.727.666m-1.993-9.847h-5.533a.847.847,0,0,0-.842.845v4.923a15.4,15.4,0,0,1-.771,5.131,1.017,1.017,0,0,0,.374,1.3c.584.317,1.034-.027,1.217-.584a24.114,24.114,0,0,0,.739-6.156v-1h2.176v.708H586.85a.842.842,0,0,0-.843.841v5.865c0,.433.245.6.654.6a.565.565,0,0,0,.632-.606v-4.664c0-.233.087-.3.325-.3h.4v5.551a.691.691,0,0,0,1.378,0v-.41a2.675,2.675,0,0,0,1.026.12.963.963,0,0,0,1.042-1.015v-5.139a.843.843,0,0,0-.839-.841h-1.229v-.708h1.262a.844.844,0,0,0,.843-.842v-2.771a.846.846,0,0,0-.843-.845m-.81,6.9c.245,0,.328.069.328.3v3.305c0,.338-.215.392-.533.284a1.717,1.717,0,0,0-.247-.071v-3.82Zm.474-4.3a.242.242,0,0,1-.239.241h-4.258v-1.069a.239.239,0,0,1,.237-.241h4.021a.241.241,0,0,1,.239.241Z" transform="translate(100 -48)"/>
  </g>
</svg>
