<svg xmlns="http://www.w3.org/2000/svg" xmlns:xlink="http://www.w3.org/1999/xlink" width="308.4" height="84.108" viewBox="0 0 308.4 84.108">
  <defs>
    <clipPath id="clip-path">
      <path id="長方形_930" data-name="長方形 930" d="M7.178,0H300.221A7.178,7.178,0,0,1,307.4,7.178V75.933a7.177,7.177,0,0,1-7.177,7.177H7.179A7.179,7.179,0,0,1,0,75.931V7.178A7.178,7.178,0,0,1,7.178,0Z" transform="translate(388.894 288.813)" fill="#fff"/>
    </clipPath>
  </defs>
  <g id="グループ_3921" data-name="グループ 3921" transform="translate(-488.394 -240.314)">
    <g id="グループ_3828" data-name="グループ 3828" transform="translate(100 -48)">
      <g id="グループ_3827" data-name="グループ 3827" clip-path="url(#clip-path)">
        <rect id="長方形_929" data-name="長方形 929" width="307.399" height="83.11" transform="translate(388.894 288.813)" fill="#fff"/>
      </g>
    </g>
    <rect id="長方形_931" data-name="長方形 931" width="307.4" height="83.108" rx="7.178" transform="translate(488.894 240.814)" fill="#fff" stroke="#b2b2b3" stroke-miterlimit="10" stroke-width="1"/>
    <path id="パス_8395" data-name="パス 8395" d="M464.7,322.67l-.033-.21a2.867,2.867,0,0,0-1.437-2.081,4.607,4.607,0,0,0-2.918-.4,14.069,14.069,0,0,0-4.746,1.785,17.337,17.337,0,0,0-2.2-2.721.939.939,0,0,0,.07-.36.97.97,0,0,0-1.475-.833,8.277,8.277,0,0,0-1.518-.88,4.911,4.911,0,0,0-3.065-.36,4.234,4.234,0,0,0-2.452,1.612h0c-2,2.579-2.2,7.724-.517,13.109.079.249.162.494.247.738-1.973,3.005-2.952,5.824-2.6,7.733a3.016,3.016,0,0,0,1.444,2.152,6.034,6.034,0,0,0,4.547-.028.928.928,0,1,0-.3-.68c0,.031.005.06.008.091a4.87,4.87,0,0,1-3.235.062,2.128,2.128,0,0,1-1.07-1.63c-.238-1.521.448-3.665,1.84-6.019,1.784,4.243,4.474,7.553,7.21,8.731a5.317,5.317,0,0,0,2.106.465,4.233,4.233,0,0,0,.956-.106,4.5,4.5,0,0,0,2.883-2.279c1.591-2.759,1.624-7.527.087-12.44a25.816,25.816,0,0,0-2.3-5.26c2.934-1.721,5.564-2.391,7.039-1.562a2.074,2.074,0,0,1,1.086,1.423c.037.281.1.447.184.486l.034.015.07-.025a.24.24,0,0,0,.072-.2Zm-16.1,6.615a1.489,1.489,0,0,0,.4.06,1.453,1.453,0,0,0,1.392-1.932,32.051,32.051,0,0,1,5.146-4.118,30.617,30.617,0,0,1,2.046,5.013c1.6,5.137,1.726,9.833.325,12.258a3.081,3.081,0,0,1-2,1.583c-3.008.683-6.664-3.742-8.993-10.8q.771-1.027,1.687-2.061m.776-2.83a1.456,1.456,0,0,0-1.853,1.418,1.43,1.43,0,0,0,.072.425c-.418.461-.819.924-1.194,1.388-1.362-4.861-1.465-9.1-.241-11.219a2.9,2.9,0,0,1,1.892-1.474,4.33,4.33,0,0,1,3.586,1.174A.973.973,0,0,0,453,319.493a17.849,17.849,0,0,1,1.9,2.658,32.028,32.028,0,0,0-5.522,4.3" transform="translate(100 -48)" fill="#0aa5e9"/>
    <path id="パス_8396" data-name="パス 8396" d="M453.837,329.061a6.355,6.355,0,0,1,.741-2.242,3.88,3.88,0,0,1,2.407-.44c1,0,7.293-.273,7.712-.292.712-.034,1.049-.537,1.364-.391s-.409,2.276-.409,2.276-.326.688-1.794.688-8.486.234-8.486.234a1.5,1.5,0,0,0-1.025.234c-.433.435-.51-.067-.51-.067" transform="translate(100 -48)" fill="#0568af"/>
    <path id="パス_8397" data-name="パス 8397" d="M459.1,339.124a.5.5,0,0,1-.474.387h-2.5a.31.31,0,0,1-.317-.387l2.18-10.764a.506.506,0,0,1,.474-.386h2.5a.311.311,0,0,1,.317.386Z" transform="translate(100 -48)" fill="#0568af"/>
    <path id="パス_8398" data-name="パス 8398" d="M528.836,323.578c-3.2,0-5.8,2.367-5.8,6.533s2.6,6.534,5.8,6.534,5.8-2.363,5.8-6.534-2.6-6.533-5.8-6.533m0,11.076c-2.01,0-3.642-1.644-3.642-4.543s1.632-4.537,3.642-4.537,3.64,1.641,3.64,4.537-1.631,4.543-3.64,4.543" transform="translate(100 -48)"/>
    <path id="パス_8399" data-name="パス 8399" d="M535.867,327.178c0-2.591,2.181-3.6,4.748-3.6,3.212,0,4.381,1.674,4.68,2.225s.3,1.169-.3,1.467c-.641.321-1.193.251-1.514-.321-.38-.676-1.054-1.492-3.142-1.492-1.009,0-2.317.505-2.317,1.584s.857,1.4,1.858,1.584a22.947,22.947,0,0,1,4.015.915,3.168,3.168,0,0,1,1.926,3.143c0,2.018-1.377,3.968-4.977,3.968-4.634,0-5.183-2.656-5.482-3.6-.161-.5.09-1.053.94-1.171a1.019,1.019,0,0,1,1.285.691,2.836,2.836,0,0,0,3.1,2.156c2.568,0,2.982-1.217,2.982-1.973a1.769,1.769,0,0,0-1.6-1.742,28.552,28.552,0,0,1-4.245-.9,3.031,3.031,0,0,1-1.95-2.937" transform="translate(100 -48)"/>
    <path id="パス_8400" data-name="パス 8400" d="M547.039,325.1V335.8c0,.587.477.853,1.064.853s1.067-.266,1.067-.853v-4.876h5.437c2.591,0,3.531-1.653,3.531-3.671s-1.035-3.672-3.531-3.672h-5.971a1.4,1.4,0,0,0-1.6,1.512m2.772.395h4.437c1.2,0,1.7.606,1.7,1.765,0,1.12-.45,1.768-1.7,1.768H549.17v-2.952c0-.469.243-.581.641-.581" transform="translate(100 -48)"/>
    <path id="パス_8401" data-name="パス 8401" d="M512.756,327.669H510.25a.963.963,0,0,1,0-1.91h1.466v-1.377a.9.9,0,0,1,1.786,0v1.377h.94a.805.805,0,0,1,.8.692.771.771,0,0,1,.6-.269h1.362V324.4a.929.929,0,0,1,1.839,0v1.783h1.764a.964.964,0,0,1,0,1.911h-1.764v6.686h2.471a.963.963,0,0,1,0,1.91h-7.05a.963.963,0,0,1,0-1.91h2.74v-6.686h-1.362a.784.784,0,0,1-.762-.551A10.576,10.576,0,0,1,513.9,329.7c-.045.064-.093.131-.14.2l2.107,1.791a.865.865,0,0,1,.065,1.237.852.852,0,0,1-1.222.122l-1.352-1.15v4.439a.9.9,0,0,1-1.784,0v-3.707a6.807,6.807,0,0,1-.593.589c-.637.53-1.1.458-1.451.034a.966.966,0,0,1,.106-1.379,24.332,24.332,0,0,0,2.087-2.194,10.151,10.151,0,0,0,1.193-1.775c.075-.161.039-.241-.161-.241" transform="translate(100 -48)"/>
    <path id="パス_8402" data-name="パス 8402" d="M495.655,331.768a.746.746,0,0,0-.878.821c-.028.786-.13,1.568-.292,1.568-.317,0-.724-1.4-1.219-3.768-.2-.948-.35-1.943-.46-2.86h2.636a.963.963,0,0,0,0-1.91h-.123l.007-.007a.835.835,0,0,0-.127-1.193,4.875,4.875,0,0,0-.87-.69.968.968,0,0,0-1.234.1c-.387.353-.279.84.146,1.176l.746.617h-1.372c-.045-.524-.067-.957-.081-1.241a.825.825,0,0,0-.92-.8.834.834,0,0,0-.869.868c0,.337.021.737.058,1.173h-5.661a.964.964,0,0,0,0,1.91h5.877c.153,1.127.358,2.337.574,3.443a18.392,18.392,0,0,0,1.435,4.564c.636,1.168.975,1.38,1.611,1.38s1.069-.531,1.377-1.452a12.447,12.447,0,0,0,.422-2.688.825.825,0,0,0-.783-1.008m-5.625,1.513c-.419.164-.824.317-1.233.46v-3.2h1.361a.935.935,0,0,0,0-1.853h-4.8a.936.936,0,0,0,0,1.853h1.713v3.716c-.54.135-1.13.26-1.816.374-.651.109-.9.585-.8,1.291.117.8.582.9,1.464.753a19.533,19.533,0,0,0,4.7-1.514c.717-.378,1.01-.743.9-1.459-.086-.574-.6-.774-1.487-.424" transform="translate(100 -48)"/>
    <path id="パス_8403" data-name="パス 8403" d="M506.349,332.418a1,1,0,0,0-1.327-.08.776.776,0,0,0-.081,1.141c.156.183.329.4.512.632-.844.117-1.963.259-2.981.332-.44.03-.895.058-1.331.081l1.248-2.623h5.656a.915.915,0,0,0,0-1.814h-10.09a.915.915,0,0,0,0,1.814h2.424l-1.3,2.722c-.38.018-.684.035-.889.05-.5.038-.886.282-.885,1.039a.828.828,0,0,0,.952.907c.886-.018,2.8-.142,4.634-.355,1.526-.174,2.991-.393,3.733-.517.162.236.316.469.46.694a.96.96,0,0,0,1.462.381.925.925,0,0,0,.2-1.335,19.889,19.889,0,0,0-2.4-3.069m2.112-5.256a22.739,22.739,0,0,1-3.346-2.068c-1.032-.743-1.408-1.487-2.148-1.487s-1.129.744-2.164,1.487a22.92,22.92,0,0,1-3.344,2.068.969.969,0,0,0-.488,1.427c.287.6.7.834,1.7.245.211-.124.425-.259.641-.4a.805.805,0,0,0,.789.862h5.661a.815.815,0,0,0,.793-.892c.231.149.46.293.691.426.992.589,1.414.355,1.7-.245a.969.969,0,0,0-.485-1.427m-7.764.323c.851-.621,1.64-1.265,2.265-1.827.622.562,1.41,1.206,2.258,1.827Z" transform="translate(100 -48)"/>
    <path id="パス_8404" data-name="パス 8404" d="M483.627,334.7c-.319-.513-.893-1.349-1.432-2.229a25.14,25.14,0,0,1-1.224-2.365h1.717a.915.915,0,0,0,0-1.814h-2.28v-1.192h2.143a.916.916,0,0,0,0-1.815h-2.143v-1.24a.815.815,0,0,0-1.613,0v1.24h-.73a5.973,5.973,0,0,0,.131-.842.741.741,0,0,0-.7-.807c-.441-.061-.795.062-.895.581a11.618,11.618,0,0,1-.288,1.231,5.68,5.68,0,0,1-.271.644.731.731,0,0,0-.641-.348h-.654v-1.7a.812.812,0,0,0-1.608,0v1.7h-1.071a.915.915,0,0,0,0,1.814h1.006a16.75,16.75,0,0,1-.6,2.155,15.684,15.684,0,0,1-.9,2.033,1.4,1.4,0,0,0-.061,1.477c.36.576.925.232,1.3-.415a5.3,5.3,0,0,0,.329-.753v4.148a.812.812,0,0,0,1.608,0v-4.949c.019.046.038.089.055.124.264.611.808.929,1.26.571a.969.969,0,0,0,.17-1.352c-.4-.73-.945-1.887-1.485-3.005v-.034h.654a.8.8,0,0,0,.237-.038.854.854,0,0,0,.233.334c.335.3.875.424,1.4-.387a3.531,3.531,0,0,0,.2-.367H478.8V328.3h-2.2a.915.915,0,0,0,0,1.814h1.539c-.287.618-.784,1.644-1.224,2.365-.538.88-1.116,1.716-1.433,2.229a.9.9,0,0,0,.034,1.22.729.729,0,0,0,1.206-.07c.306-.4.914-1.42,1.468-2.37a12.346,12.346,0,0,0,.607-1.238v3.961a.815.815,0,0,0,1.613,0v-3.743a10.508,10.508,0,0,0,.516,1.02c.551.95,1.158,1.973,1.466,2.37a.725.725,0,0,0,1.2.07.9.9,0,0,0,.035-1.22" transform="translate(100 -48)"/>
    <path id="パス_8405" data-name="パス 8405" d="M528.836,323.578c-3.2,0-5.8,2.367-5.8,6.533s2.6,6.534,5.8,6.534,5.8-2.363,5.8-6.534-2.6-6.533-5.8-6.533m0,11.076c-2.01,0-3.642-1.644-3.642-4.543s1.632-4.537,3.642-4.537,3.64,1.641,3.64,4.537-1.631,4.543-3.64,4.543" transform="translate(100 -48)"/>
    <path id="パス_8406" data-name="パス 8406" d="M535.867,327.178c0-2.591,2.181-3.6,4.748-3.6,3.212,0,4.381,1.674,4.68,2.225s.3,1.169-.3,1.467c-.641.321-1.193.251-1.514-.321-.38-.676-1.054-1.492-3.142-1.492-1.009,0-2.317.505-2.317,1.584s.857,1.4,1.858,1.584a22.947,22.947,0,0,1,4.015.915,3.168,3.168,0,0,1,1.926,3.143c0,2.018-1.377,3.968-4.977,3.968-4.634,0-5.183-2.656-5.482-3.6-.161-.5.09-1.053.94-1.171a1.019,1.019,0,0,1,1.285.691,2.836,2.836,0,0,0,3.1,2.156c2.568,0,2.982-1.217,2.982-1.973a1.769,1.769,0,0,0-1.6-1.742,28.552,28.552,0,0,1-4.245-.9,3.031,3.031,0,0,1-1.95-2.937" transform="translate(100 -48)"/>
    <path id="パス_8407" data-name="パス 8407" d="M547.039,325.1V335.8c0,.587.477.853,1.064.853s1.067-.266,1.067-.853v-4.876h5.437c2.591,0,3.531-1.653,3.531-3.671s-1.035-3.672-3.531-3.672h-5.971a1.4,1.4,0,0,0-1.6,1.512m2.772.395h4.437c1.2,0,1.7.606,1.7,1.765,0,1.12-.45,1.768-1.7,1.768H549.17v-2.952c0-.469.243-.581.641-.581" transform="translate(100 -48)"/>
    <path id="パス_8408" data-name="パス 8408" d="M593.607,329.1h-10.98a1,1,0,0,0,0,1.981h10.98a1,1,0,0,0,0-1.981" transform="translate(100 -48)"/>
    <path id="パス_8409" data-name="パス 8409" d="M619.547,326.082c.943.416,2.239,1.133,3.182,1.675.574.329,1.117.318,1.456-.3A.874.874,0,0,0,624,326.2a17.467,17.467,0,0,0-3.529-1.887c-.7-.23-1.108-.073-1.342.508-.245.628-.06,1.046.415,1.258m9.814-.372a1.039,1.039,0,0,0-1.263.744,11.874,11.874,0,0,1-2.98,5.394,10.252,10.252,0,0,1-5.279,2.622c-.908.225-1.319.568-1.207,1.332.1.7.7.968,1.637.8a11.829,11.829,0,0,0,6.6-3.582,14.593,14.593,0,0,0,3.2-5.944c.163-.8-.1-1.237-.709-1.371" transform="translate(100 -48)"/>
    <path id="パス_8410" data-name="パス 8410" d="M643.147,325.046l-.972-2.072a.581.581,0,0,0-1.051.5l.973,2.072a.581.581,0,1,0,1.05-.5m-2.013-.434-.5-1.054a.579.579,0,1,0-1.047.5l.158.339h-4.739a1.546,1.546,0,0,0-1.566.9,15.555,15.555,0,0,1-2.656,3.688c-.379.389-.662.928-.025,1.433a1.024,1.024,0,0,0,1.461-.106,15.46,15.46,0,0,0,2.732-3.608.612.612,0,0,1,.6-.265h3.48c.373,0,.56.052.507.5a10.007,10.007,0,0,1-1.752,4.616,10.23,10.23,0,0,1-5.333,3.371c-.744.211-1.065.663-.9,1.327a.982.982,0,0,0,1.223.822,11.4,11.4,0,0,0,5.917-3.449,12.582,12.582,0,0,0,2.867-6.878,3.846,3.846,0,0,0-.429-2.137" transform="translate(100 -48)"/>
    <path id="パス_8411" data-name="パス 8411" d="M614.8,335.744v-4.6a.066.066,0,0,1,.026-.052,20.117,20.117,0,0,0,2.132-1.812.829.829,0,0,0-.04-1.323h0a1.1,1.1,0,0,0-.775-.265,1.006,1.006,0,0,0-.7.3A20.334,20.334,0,0,1,609.3,332a.868.868,0,0,0-.616.826.941.941,0,0,0,.28.662,1,1,0,0,0,.7.32l.531-.124a21.791,21.791,0,0,0,2.405-1.179.066.066,0,0,1,.064,0,.063.063,0,0,1,.034.056v3.18a.835.835,0,0,0,.313.692,1.145,1.145,0,0,0,.692.254,1.128,1.128,0,0,0,.764-.244.832.832,0,0,0,.335-.7" transform="translate(100 -48)"/>
    <path id="パス_8412" data-name="パス 8412" d="M599.02,325.624H605.2a.923.923,0,0,0,.747-.31,1.045,1.045,0,0,0,.269-.722.981.981,0,0,0-.236-.7,1.023,1.023,0,0,0-.78-.312H599.02a.973.973,0,0,0-.748.3.985.985,0,0,0-.268.7.993.993,0,0,0,1.016,1.042m9.618,2.541a.983.983,0,0,0-.777-.328H596.842a.972.972,0,0,0-.761.294,1.046,1.046,0,0,0-.27.735.992.992,0,0,0,.24.687.98.98,0,0,0,.791.342h5l.083.035.03.085a5.134,5.134,0,0,1-1.062,3.114,5.551,5.551,0,0,1-2.351,1.423.983.983,0,0,0-.724,1.081,1.073,1.073,0,0,0,.286.707.892.892,0,0,0,.627.342.868.868,0,0,0,.426-.078,7.281,7.281,0,0,0,3.35-2.1,7.78,7.78,0,0,0,1.51-4.505.113.113,0,0,1,.113-.106h3.731a.936.936,0,0,0,.746-.295,1.056,1.056,0,0,0,.268-.737.962.962,0,0,0-.237-.7" transform="translate(100 -48)"/>
    <path id="パス_8413" data-name="パス 8413" d="M611,324.7l-.96-2.046a.574.574,0,0,0-1.038.489l.96,2.045A.574.574,0,1,0,611,324.7" transform="translate(100 -48)"/>
    <path id="パス_8414" data-name="パス 8414" d="M609.421,325.253l-.96-2.047a.574.574,0,0,0-1.038.49l.96,2.046a.574.574,0,0,0,1.038-.489" transform="translate(100 -48)"/>
    <path id="パス_8415" data-name="パス 8415" d="M572.3,323.433a.925.925,0,0,0-.692-.246,1,1,0,0,0-.708.278.969.969,0,0,0-.312.777V333.9a4.127,4.127,0,0,0,.341,1.793,1.615,1.615,0,0,0,1.542,1,8.412,8.412,0,0,0,4.484-1.61l.124-.091s.026-.02.051-.042a8.323,8.323,0,0,0,1.155-1.1,10.021,10.021,0,0,0,2.1-3.131,1.428,1.428,0,0,0,.087-.473.91.91,0,0,0-.093-.412,1,1,0,0,0-.64-.491,1.108,1.108,0,0,0-1.353.536l-.143.29a6.923,6.923,0,0,1-2.428,3,8,8,0,0,1-2.946,1.154.075.075,0,0,1-.065-.019.809.809,0,0,1-.15-.577v-9.485a1,1,0,0,0-.357-.809" transform="translate(100 -48)"/>
    <path id="パス_8416" data-name="パス 8416" d="M569.157,330.471a24.17,24.17,0,0,0-3.324-1.351c-1.578-.576-3.194-1.086-3.99-1.33v-3.7a1,1,0,0,0-1.077-.894.987.987,0,0,0-1.064.894V335.8a.987.987,0,0,0,1.064.894,1,1,0,0,0,1.077-.894v-5.913c.938.272,2.021.661,3.034,1.038,1.219.453,2.733,1.133,3.322,1.43a1.058,1.058,0,0,0,.958-1.884" transform="translate(100 -48)"/>
  </g>
</svg>
