<svg xmlns="http://www.w3.org/2000/svg" xmlns:xlink="http://www.w3.org/1999/xlink" width="308.4" height="84.108" viewBox="0 0 308.4 84.108">
  <defs>
    <clipPath id="clip-path">
      <path id="長方形_953" data-name="長方形 953" d="M7.177,0H300.223A7.176,7.176,0,0,1,307.4,7.176V75.93a7.177,7.177,0,0,1-7.177,7.177H7.177A7.177,7.177,0,0,1,0,75.93V7.177A7.177,7.177,0,0,1,7.177,0Z" transform="translate(389.987 599.815)" fill="#fff"/>
    </clipPath>
    <clipPath id="clip-path-2">
      <path id="パス_8564" data-name="パス 8564" d="M448.96,645.543a3.781,3.781,0,0,0,4.355,3.93,4.878,4.878,0,0,1-.529-7.5h-.057a3.776,3.776,0,0,0-3.769,3.575" fill="none"/>
    </clipPath>
    <linearGradient id="linear-gradient" x1="-57.446" y1="52.213" x2="-57.317" y2="52.213" gradientUnits="objectBoundingBox">
      <stop offset="0" stop-color="#0282c8"/>
      <stop offset="0.185" stop-color="#0285c3"/>
      <stop offset="0.381" stop-color="#058fb6"/>
      <stop offset="0.58" stop-color="#0aa1a2"/>
      <stop offset="0.652" stop-color="#19a5a8"/>
      <stop offset="0.79" stop-color="#41b2b9"/>
      <stop offset="0.98" stop-color="#81c7d5"/>
      <stop offset="0.999" stop-color="#88cad8"/>
      <stop offset="1" stop-color="#88cad8"/>
    </linearGradient>
    <clipPath id="clip-path-3">
      <path id="パス_8565" data-name="パス 8565" d="M446.827,639.93a4.763,4.763,0,0,0-1.365,6.594,4.713,4.713,0,0,0,.628.767,6.155,6.155,0,0,1,7.227-6.147,4.764,4.764,0,0,0-6.49-1.214" fill="none"/>
    </clipPath>
    <linearGradient id="linear-gradient-2" x1="-36.151" y1="21.808" x2="-36.069" y2="21.808" xlink:href="#linear-gradient"/>
    <clipPath id="clip-path-4">
      <path id="パス_8566" data-name="パス 8566" d="M443.2,638.452a5.516,5.516,0,0,0-.123,1.144,7.149,7.149,0,0,1,10.981.968,5.532,5.532,0,0,0-10.858-2.112" fill="none"/>
    </clipPath>
    <linearGradient id="linear-gradient-3" x1="-50.784" y1="21.116" x2="-50.67" y2="21.116" xlink:href="#linear-gradient"/>
  </defs>
  <g id="グループ_3930" data-name="グループ 3930" transform="translate(-489.487 -551.314)">
    <g id="グループ_3852" data-name="グループ 3852" transform="translate(100 -48)">
      <g id="グループ_3851" data-name="グループ 3851" clip-path="url(#clip-path)">
        <rect id="長方形_952" data-name="長方形 952" width="307.399" height="83.107" transform="translate(389.987 599.815)" fill="#fff"/>
      </g>
    </g>
    <rect id="長方形_954" data-name="長方形 954" width="307.4" height="83.108" rx="7.178" transform="translate(489.987 551.814)" fill="#fff" stroke="#b2b2b3" stroke-miterlimit="10" stroke-width="1"/>
    <g id="グループ_3888" data-name="グループ 3888" transform="translate(100 -48)">
      <g id="グループ_3887" data-name="グループ 3887" clip-path="url(#clip-path-2)">
        <rect id="長方形_986" data-name="長方形 986" width="7.785" height="4.859" transform="translate(448.451 649.506) rotate(-86.968)" fill="url(#linear-gradient)"/>
      </g>
    </g>
    <g id="グループ_3890" data-name="グループ 3890" transform="translate(100 -48)">
      <g id="グループ_3889" data-name="グループ 3889" clip-path="url(#clip-path-3)">
        <rect id="長方形_987" data-name="長方形 987" width="12.242" height="11.91" transform="matrix(0.836, -0.549, 0.549, 0.836, 440.283, 641.604)" fill="url(#linear-gradient-2)"/>
      </g>
    </g>
    <g id="グループ_3892" data-name="グループ 3892" transform="translate(100 -48)">
      <g id="グループ_3891" data-name="グループ 3891" clip-path="url(#clip-path-4)">
        <rect id="長方形_988" data-name="長方形 988" width="8.752" height="12.596" transform="matrix(0.21, -0.978, 0.978, 0.21, 441.743, 640.279)" fill="url(#linear-gradient-3)"/>
      </g>
    </g>
    <path id="パス_8567" data-name="パス 8567" d="M530.481,635.967V643.2a5.906,5.906,0,0,1-.057.806,3.647,3.647,0,0,1-.178.755,2.681,2.681,0,0,1-1.015,1.332,3,3,0,0,1-3.282,0,2.677,2.677,0,0,1-1.016-1.332,3.785,3.785,0,0,1-.178-.755,5.893,5.893,0,0,1-.056-.806v-7.234h-1.421v7.2a8.476,8.476,0,0,0,.056.967,5.281,5.281,0,0,0,.188.933,4.3,4.3,0,0,0,.514,1.111,3.272,3.272,0,0,0,.849.881,4.076,4.076,0,0,0,1.242.58,5.245,5.245,0,0,0,2.925,0,4.076,4.076,0,0,0,1.242-.58,3.242,3.242,0,0,0,.849-.881,4.334,4.334,0,0,0,.515-1.111,5.463,5.463,0,0,0,.188-.933,8.948,8.948,0,0,0,.056-.967v-7.2Z" transform="translate(100 -48)"/>
    <path id="パス_8568" data-name="パス 8568" d="M500.721,637.013a5.329,5.329,0,0,0-1.831.31,4.083,4.083,0,0,0-1.478.923,4.365,4.365,0,0,0-.989,1.527,5.727,5.727,0,0,0-.361,2.122,5.881,5.881,0,0,0,.335,2.086,3.708,3.708,0,0,0,2.44,2.323,6.309,6.309,0,0,0,1.936.279c.194,0,.4-.009.617-.03s.438-.048.658-.088.435-.081.644-.13a5.813,5.813,0,0,0,.561-.161v1.254a5.736,5.736,0,0,1-1.194.31,8.774,8.774,0,0,1-1.395.109,7.555,7.555,0,0,1-2.579-.406,5.055,5.055,0,0,1-1.888-1.162,4.915,4.915,0,0,1-1.155-1.853,7.9,7.9,0,0,1,.022-4.981,5.569,5.569,0,0,1,1.194-1.961,5.463,5.463,0,0,1,1.891-1.277,6.507,6.507,0,0,1,2.5-.457q.365,0,.723.031c.238.02.466.05.683.086a5.949,5.949,0,0,1,.607.137,3.347,3.347,0,0,1,.479.165v1.254a9.155,9.155,0,0,0-1.156-.291,6.7,6.7,0,0,0-1.262-.119" transform="translate(100 -48)"/>
    <path id="パス_8569" data-name="パス 8569" d="M542.99,637.072a5.215,5.215,0,0,0-1.807.308,4.027,4.027,0,0,0-1.46.917,4.373,4.373,0,0,0-.976,1.517,5.753,5.753,0,0,0-.356,2.11,5.9,5.9,0,0,0,.33,2.075,3.834,3.834,0,0,0,.941,1.455,3.79,3.79,0,0,0,1.468.853,6.162,6.162,0,0,0,1.912.277c.191,0,.394-.009.609-.03s.43-.048.649-.086.429-.081.637-.13a5.687,5.687,0,0,0,.552-.159v1.247a5.8,5.8,0,0,1-1.179.307,8.539,8.539,0,0,1-1.376.108,7.452,7.452,0,0,1-2.547-.4,5,5,0,0,1-1.863-1.156,4.878,4.878,0,0,1-1.14-1.841,7.892,7.892,0,0,1,.021-4.952,5.508,5.508,0,0,1,1.179-1.949,5.363,5.363,0,0,1,1.867-1.269,6.39,6.39,0,0,1,2.466-.455q.36,0,.713.031t.676.086a5.78,5.78,0,0,1,.6.134,3.659,3.659,0,0,1,.473.165v1.247a9.163,9.163,0,0,0-1.141-.29,6.7,6.7,0,0,0-1.246-.117" transform="translate(100 -48)"/>
    <path id="パス_8570" data-name="パス 8570" d="M570.383,647.624h-1.4V636.032h3.189a9.288,9.288,0,0,1,1.318.087,5.683,5.683,0,0,1,1.113.268,3.194,3.194,0,0,1,1.564,1.113,3.043,3.043,0,0,1,.534,1.825,3.324,3.324,0,0,1-.348,1.554,3.035,3.035,0,0,1-1.01,1.122,4.846,4.846,0,0,1-1.611.68,9.194,9.194,0,0,1-2.152.23q-.576,0-1.2-.052Zm0-6.056c.189.024.388.041.594.052s.4.017.585.017a7.9,7.9,0,0,0,1.686-.155,3.309,3.309,0,0,0,1.136-.455,1.79,1.79,0,0,0,.637-.727,2.307,2.307,0,0,0,.2-.975,1.8,1.8,0,0,0-.323-1.109,1.982,1.982,0,0,0-.917-.659,3.665,3.665,0,0,0-.852-.2,9.625,9.625,0,0,0-1.118-.056h-1.626Z" transform="translate(100 -48)"/>
    <path id="パス_8571" data-name="パス 8571" d="M613.806,647.624h-1.4V637.306h-3.847v-1.274h9.1v1.274h-3.847Z" transform="translate(100 -48)"/>
    <rect id="長方形_989" data-name="長方形 989" width="1.402" height="11.592" transform="translate(719.101 588.032)"/>
    <path id="パス_8572" data-name="パス 8572" d="M641.065,642.495q1.058,1.533,2.09,3.154h.052q-.112-1.689-.111-3.449v-6.168h1.411v11.591h-1.4l-4.516-6.462q-1.17-1.689-2.091-3.154h-.052q.113,1.586.113,3.7v5.916h-1.4V636.032h1.394Z" transform="translate(100 -48)"/>
    <path id="パス_8573" data-name="パス 8573" d="M633.708,641.844a6.811,6.811,0,0,1-.413,2.414,5.3,5.3,0,0,1-3.027,3.137,6.277,6.277,0,0,1-2.421.446,6.509,6.509,0,0,1-2.479-.446,5.246,5.246,0,0,1-1.852-1.241,5.366,5.366,0,0,1-1.161-1.9,7,7,0,0,1-.4-2.414,6.836,6.836,0,0,1,.417-2.427,5.507,5.507,0,0,1,1.181-1.9,5.356,5.356,0,0,1,1.849-1.243,6.354,6.354,0,0,1,2.431-.445,6.5,6.5,0,0,1,2.468.445,5.337,5.337,0,0,1,1.849,1.243,5.4,5.4,0,0,1,1.159,1.9,6.994,6.994,0,0,1,.4,2.427m-1.529,0a5.819,5.819,0,0,0-.335-2.059,4.164,4.164,0,0,0-.919-1.488,3.867,3.867,0,0,0-1.383-.9,4.944,4.944,0,0,0-3.425,0,3.867,3.867,0,0,0-1.383.9,4.164,4.164,0,0,0-.919,1.488,6.458,6.458,0,0,0,0,4.115,4.255,4.255,0,0,0,.927,1.483,3.762,3.762,0,0,0,1.383.9,4.791,4.791,0,0,0,1.721.3,4.7,4.7,0,0,0,1.7-.3,3.8,3.8,0,0,0,1.373-.9,4.168,4.168,0,0,0,.919-1.483,5.79,5.79,0,0,0,.335-2.056" transform="translate(100 -48)"/>
    <path id="パス_8574" data-name="パス 8574" d="M589.675,641.844a6.812,6.812,0,0,1-.413,2.414,5.307,5.307,0,0,1-3.028,3.137,6.275,6.275,0,0,1-2.42.446,6.509,6.509,0,0,1-2.479-.446,5.241,5.241,0,0,1-1.853-1.241,5.363,5.363,0,0,1-1.16-1.9,6.971,6.971,0,0,1-.4-2.414,6.813,6.813,0,0,1,.417-2.427,5.5,5.5,0,0,1,1.18-1.9,5.356,5.356,0,0,1,1.849-1.243,6.36,6.36,0,0,1,2.432-.445,6.491,6.491,0,0,1,2.467.445,5.332,5.332,0,0,1,1.85,1.243,5.414,5.414,0,0,1,1.159,1.9,7.017,7.017,0,0,1,.4,2.427m-1.53,0a5.842,5.842,0,0,0-.334-2.059,4.164,4.164,0,0,0-.919-1.488,3.868,3.868,0,0,0-1.383-.9,4.944,4.944,0,0,0-3.425,0,3.867,3.867,0,0,0-1.383.9,4.166,4.166,0,0,0-.92,1.488,5.842,5.842,0,0,0-.334,2.059,5.766,5.766,0,0,0,.338,2.056,4.242,4.242,0,0,0,.927,1.483,3.766,3.766,0,0,0,1.382.9,4.8,4.8,0,0,0,1.721.3,4.7,4.7,0,0,0,1.7-.3,3.8,3.8,0,0,0,1.374-.9,4.168,4.168,0,0,0,.919-1.483,5.813,5.813,0,0,0,.334-2.056" transform="translate(100 -48)"/>
    <path id="パス_8575" data-name="パス 8575" d="M557.773,641.844a6.811,6.811,0,0,1-.413,2.414,5.306,5.306,0,0,1-3.028,3.137,6.279,6.279,0,0,1-2.42.446,6.513,6.513,0,0,1-2.479-.446,5.241,5.241,0,0,1-1.853-1.241,5.363,5.363,0,0,1-1.16-1.9,6.971,6.971,0,0,1-.4-2.414,6.814,6.814,0,0,1,.417-2.427,5.506,5.506,0,0,1,1.18-1.9,5.356,5.356,0,0,1,1.849-1.243,6.36,6.36,0,0,1,2.432-.445,6.492,6.492,0,0,1,2.467.445,5.332,5.332,0,0,1,1.85,1.243,5.414,5.414,0,0,1,1.159,1.9,7.019,7.019,0,0,1,.4,2.427m-1.53,0a5.842,5.842,0,0,0-.334-2.059,4.177,4.177,0,0,0-.918-1.488,3.88,3.88,0,0,0-1.384-.9,4.944,4.944,0,0,0-3.425,0,3.867,3.867,0,0,0-1.383.9,4.166,4.166,0,0,0-.92,1.488,5.842,5.842,0,0,0-.334,2.059,5.744,5.744,0,0,0,.339,2.056,4.225,4.225,0,0,0,.926,1.483,3.766,3.766,0,0,0,1.382.9,4.8,4.8,0,0,0,1.721.3,4.7,4.7,0,0,0,1.7-.3,3.815,3.815,0,0,0,1.375-.9,4.181,4.181,0,0,0,.918-1.483,5.813,5.813,0,0,0,.334-2.056" transform="translate(100 -48)"/>
    <path id="パス_8576" data-name="パス 8576" d="M600.289,647.624l4.683-10.466.564-1.231.649,1.231,4.683,10.466h-1.521l-1.372-3.152h-4.81l-1.372,3.152Zm5.276-8.838q-.768,1.954-1.469,3.552l-.43.985h3.811l-.436-.985q-.708-1.626-1.443-3.552Z" transform="translate(100 -48)"/>
    <path id="パス_8577" data-name="パス 8577" d="M510.907,642.166h-4.484v4.2h5.808v1.262h-7.255V635.978h6.976v1.262h-5.529v3.682h4.484Z" transform="translate(100 -48)"/>
    <path id="パス_8578" data-name="パス 8578" d="M513.773,647.63V635.836h3.051a5.8,5.8,0,0,1,3.549.843,2.353,2.353,0,0,1,1.074,2.049,2.818,2.818,0,0,1-2.187,2.549v.034a3.109,3.109,0,0,1,2.666,2.91,2.99,2.99,0,0,1-1.092,2.326c-.9.74-2.36,1.084-4.471,1.084Zm1.475-6.8h1.191c1.764,0,3.66-.826,3.66-1.945,0-1.362-1.49-1.766-3.179-1.766-.767,0-1.129,0-1.672,0Zm0,5.562a15.7,15.7,0,0,0,1.6.069c1.726,0,3.593-.569,3.593-2.256,0-1.584-2.311-2.238-4.132-2.238h-1.057Z" transform="translate(100 -48)"/>
    <path id="パス_8579" data-name="パス 8579" d="M563.863,642.634a5.068,5.068,0,0,0,1.251-.381,3.276,3.276,0,0,0,.968-.667,2.882,2.882,0,0,0,.629-.961,3.341,3.341,0,0,0,.223-1.257,3.069,3.069,0,0,0-.636-1.98,3.434,3.434,0,0,0-1.839-1.122,6.084,6.084,0,0,0-.967-.177,12.557,12.557,0,0,0-1.286-.057h-2.981v11.592h1.4v-4.8h1.7l.233.315,3.211,4.484h1.67Zm-3.236-5.328h1.591c.443,0,.807.014,1.094.043a3.825,3.825,0,0,1,.739.139,2.042,2.042,0,0,1,1.024.654,1.874,1.874,0,0,1,.379,1.2,2,2,0,0,1-.4,1.29,2.242,2.242,0,0,1-1.127.72,4.043,4.043,0,0,1-.818.156q-.454.043-1.1.043h-1.385Z" transform="translate(100 -48)"/>
    <path id="パス_8580" data-name="パス 8580" d="M595.77,642.634a5.067,5.067,0,0,0,1.251-.381,3.278,3.278,0,0,0,.968-.667,2.9,2.9,0,0,0,.629-.961,3.34,3.34,0,0,0,.223-1.257,3.069,3.069,0,0,0-.636-1.98,3.434,3.434,0,0,0-1.84-1.122,6.051,6.051,0,0,0-.966-.177,12.556,12.556,0,0,0-1.286-.057h-2.981v11.592h1.4v-4.8h1.7l.233.315,3.211,4.484h1.67Zm-3.236-5.328h1.591c.443,0,.807.014,1.094.043a3.824,3.824,0,0,1,.739.139,2.042,2.042,0,0,1,1.024.654,1.88,1.88,0,0,1,.379,1.2,2,2,0,0,1-.4,1.29,2.242,2.242,0,0,1-1.127.72,4.043,4.043,0,0,1-.818.156q-.455.043-1.1.043h-1.385Z" transform="translate(100 -48)"/>
    <path id="パス_8581" data-name="パス 8581" d="M471.174,641.832a6.794,6.794,0,0,1-.415,2.419,5.351,5.351,0,0,1-3.053,3.144,6.4,6.4,0,0,1-2.441.447,6.626,6.626,0,0,1-2.5-.447,5.293,5.293,0,0,1-1.869-1.245,5.389,5.389,0,0,1-1.17-1.9,6.953,6.953,0,0,1-.406-2.419,6.8,6.8,0,0,1,.42-2.432,5.51,5.51,0,0,1,1.188-1.9,5.4,5.4,0,0,1,1.866-1.245,6.446,6.446,0,0,1,2.453-.447,6.565,6.565,0,0,1,2.486.447A5.327,5.327,0,0,1,469.6,637.5a5.412,5.412,0,0,1,1.17,1.9,7,7,0,0,1,.4,2.432m-1.542,0a5.842,5.842,0,0,0-.335-2.063,4.19,4.19,0,0,0-.928-1.492,3.916,3.916,0,0,0-1.395-.907,5.011,5.011,0,0,0-3.454,0,3.926,3.926,0,0,0-1.393.907,4.178,4.178,0,0,0-.929,1.492,5.841,5.841,0,0,0-.336,2.063,5.743,5.743,0,0,0,.341,2.06,4.245,4.245,0,0,0,.934,1.487,3.839,3.839,0,0,0,1.394.9,4.9,4.9,0,0,0,1.735.3,4.8,4.8,0,0,0,1.718-.3,3.872,3.872,0,0,0,1.385-.9,4.2,4.2,0,0,0,.928-1.487,5.813,5.813,0,0,0,.335-2.06" transform="translate(100 -48)"/>
    <path id="パス_8582" data-name="パス 8582" d="M474.053,639.093a1.577,1.577,0,0,0,.207.845,1.7,1.7,0,0,0,.556.551,3.473,3.473,0,0,0,.814.356c.309.092.629.179.963.259.449.112.892.233,1.326.364a4.242,4.242,0,0,1,1.164.552,2.682,2.682,0,0,1,.825.914,2.966,2.966,0,0,1,.315,1.45,3.311,3.311,0,0,1-.342,1.556,2.955,2.955,0,0,1-.945,1.075,4.253,4.253,0,0,1-1.426.624,7.538,7.538,0,0,1-1.8.2,7.9,7.9,0,0,1-.922-.055c-.314-.038-.616-.088-.9-.152a6.454,6.454,0,0,1-.775-.218,2.9,2.9,0,0,1-.546-.242v-1.291a5.614,5.614,0,0,0,.7.285,8.209,8.209,0,0,0,.8.221c.279.061.558.11.841.144a6.73,6.73,0,0,0,.8.052,6.252,6.252,0,0,0,1.158-.1,3.034,3.034,0,0,0,.967-.347,1.808,1.808,0,0,0,.658-.662,2.094,2.094,0,0,0,.242-1.054,1.6,1.6,0,0,0-.212-.861,1.755,1.755,0,0,0-.567-.557,3.346,3.346,0,0,0-.82-.361c-.308-.091-.634-.18-.975-.259-.451-.106-.89-.222-1.321-.351a4.161,4.161,0,0,1-1.152-.542,2.619,2.619,0,0,1-.815-.893,2.834,2.834,0,0,1-.308-1.4,3.321,3.321,0,0,1,.324-1.521,2.989,2.989,0,0,1,.874-1.053,3.733,3.733,0,0,1,1.272-.615,5.715,5.715,0,0,1,1.534-.2,7.971,7.971,0,0,1,1.73.179,8.115,8.115,0,0,1,1.467.463v1.31a10.159,10.159,0,0,0-1.486-.495,7.043,7.043,0,0,0-1.643-.2,4.074,4.074,0,0,0-1.142.142,2.256,2.256,0,0,0-.806.408,1.631,1.631,0,0,0-.478.64,2.194,2.194,0,0,0-.155.838" transform="translate(100 -48)"/>
    <path id="パス_8583" data-name="パス 8583" d="M484.116,647.776h-1.433V636.022h3.255a9.533,9.533,0,0,1,1.347.089,5.77,5.77,0,0,1,1.135.272,3.264,3.264,0,0,1,1.6,1.129,3.06,3.06,0,0,1,.544,1.847,3.378,3.378,0,0,1-.355,1.579,3.092,3.092,0,0,1-1.031,1.137,4.948,4.948,0,0,1-1.643.689,9.391,9.391,0,0,1-2.2.234c-.392,0-.8-.019-1.219-.053Zm0-6.141c.193.024.4.041.606.053s.409.018.6.018a8.221,8.221,0,0,0,1.721-.157,3.432,3.432,0,0,0,1.159-.461,1.8,1.8,0,0,0,.648-.74,2.3,2.3,0,0,0,.2-.989,1.82,1.82,0,0,0-.329-1.123,2.027,2.027,0,0,0-.935-.667,3.723,3.723,0,0,0-.869-.2,9.8,9.8,0,0,0-1.142-.059h-1.659Z" transform="translate(100 -48)"/>
  </g>
</svg>
