<svg xmlns="http://www.w3.org/2000/svg" xmlns:xlink="http://www.w3.org/1999/xlink" width="308.4" height="84.108" viewBox="0 0 308.4 84.108">
  <defs>
    <clipPath id="clip-path">
      <path id="長方形_965" data-name="長方形 965" d="M7.179,0H300.223A7.178,7.178,0,0,1,307.4,7.178V75.929a7.179,7.179,0,0,1-7.179,7.179H7.178A7.178,7.178,0,0,1,0,75.93V7.179A7.179,7.179,0,0,1,7.179,0Z" transform="translate(65.551 595.223)" fill="#fff"/>
    </clipPath>
  </defs>
  <g id="グループ_3929" data-name="グループ 3929" transform="translate(-165.052 -546.723)">
    <g id="グループ_3864" data-name="グループ 3864" transform="translate(100 -48)">
      <g id="グループ_3863" data-name="グループ 3863" clip-path="url(#clip-path)">
        <rect id="長方形_964" data-name="長方形 964" width="307.401" height="83.108" transform="translate(65.551 595.223)" fill="#fff"/>
      </g>
    </g>
    <rect id="長方形_966" data-name="長方形 966" width="307.4" height="83.108" rx="7.178" transform="translate(165.552 547.223)" fill="none" stroke="#b2b2b3" stroke-miterlimit="10" stroke-width="1"/>
    <path id="パス_8535" data-name="パス 8535" d="M87.293,625.1H82.722a1.379,1.379,0,0,0-1.375,1.374v12.368a1.379,1.379,0,0,0,1.375,1.376h4.571a1.38,1.38,0,0,0,1.376-1.376V626.476a1.379,1.379,0,0,0-1.376-1.374m-1.7,12.206a.589.589,0,0,1-1.174,0v-9.294a.589.589,0,0,1,1.174,0Z" transform="translate(100 -48)" fill="#0568af"/>
    <path id="パス_8536" data-name="パス 8536" d="M103.819,625.1H97.872V640.22h3v-5.553h2.947a1.379,1.379,0,0,0,1.375-1.374v-6.816a1.378,1.378,0,0,0-1.375-1.374m-1.69,6.407a.458.458,0,0,1-.518.52h-.739v-4.5h.739a.457.457,0,0,1,.518.519Z" transform="translate(100 -48)" fill="#0568af"/>
    <path id="パス_8537" data-name="パス 8537" d="M96.883,630.488v-4.012a1.38,1.38,0,0,0-1.374-1.374H90.935a1.379,1.379,0,0,0-1.375,1.374v3.866a1.843,1.843,0,0,0,.81,1.747c.8.533,2.28,1.406,2.814,1.746s.657.509.657.994v2.447a.629.629,0,1,1-1.258,0V634.3H89.56v4.548a1.38,1.38,0,0,0,1.375,1.376h4.574a1.38,1.38,0,0,0,1.374-1.376V633.98a2,2,0,0,0-1.177-1.819c-.533-.315-1.891-1.066-2.3-1.334a1.313,1.313,0,0,1-.766-1.285v-1.478a.587.587,0,1,1,1.173,0v2.424Z" transform="translate(100 -48)" fill="#0568af"/>
    <path id="パス_8538" data-name="パス 8538" d="M80.467,638.845V637.26H71.216v2.96h9.722a2.249,2.249,0,0,1-.471-1.375m0-4.078h-9.25v2.045h9.25Zm0-1.746h-9.25v1.353h9.25Zm0-.825h-9.25v.415h9.25Zm21.285,8.024h11.893v-2.96H101.752Zm4.322-6.928a2.243,2.243,0,0,1-.278,1.082h7.849v-1.353h-7.571Zm0-.681h7.571V632.2h-7.571Zm-2.257,2.937h-2.065v1.264h11.893v-2.045H105.52a2.242,2.242,0,0,1-1.7.781m-32.6,9.716h42.429v-4.578H71.216Z" transform="translate(100 -48)" fill="#0568af"/>
    <path id="パス_8539" data-name="パス 8539" d="M130.7,638.038a6.816,6.816,0,0,1-.416,2.422,5.365,5.365,0,0,1-3.059,3.149,6.406,6.406,0,0,1-2.446.447,6.628,6.628,0,0,1-2.5-.447,5.3,5.3,0,0,1-1.873-1.248,5.374,5.374,0,0,1-1.172-1.9,6.928,6.928,0,0,1-.407-2.422,6.813,6.813,0,0,1,.419-2.433,5.559,5.559,0,0,1,1.193-1.909,5.457,5.457,0,0,1,1.868-1.246,6.434,6.434,0,0,1,2.458-.447,6.561,6.561,0,0,1,2.492.447,5.233,5.233,0,0,1,3.04,3.155,6.994,6.994,0,0,1,.406,2.433m-1.545,0a5.876,5.876,0,0,0-.336-2.067,4.187,4.187,0,0,0-.93-1.493,3.957,3.957,0,0,0-1.4-.908,5.031,5.031,0,0,0-3.461,0,3.941,3.941,0,0,0-1.4.908,4.176,4.176,0,0,0-.931,1.493,5.853,5.853,0,0,0-.336,2.067,5.716,5.716,0,0,0,.341,2.063,4.231,4.231,0,0,0,.935,1.488,3.791,3.791,0,0,0,1.4.9,4.851,4.851,0,0,0,1.739.307,4.749,4.749,0,0,0,1.721-.307,3.827,3.827,0,0,0,1.388-.9,4.193,4.193,0,0,0,.93-1.488,5.83,5.83,0,0,0,.336-2.063" transform="translate(100 -48)"/>
    <path id="パス_8540" data-name="パス 8540" d="M323.4,638.038a6.816,6.816,0,0,1-.416,2.422,5.365,5.365,0,0,1-3.059,3.149,6.41,6.41,0,0,1-2.446.447,6.633,6.633,0,0,1-2.5-.447,5.281,5.281,0,0,1-1.871-1.248,5.378,5.378,0,0,1-1.174-1.9,6.975,6.975,0,0,1-.407-2.422,6.792,6.792,0,0,1,.421-2.433,5.54,5.54,0,0,1,1.191-1.909,5.442,5.442,0,0,1,1.869-1.246,6.432,6.432,0,0,1,2.459-.447,6.554,6.554,0,0,1,2.49.447A5.218,5.218,0,0,1,323,635.6a6.971,6.971,0,0,1,.407,2.433m-1.545,0a5.851,5.851,0,0,0-.338-2.067,4.2,4.2,0,0,0-.927-1.493,3.979,3.979,0,0,0-1.4-.908,5.033,5.033,0,0,0-3.462,0,3.958,3.958,0,0,0-1.395.908,4.16,4.16,0,0,0-.93,1.493,5.851,5.851,0,0,0-.338,2.067,5.737,5.737,0,0,0,.342,2.063,4.261,4.261,0,0,0,.936,1.488,3.8,3.8,0,0,0,1.4.9,4.855,4.855,0,0,0,1.739.307,4.753,4.753,0,0,0,1.721-.307,3.848,3.848,0,0,0,1.389-.9,4.2,4.2,0,0,0,.927-1.488,5.806,5.806,0,0,0,.338-2.063" transform="translate(100 -48)"/>
    <path id="パス_8541" data-name="パス 8541" d="M133.578,635.295a1.562,1.562,0,0,0,.207.843,1.7,1.7,0,0,0,.558.554,3.391,3.391,0,0,0,.814.355c.31.1.631.181.967.262.45.111.894.232,1.328.362a4.187,4.187,0,0,1,1.166.554,2.685,2.685,0,0,1,.827.913,2.99,2.99,0,0,1,.316,1.455,3.333,3.333,0,0,1-.342,1.557,2.972,2.972,0,0,1-.948,1.074,4.224,4.224,0,0,1-1.429.627,7.511,7.511,0,0,1-1.806.205,7.737,7.737,0,0,1-.925-.057q-.473-.057-.9-.152a6.342,6.342,0,0,1-.776-.217,3.031,3.031,0,0,1-.548-.242v-1.294a5.505,5.505,0,0,0,.7.287c.262.085.53.158.807.22s.559.11.843.142a6.377,6.377,0,0,0,.8.055,6.034,6.034,0,0,0,1.16-.107,3.062,3.062,0,0,0,.967-.346,1.814,1.814,0,0,0,.661-.664,2.09,2.09,0,0,0,.243-1.055,1.6,1.6,0,0,0-.213-.86,1.725,1.725,0,0,0-.569-.558,3.386,3.386,0,0,0-.82-.364c-.31-.091-.635-.181-.977-.259-.452-.105-.893-.224-1.324-.352a4.11,4.11,0,0,1-1.155-.542,2.606,2.606,0,0,1-.816-.894,2.824,2.824,0,0,1-.309-1.4,3.332,3.332,0,0,1,.325-1.522,2.984,2.984,0,0,1,.876-1.055,3.778,3.778,0,0,1,1.274-.618,5.732,5.732,0,0,1,1.537-.2,7.994,7.994,0,0,1,3.2.642v1.315a9.987,9.987,0,0,0-1.488-.5,7.028,7.028,0,0,0-1.646-.2,4.081,4.081,0,0,0-1.145.143,2.248,2.248,0,0,0-.808.408,1.613,1.613,0,0,0-.478.644,2.182,2.182,0,0,0-.156.837" transform="translate(100 -48)"/>
    <path id="パス_8542" data-name="パス 8542" d="M143.66,643.989h-1.434V632.221h3.261a9.873,9.873,0,0,1,1.348.087,5.577,5.577,0,0,1,1.138.275,3.231,3.231,0,0,1,1.6,1.13,3.073,3.073,0,0,1,.544,1.849,3.389,3.389,0,0,1-.356,1.58,3.067,3.067,0,0,1-1.032,1.138,5.049,5.049,0,0,1-1.647.695,9.535,9.535,0,0,1-2.2.23c-.391,0-.8-.019-1.221-.052Zm0-6.146c.194.022.4.041.608.053s.409.016.6.016a8.385,8.385,0,0,0,1.724-.156,3.4,3.4,0,0,0,1.162-.465,1.808,1.808,0,0,0,.649-.738,2.3,2.3,0,0,0,.2-.991,1.826,1.826,0,0,0-.329-1.125,2.01,2.01,0,0,0-.937-.667,3.647,3.647,0,0,0-.871-.2,10.066,10.066,0,0,0-1.145-.057H143.66Z" transform="translate(100 -48)"/>
    <path id="パス_8543" data-name="パス 8543" d="M216.227,643.837h-1.415V633.5h-3.883v-1.28h9.179v1.28h-3.881Z" transform="translate(100 -48)"/>
    <path id="パス_8544" data-name="パス 8544" d="M223.8,637.247h6.086v-5.026H231.3v11.617h-1.415v-5.313H223.8v5.313h-1.416V632.221H223.8Z" transform="translate(100 -48)"/>
    <path id="パス_8545" data-name="パス 8545" d="M233.438,643.833l4.731-10.5.569-1.236.655,1.236,4.733,10.5h-1.537l-1.387-3.161h-4.859l-1.386,3.161Zm5.33-8.868q-.775,1.962-1.486,3.563l-.434.989H240.7l-.44-.989q-.716-1.629-1.456-3.563Z" transform="translate(100 -48)"/>
    <path id="パス_8546" data-name="パス 8546" d="M260.317,643.833l4.731-10.5.569-1.236.655,1.236,4.732,10.5h-1.537l-1.387-3.161h-4.858l-1.387,3.161Zm5.329-8.868q-.774,1.962-1.484,3.563l-.436.989h3.851l-.44-.989q-.714-1.629-1.456-3.563Z" transform="translate(100 -48)"/>
    <rect id="長方形_984" data-name="長方形 984" width="1.42" height="11.618" transform="translate(346.616 584.22)"/>
    <path id="パス_8547" data-name="パス 8547" d="M253.113,632.22v10.342h5.668v1.276H251.7V632.22Z" transform="translate(100 -48)"/>
    <path id="パス_8548" data-name="パス 8548" d="M278.571,638.7c.711,1.025,1.418,2.077,2.11,3.163h.052c-.074-1.133-.111-2.284-.111-3.46V632.22h1.423v11.618H280.63l-4.559-6.478c-.787-1.128-1.49-2.178-2.11-3.16h-.052q.113,1.59.114,3.708v5.93h-1.417V632.22h1.407Z" transform="translate(100 -48)"/>
    <path id="パス_8549" data-name="パス 8549" d="M294.4,637.979a6.973,6.973,0,0,1-.254,1.906,5.2,5.2,0,0,1-.758,1.614,5.063,5.063,0,0,1-1.269,1.236,5.936,5.936,0,0,1-1.776.808,6.879,6.879,0,0,1-1.258.23c-.451.044-.941.065-1.467.065h-2.631V632.22h2.656c.527,0,1.015.024,1.467.068a6.9,6.9,0,0,1,1.26.227,6.231,6.231,0,0,1,1.776.8,4.9,4.9,0,0,1,1.258,1.212,5.059,5.059,0,0,1,.746,1.569,6.877,6.877,0,0,1,.25,1.885m-1.408,0a4.586,4.586,0,0,0-.741-2.719,3.941,3.941,0,0,0-2.118-1.476,5.722,5.722,0,0,0-1.18-.226q-.651-.06-1.47-.059H286.4v9.062h1.082c.546,0,1.036-.018,1.47-.059a5.726,5.726,0,0,0,1.18-.226,3.845,3.845,0,0,0,2.118-1.519,4.833,4.833,0,0,0,.741-2.778" transform="translate(100 -48)"/>
    <path id="パス_8550" data-name="パス 8550" d="M307.7,633.263a5.4,5.4,0,0,0-1.826.307,4.087,4.087,0,0,0-1.47.92,4.346,4.346,0,0,0-.986,1.521,5.73,5.73,0,0,0-.359,2.115,5.915,5.915,0,0,0,.332,2.079,3.713,3.713,0,0,0,2.434,2.314,6.3,6.3,0,0,0,1.927.279c.192,0,.4-.012.615-.032s.434-.048.656-.086.431-.081.64-.131a4.694,4.694,0,0,0,.559-.162v1.251a5.594,5.594,0,0,1-1.19.309,8.7,8.7,0,0,1-1.388.109,7.509,7.509,0,0,1-2.571-.4,5.067,5.067,0,0,1-1.881-1.16,4.864,4.864,0,0,1-1.149-1.844,7.852,7.852,0,0,1,.021-4.963,5.493,5.493,0,0,1,1.19-1.953,5.408,5.408,0,0,1,1.884-1.272,6.459,6.459,0,0,1,2.488-.457c.242,0,.483.012.721.029s.464.052.681.09.418.081.605.134a3.623,3.623,0,0,1,.477.166v1.25a8.549,8.549,0,0,0-1.153-.292,6.558,6.558,0,0,0-1.257-.117" transform="translate(100 -48)"/>
    <path id="パス_8551" data-name="パス 8551" d="M334.716,632.22v10.342h5.67v1.276H333.3V632.22Z" transform="translate(100 -48)"/>
    <path id="パス_8552" data-name="パス 8552" d="M344.91,643.837H343.5V633.5h-3.883v-1.28h9.178v1.28H344.91Z" transform="translate(100 -48)"/>
    <path id="パス_8553" data-name="パス 8553" d="M360.028,637.979a7.053,7.053,0,0,1-.251,1.906,5.163,5.163,0,0,1-.762,1.614,5.028,5.028,0,0,1-1.265,1.236,5.97,5.97,0,0,1-1.778.808,6.91,6.91,0,0,1-1.258.23c-.45.044-.941.065-1.466.065h-2.632V632.22h2.656c.529,0,1.017.024,1.468.068a6.916,6.916,0,0,1,1.26.227,6.2,6.2,0,0,1,1.773.8,4.89,4.89,0,0,1,1.26,1.212,5.062,5.062,0,0,1,.747,1.569,6.877,6.877,0,0,1,.248,1.885m-1.407,0a4.607,4.607,0,0,0-.737-2.719,3.967,3.967,0,0,0-2.122-1.476,5.737,5.737,0,0,0-1.179-.226c-.434-.04-.925-.059-1.47-.059h-1.082v9.062h1.082c.545,0,1.036-.018,1.47-.059a5.742,5.742,0,0,0,1.179-.226,3.868,3.868,0,0,0,2.122-1.519,4.856,4.856,0,0,0,.737-2.778" transform="translate(100 -48)"/>
    <path id="パス_8554" data-name="パス 8554" d="M209.178,631.191a16.836,16.836,0,0,0-1.481,2.253,10.832,10.832,0,0,0,0,9.438,16.77,16.77,0,0,0,1.481,2.253l-.222.22a7.782,7.782,0,0,1-1.839-2,9.229,9.229,0,0,1-1.6-5.171,9.325,9.325,0,0,1,3.438-7.218Z" transform="translate(100 -48)"/>
    <path id="パス_8555" data-name="パス 8555" d="M295.364,645.135c1.955-2.609,2.562-4.265,2.562-6.963s-.607-4.372-2.562-6.981l.222-.223a9.192,9.192,0,0,1,3.438,7.172,9.317,9.317,0,0,1-3.438,7.214Z" transform="translate(100 -48)"/>
    <path id="パス_8556" data-name="パス 8556" d="M327.124,642.851a1.254,1.254,0,1,1-1.244-1.246,1.217,1.217,0,0,1,1.244,1.246" transform="translate(100 -48)"/>
    <path id="パス_8557" data-name="パス 8557" d="M363.5,642.851a1.254,1.254,0,1,1-1.244-1.246,1.216,1.216,0,0,1,1.244,1.246" transform="translate(100 -48)"/>
    <path id="パス_8558" data-name="パス 8558" d="M328.5,645.926c.942-.552,1.37-1.084,1.37-1.725,0-.214-.072-.283-.339-.356-.764-.176-1.049-.481-1.049-1.068a1.143,1.143,0,0,1,1.19-1.172c.838,0,1.372.638,1.372,1.637a3.46,3.46,0,0,1-.766,2.081,3.845,3.845,0,0,1-1.422,1.045Z" transform="translate(100 -48)"/>
    <path id="パス_8559" data-name="パス 8559" d="M156.568,632.225v10.342h5.67v1.276h-7.084V632.225Z" transform="translate(100 -48)"/>
    <path id="パス_8560" data-name="パス 8560" d="M197.72,632.222v10.341h5.669v1.277H196.3V632.222Z" transform="translate(100 -48)"/>
    <path id="パス_8561" data-name="パス 8561" d="M163.771,644.02l4.731-10.5.568-1.236.657,1.236,4.731,10.5h-1.537l-1.387-3.163h-4.858l-1.387,3.163Zm5.33-8.87q-.775,1.962-1.486,3.565l-.434.989h3.851l-.439-.989q-.717-1.632-1.457-3.565Z" transform="translate(100 -48)"/>
    <path id="パス_8562" data-name="パス 8562" d="M192.42,638.39h-4.473v4.19h5.792v1.258H186.5v-11.62h6.958v1.259h-5.515v3.673h4.473Z" transform="translate(100 -48)"/>
    <path id="パス_8563" data-name="パス 8563" d="M176.061,643.995V632.23H179.1a5.772,5.772,0,0,1,3.539.842,2.345,2.345,0,0,1,1.071,2.043,2.81,2.81,0,0,1-2.181,2.543v.033a3.1,3.1,0,0,1,2.659,2.9,2.975,2.975,0,0,1-1.09,2.318c-.9.742-2.354,1.084-4.459,1.084Zm1.47-6.783h1.188c1.759,0,3.65-.825,3.65-1.942,0-1.355-1.487-1.759-3.171-1.759-.764,0-1.125-.005-1.667-.005Zm0,5.549c.52.05,1,.065,1.591.065,1.722,0,3.585-.567,3.585-2.251,0-1.578-2.3-2.229-4.121-2.229h-1.055Z" transform="translate(100 -48)"/>
  </g>
</svg>
