<svg xmlns="http://www.w3.org/2000/svg" xmlns:xlink="http://www.w3.org/1999/xlink" width="308.4" height="84.108" viewBox="0 0 308.4 84.108">
  <defs>
    <clipPath id="clip-path">
      <path id="長方形_993" data-name="長方形 993" d="M7.178,0H300.223A7.177,7.177,0,0,1,307.4,7.177V75.93a7.178,7.178,0,0,1-7.178,7.178H7.178A7.178,7.178,0,0,1,0,75.93V7.178A7.178,7.178,0,0,1,7.178,0Z" transform="translate(64.3 493.112)" fill="#fff"/>
    </clipPath>
  </defs>
  <g id="グループ_3926" data-name="グループ 3926" transform="translate(-163.8 -444.613)">
    <g id="グループ_3896" data-name="グループ 3896" transform="translate(100 -48)">
      <g id="グループ_3895" data-name="グループ 3895" clip-path="url(#clip-path)">
        <rect id="長方形_992" data-name="長方形 992" width="307.4" height="83.108" transform="translate(64.3 493.112)" fill="#fff"/>
      </g>
    </g>
    <rect id="長方形_994" data-name="長方形 994" width="307.4" height="83.108" rx="7.178" transform="translate(164.3 445.113)" fill="#fff" stroke="#b2b2b3" stroke-miterlimit="10" stroke-width="1"/>
    <path id="パス_8639" data-name="パス 8639" d="M118.63,539.854h-1.561V527.349h1.792c3.848,0,5.043,1.331,5.043,3.614,0,2.639-2.007,3.651-4.38,3.651h-.894Zm0-6.632h.5c1.591,0,3.314-.3,3.314-2.288,0-1.956-1.856-2.189-3.4-2.189h-.415Z" transform="translate(100 -48)"/>
    <path id="パス_8640" data-name="パス 8640" d="M126.707,533.353h.047a2.235,2.235,0,0,1,2.125-1.493,2.357,2.357,0,0,1,1.227.38l-.68,1.364a1.3,1.3,0,0,0-.912-.318c-1.611,0-1.807,1.5-1.807,2.755v3.813h-1.5V532.1h1.5Z" transform="translate(100 -48)"/>
    <path id="パス_8641" data-name="パス 8641" d="M133.043,528.544a1.03,1.03,0,0,1-2.06,0,1.03,1.03,0,1,1,2.06,0m-.285,11.308h-1.493v-7.759h1.493Z" transform="translate(100 -48)"/>
    <path id="パス_8642" data-name="パス 8642" d="M136.258,533.072h.032a2.538,2.538,0,0,1,2.057-1.211,2.48,2.48,0,0,1,2.238,1.377,2.8,2.8,0,0,1,2.388-1.377c2.042,0,2.574,1.591,2.574,3.351v4.64h-1.494v-4.391c0-1-.132-2.271-1.444-2.271-1.593,0-1.708,1.655-1.708,2.85v3.812h-1.492v-4.11c0-1.013-.051-2.552-1.427-2.552-1.594,0-1.724,1.64-1.724,2.85v3.812h-1.493v-7.759h1.493Z" transform="translate(100 -48)"/>
    <path id="パス_8643" data-name="パス 8643" d="M154.818,539.853h-1.494v-1.211h-.035a3.174,3.174,0,0,1-2.634,1.478c-2.372,0-3.718-1.97-3.718-4.2a3.808,3.808,0,0,1,3.664-4.064,3.176,3.176,0,0,1,2.688,1.528h.035v-1.295h1.494Zm-1.413-3.88a2.5,2.5,0,1,0-4.974,0,2.507,2.507,0,1,0,4.974,0" transform="translate(100 -48)"/>
    <path id="パス_8644" data-name="パス 8644" d="M158.015,533.353h.052a2.232,2.232,0,0,1,2.123-1.493,2.365,2.365,0,0,1,1.227.38l-.681,1.364a1.3,1.3,0,0,0-.911-.318c-1.609,0-1.81,1.5-1.81,2.755v3.813h-1.491V532.1h1.491Z" transform="translate(100 -48)"/>
    <path id="パス_8645" data-name="パス 8645" d="M163.837,535.01l2.918-2.914h1.973l-3.314,3.215,3.648,4.542h-1.941l-2.77-3.53-.514.514v3.016h-1.492V525.459h1.492Z" transform="translate(100 -48)"/>
    <path id="パス_8646" data-name="パス 8646" d="M176.64,536.719l-1.425,3.134h-1.676l5.968-13.035,5.971,13.035H183.8l-1.427-3.134Zm2.867-6.482-2.219,5.058h4.442Z" transform="translate(100 -48)"/>
    <path id="パス_8647" data-name="パス 8647" d="M187.8,533.072h.035a2.531,2.531,0,0,1,2.056-1.211,2.482,2.482,0,0,1,2.238,1.377,2.8,2.8,0,0,1,2.39-1.377c2.038,0,2.568,1.591,2.568,3.351v4.64H195.6v-4.391c0-1-.134-2.271-1.443-2.271-1.591,0-1.71,1.655-1.71,2.85v3.812h-1.491v-4.11c0-1.013-.05-2.552-1.427-2.552-1.589,0-1.725,1.64-1.725,2.85v3.812h-1.491v-7.759H187.8Z" transform="translate(100 -48)"/>
    <path id="パス_8648" data-name="パス 8648" d="M199.642,536.222a2.447,2.447,0,0,0,2.339,2.575,2.542,2.542,0,0,0,2.322-1.516l1.258.716a4.037,4.037,0,0,1-3.6,2.123,3.771,3.771,0,0,1-3.813-4.078c0-2.39,1.276-4.181,3.779-4.181,2.469,0,3.632,1.824,3.632,4.132v.229Zm4.427-1.125a2.092,2.092,0,0,0-2.14-1.943,2.22,2.22,0,0,0-2.205,1.943Z" transform="translate(100 -48)"/>
    <path id="パス_8649" data-name="パス 8649" d="M208.431,533.353h.051a2.234,2.234,0,0,1,2.12-1.493,2.37,2.37,0,0,1,1.23.38l-.679,1.364a1.311,1.311,0,0,0-.915-.318c-1.607,0-1.807,1.5-1.807,2.755v3.813h-1.494V532.1h1.494Z" transform="translate(100 -48)"/>
    <path id="パス_8650" data-name="パス 8650" d="M214.766,528.544a1.029,1.029,0,0,1-2.057,0,1.029,1.029,0,1,1,2.057,0m-.281,11.308H212.99v-7.759h1.495Z" transform="translate(100 -48)"/>
    <path id="パス_8651" data-name="パス 8651" d="M222.245,534.3a2.831,2.831,0,0,0-2.221-1.047,2.68,2.68,0,0,0-2.586,2.718,2.622,2.622,0,0,0,2.686,2.756,2.792,2.792,0,0,0,2.121-1.029v1.907a4.38,4.38,0,0,1-2.14.514,4.131,4.131,0,1,1,.082-8.26,4.186,4.186,0,0,1,2.058.514Z" transform="translate(100 -48)"/>
    <path id="パス_8652" data-name="パス 8652" d="M231.134,539.853h-1.493v-1.211h-.032a3.18,3.18,0,0,1-2.638,1.478c-2.37,0-3.714-1.97-3.714-4.2a3.807,3.807,0,0,1,3.665-4.064,3.185,3.185,0,0,1,2.687,1.528h.032v-1.295h1.493Zm-1.409-3.88a2.546,2.546,0,0,0-2.521-2.784,2.819,2.819,0,1,0,2.521,2.784" transform="translate(100 -48)"/>
    <path id="パス_8653" data-name="パス 8653" d="M247.139,529.74a4.974,4.974,0,0,0-8.244,3.882,4.923,4.923,0,0,0,8.244,3.781v1.836a6.774,6.774,0,0,1-3.286.882,6.476,6.476,0,0,1-6.517-6.452,6.572,6.572,0,0,1,6.651-6.582,6.07,6.07,0,0,1,3.152.843Z" transform="translate(100 -48)"/>
    <path id="パス_8654" data-name="パス 8654" d="M256.425,535.991a4.147,4.147,0,1,1-4.144-4.131,4.081,4.081,0,0,1,4.144,4.131m-6.8,0a2.654,2.654,0,1,0,2.655-2.7,2.692,2.692,0,0,0-2.655,2.7" transform="translate(100 -48)"/>
    <path id="パス_8655" data-name="パス 8655" d="M259.045,533.353h.051a2.234,2.234,0,0,1,2.123-1.493,2.383,2.383,0,0,1,1.228.38l-.681,1.364a1.31,1.31,0,0,0-.914-.318c-1.611,0-1.807,1.5-1.807,2.755v3.813h-1.493V532.1h1.493Z" transform="translate(100 -48)"/>
    <path id="パス_8656" data-name="パス 8656" d="M264.65,533.388h.031a3.19,3.19,0,0,1,2.7-1.528,3.8,3.8,0,0,1,3.649,4.064c0,2.226-1.326,4.2-3.716,4.2a3.212,3.212,0,0,1-2.637-1.478h-.031V544.3h-1.494V532.093h1.494Zm4.892,2.585a2.547,2.547,0,0,0-2.52-2.784,2.819,2.819,0,1,0,2.52,2.784" transform="translate(100 -48)"/>
    <path id="パス_8657" data-name="パス 8657" d="M280.089,535.991a4.146,4.146,0,1,1-4.148-4.131,4.081,4.081,0,0,1,4.148,4.131m-6.8,0a2.653,2.653,0,1,0,2.648-2.7,2.691,2.691,0,0,0-2.648,2.7" transform="translate(100 -48)"/>
    <path id="パス_8658" data-name="パス 8658" d="M282.712,533.353h.047a2.24,2.24,0,0,1,2.126-1.493,2.39,2.39,0,0,1,1.23.38l-.686,1.364a1.294,1.294,0,0,0-.908-.318c-1.61,0-1.809,1.5-1.809,2.755v3.813H281.22V532.1h1.492Z" transform="translate(100 -48)"/>
    <path id="パス_8659" data-name="パス 8659" d="M293.888,539.853H292.4v-1.211h-.034a3.179,3.179,0,0,1-2.636,1.478c-2.374,0-3.715-1.97-3.715-4.2a3.806,3.806,0,0,1,3.666-4.064,3.178,3.178,0,0,1,2.685,1.528h.034v-1.295h1.492Zm-1.409-3.88a2.5,2.5,0,1,0-4.975,0,2.507,2.507,0,1,0,4.975,0" transform="translate(100 -48)"/>
    <path id="パス_8660" data-name="パス 8660" d="M297.536,539.853h-1.5v-6.366h-.806v-1.394h.806v-2.967h1.5v2.967H299v1.394h-1.46Z" transform="translate(100 -48)"/>
    <path id="パス_8661" data-name="パス 8661" d="M301.915,528.544a1.029,1.029,0,0,1-2.057,0,1.029,1.029,0,1,1,2.057,0m-.28,11.308H300.14v-7.759h1.495Z" transform="translate(100 -48)"/>
    <path id="パス_8662" data-name="パス 8662" d="M311.287,535.991a4.148,4.148,0,1,1-4.147-4.131,4.083,4.083,0,0,1,4.147,4.131m-6.8,0a2.653,2.653,0,1,0,2.653-2.7,2.692,2.692,0,0,0-2.653,2.7" transform="translate(100 -48)"/>
    <path id="パス_8663" data-name="パス 8663" d="M313.806,533.139h.032a2.65,2.65,0,0,1,2.339-1.278c2.19,0,2.754,1.477,2.754,3.364v4.628h-1.494v-4.44c0-1.329-.182-2.223-1.707-2.223-1.924,0-1.924,1.685-1.924,3.1v3.563h-1.5v-7.76h1.5Z" transform="translate(100 -48)"/>
  </g>
</svg>
