<svg xmlns="http://www.w3.org/2000/svg" xmlns:xlink="http://www.w3.org/1999/xlink" width="308.4" height="84.108" viewBox="0 0 308.4 84.108">
  <defs>
    <clipPath id="clip-path">
      <path id="長方形_926" data-name="長方形 926" d="M7.178,0H300.221A7.179,7.179,0,0,1,307.4,7.179V75.931a7.178,7.178,0,0,1-7.178,7.178H7.178A7.178,7.178,0,0,1,0,75.931V7.178A7.178,7.178,0,0,1,7.178,0Z" transform="translate(714.918 288.815)" fill="#fff"/>
    </clipPath>
  </defs>
  <g id="グループ_3920" data-name="グループ 3920" transform="translate(-814.417 -240.314)">
    <g id="グループ_3824" data-name="グループ 3824" transform="translate(100 -48)">
      <g id="グループ_3823" data-name="グループ 3823" clip-path="url(#clip-path)">
        <rect id="長方形_925" data-name="長方形 925" width="307.4" height="83.109" transform="translate(714.918 288.815)" fill="#fff"/>
      </g>
    </g>
    <rect id="長方形_927" data-name="長方形 927" width="307.4" height="83.108" rx="7.178" transform="translate(814.917 240.814)" fill="#fff" stroke="#b2b2b3" stroke-miterlimit="10" stroke-width="1"/>
    <path id="パス_8375" data-name="パス 8375" d="M784.467,322.982a4.868,4.868,0,0,1,6.028.873c2.017,1.9,2.337,1.378,2.337,1.378s-1.768,3.542-4.928.916c-1.636-1.357-2.749-1.865-4.485-1.373-1.358.384-.512-.986,1.048-1.794" transform="translate(100 -48)" fill="#0568af"/>
    <path id="パス_8376" data-name="パス 8376" d="M780.366,326.925a8.289,8.289,0,0,1,9.608,1.831c2.673,2.573,4.557,2.192,4.557,2.192s-2.221,7.154-7.744,1.208c-2.612-2.818-5.555-3.423-7.842-2.916-1.912.422-.665-1.237,1.421-2.315" transform="translate(100 -48)" fill="#0aa5e9"/>
    <path id="パス_8377" data-name="パス 8377" d="M773.814,330.849a6.917,6.917,0,0,1,8.219.93c2.57,2.428,4.139,1.869,4.139,1.869s-1.647,6.507-7.2,2.192c-2.066-1.611-4.677-2.693-6.741-2.492-1.774.176-.4-1.473,1.584-2.5" transform="translate(100 -48)" fill="#0568af"/>
    <path id="パス_8378" data-name="パス 8378" d="M805.312,323.68c-3.205,0-5.807,2.367-5.807,6.535s2.6,6.536,5.807,6.536,5.806-2.364,5.806-6.536-2.6-6.535-5.806-6.535m0,11.079c-2.011,0-3.644-1.644-3.644-4.544s1.633-4.541,3.644-4.541,3.641,1.643,3.641,4.541-1.631,4.544-3.641,4.544" transform="translate(100 -48)"/>
    <path id="パス_8379" data-name="パス 8379" d="M812.346,327.281c0-2.592,2.181-3.6,4.75-3.6,3.213,0,4.382,1.674,4.682,2.226s.3,1.169-.3,1.467c-.641.321-1.193.251-1.513-.321-.38-.677-1.056-1.493-3.144-1.493-1.009,0-2.318.506-2.318,1.585s.857,1.4,1.859,1.585a22.936,22.936,0,0,1,4.016.914,3.172,3.172,0,0,1,1.927,3.145c0,2.019-1.376,3.97-4.979,3.97-4.636,0-5.185-2.658-5.484-3.6-.161-.5.09-1.052.94-1.171a1.02,1.02,0,0,1,1.285.691,2.838,2.838,0,0,0,3.1,2.157c2.57,0,2.983-1.218,2.983-1.974a1.771,1.771,0,0,0-1.6-1.743,28.372,28.372,0,0,1-4.248-.9,3.033,3.033,0,0,1-1.95-2.938" transform="translate(100 -48)"/>
    <path id="パス_8380" data-name="パス 8380" d="M823.521,325.2V335.91c0,.586.479.853,1.066.853s1.068-.267,1.068-.853v-4.878h5.439c2.592,0,3.532-1.654,3.532-3.673s-1.036-3.674-3.532-3.674H825.12a1.4,1.4,0,0,0-1.6,1.513m2.775.395h4.438c1.2,0,1.7.606,1.7,1.766,0,1.121-.452,1.768-1.7,1.768h-5.079v-2.952c0-.47.243-.582.641-.582" transform="translate(100 -48)"/>
    <path id="パス_8381" data-name="パス 8381" d="M913.334,329.084H902.35a1,1,0,0,0,0,1.982h10.984a1,1,0,0,0,0-1.982" transform="translate(100 -48)"/>
    <path id="パス_8382" data-name="パス 8382" d="M845.2,323.412a.595.595,0,1,0-1.076.508l.363.778a1.718,1.718,0,0,0-.952-.283h-7.391a.824.824,0,0,0-.7.352,1.3,1.3,0,0,0-.249.782,1.354,1.354,0,0,0,.236.813.821.821,0,0,0,.709.389h6.511c.24,0,.4.051.47.158a1.449,1.449,0,0,1,.074.6v5.96c0,.391-.071.543-.134.6s-.188.11-.539.11h-6.45c-.664,0-1,.418-1,1.232a1.164,1.164,0,0,0,.266.767.885.885,0,0,0,.736.351h7.473a1.687,1.687,0,0,0,1.294-.571,2.149,2.149,0,0,0,.518-1.473V326.5c0-.075-.009-.145-.015-.214a.587.587,0,0,0,.569.044.6.6,0,0,0,.284-.793Z" transform="translate(100 -48)"/>
    <path id="パス_8383" data-name="パス 8383" d="M847.762,324.989l-.027-.057v0l-.97-2.067a.6.6,0,1,0-1.078.509l1,2.128a.6.6,0,1,0,1.076-.509" transform="translate(100 -48)"/>
    <path id="パス_8384" data-name="パス 8384" d="M859.791,329.084H848.807a1,1,0,0,0,0,1.982h10.984a1,1,0,0,0,0-1.982" transform="translate(100 -48)"/>
    <path id="パス_8385" data-name="パス 8385" d="M864.747,324.3v3.328a13.178,13.178,0,0,1-.621,4.663,4.951,4.951,0,0,1-1.888,2.011,1.053,1.053,0,0,0-.421.866.929.929,0,0,0,.178.651,1.235,1.235,0,0,0,.962.429,1.663,1.663,0,0,0,.8-.385,6.474,6.474,0,0,0,2.207-2.678,15.056,15.056,0,0,0,.778-5.446v-3.423a.993.993,0,0,0-1-1.068.978.978,0,0,0-.99,1.052" transform="translate(100 -48)"/>
    <path id="パス_8386" data-name="パス 8386" d="M868.328,324.193h0l-.056,10.522c0,1.738,1.1,1.924,1.579,1.924l.757-.107a7.958,7.958,0,0,0,4.936-4.776c0-.006.077-.419.077-.419a1.022,1.022,0,0,0-.536-.93c0,.01-.481-.138-.481-.138a.88.88,0,0,0-.821.607,6.535,6.535,0,0,1-3.362,3.434s-.088.027-.152.045v-.019l.055-10.14a.988.988,0,0,0-1-1.037.959.959,0,0,0-.991,1.035" transform="translate(100 -48)"/>
    <path id="パス_8387" data-name="パス 8387" d="M887.271,330.6a23.981,23.981,0,0,0-3.312-1.346c-1.573-.573-3.183-1.083-3.977-1.326v-3.47a1,1,0,0,0-1.073-.892.984.984,0,0,0-1.06.892v11.453a.983.983,0,0,0,1.06.89,1,1,0,0,0,1.073-.89v-5.893c.934.271,2.014.658,3.025,1.034,1.214.452,2.722,1.13,3.31,1.427a1.055,1.055,0,0,0,.954-1.879" transform="translate(100 -48)"/>
    <path id="パス_8388" data-name="パス 8388" d="M884.938,326.064a.6.6,0,1,0,1.077-.508l-1-2.128a.6.6,0,1,0-1.077.508Z" transform="translate(100 -48)"/>
    <path id="パス_8389" data-name="パス 8389" d="M886.631,322.861a.6.6,0,1,0-1.077.509l1,2.128a.6.6,0,1,0,1.076-.509Z" transform="translate(100 -48)"/>
    <path id="パス_8390" data-name="パス 8390" d="M890.4,325.9a31.276,31.276,0,0,1,3.043,1.08c.614.25,1.15.16,1.4-.5a.877.877,0,0,0-.356-1.22,14.2,14.2,0,0,0-3.416-1.239c-.724-.13-1.106.081-1.256.691-.158.655.083,1.041.585,1.184m2.28,5.019c.619.233,1.153.134,1.387-.527a.877.877,0,0,0-.383-1.213,14.241,14.241,0,0,0-3.444-1.159c-.727-.113-1.1.107-1.239.719-.145.659.108,1.041.611,1.174a30.977,30.977,0,0,1,3.068,1.006m7.021-4.948a.993.993,0,0,0-1.265.745,9.611,9.611,0,0,1-2.373,4.936,9.1,9.1,0,0,1-5.743,2.522c-.78.088-1.208.453-1.141,1.221.077.891.716,1.062,1.644.956a10.828,10.828,0,0,0,6.9-3.425,12.28,12.28,0,0,0,2.709-5.68.94.94,0,0,0-.733-1.275" transform="translate(100 -48)"/>
    <path id="パス_8391" data-name="パス 8391" d="M956.222,327.657h-2.507a.964.964,0,0,1,0-1.911h1.467v-1.378a.9.9,0,0,1,1.786,0v1.378h.941a.806.806,0,0,1,.8.692.771.771,0,0,1,.6-.268h1.361v-1.784a.93.93,0,0,1,1.841,0v1.784h1.764a.965.965,0,0,1,0,1.912h-1.764v6.689h2.471a.963.963,0,0,1,0,1.91h-7.052a.963.963,0,0,1,0-1.91h2.74v-6.689h-1.361a.785.785,0,0,1-.763-.552,10.581,10.581,0,0,1-1.183,2.162c-.046.064-.094.131-.14.2l2.108,1.792a.864.864,0,0,1,.064,1.236.851.851,0,0,1-1.222.123l-1.353-1.15v4.44a.9.9,0,0,1-1.785,0v-3.708a6.535,6.535,0,0,1-.593.589c-.637.53-1.1.459-1.451.034a.966.966,0,0,1,.106-1.379,24.168,24.168,0,0,0,2.087-2.2,10.072,10.072,0,0,0,1.194-1.775c.075-.161.039-.241-.161-.241" transform="translate(100 -48)"/>
    <path id="パス_8392" data-name="パス 8392" d="M939.114,331.757a.748.748,0,0,0-.878.823c-.028.787-.129,1.568-.292,1.568-.317,0-.725-1.4-1.22-3.769-.2-.949-.35-1.944-.46-2.861H938.9a.964.964,0,0,0,0-1.911h-.123s.007,0,.008-.008a.836.836,0,0,0-.128-1.193,4.9,4.9,0,0,0-.871-.691.971.971,0,0,0-1.233.1.731.731,0,0,0,.145,1.177l.747.618h-1.373c-.046-.525-.067-.958-.081-1.242a.825.825,0,0,0-.92-.8.835.835,0,0,0-.87.868c0,.337.021.738.058,1.174H928.6a.965.965,0,0,0,0,1.911h5.881c.153,1.127.358,2.338.574,3.444a18.356,18.356,0,0,0,1.435,4.566c.637,1.169.976,1.381,1.611,1.381s1.07-.531,1.379-1.453a12.52,12.52,0,0,0,.422-2.689.827.827,0,0,0-.784-1.01m-5.627,1.515c-.419.165-.825.317-1.233.46v-3.2h1.361a.936.936,0,0,0,0-1.855h-4.807a.937.937,0,0,0,0,1.855h1.714v3.718c-.54.134-1.13.259-1.818.374-.651.108-.9.585-.8,1.291.117.8.582.9,1.465.753a19.528,19.528,0,0,0,4.7-1.514c.717-.379,1.012-.743.9-1.46-.085-.574-.6-.774-1.487-.424" transform="translate(100 -48)"/>
    <path id="パス_8393" data-name="パス 8393" d="M949.812,332.409a1,1,0,0,0-1.327-.08.776.776,0,0,0-.082,1.141c.158.183.33.4.513.633-.844.116-1.964.259-2.982.333-.44.03-.9.058-1.331.081l1.248-2.625h5.658a.916.916,0,0,0,0-1.815H941.415a.916.916,0,0,0,0,1.815h2.424l-1.295,2.724c-.38.017-.686.033-.89.049-.5.038-.886.282-.885,1.039a.827.827,0,0,0,.952.907c.886-.016,2.8-.142,4.635-.354,1.527-.175,2.993-.392,3.737-.517.161.235.315.469.458.694a.961.961,0,0,0,1.463.381.927.927,0,0,0,.2-1.336,19.948,19.948,0,0,0-2.4-3.07m2.114-5.258a22.576,22.576,0,0,1-3.348-2.069c-1.033-.743-1.409-1.487-2.149-1.487s-1.13.744-2.165,1.487a22.844,22.844,0,0,1-3.345,2.069.968.968,0,0,0-.488,1.427c.286.6.7.834,1.7.247.212-.126.425-.261.641-.4a.806.806,0,0,0,.79.863h5.663a.815.815,0,0,0,.793-.893c.232.149.461.294.691.428.993.587,1.416.354,1.7-.247a.969.969,0,0,0-.484-1.427m-7.768.323c.852-.622,1.64-1.265,2.266-1.827a29.042,29.042,0,0,0,2.26,1.827Z" transform="translate(100 -48)"/>
    <path id="パス_8394" data-name="パス 8394" d="M927.081,334.7c-.319-.512-.893-1.349-1.432-2.23a24.943,24.943,0,0,1-1.225-2.365h1.718a.916.916,0,0,0,0-1.815h-2.281v-1.193h2.144a.916.916,0,0,0,0-1.815h-2.144v-1.241a.815.815,0,0,0-1.613,0v1.241h-.732a5.641,5.641,0,0,0,.131-.843.739.739,0,0,0-.7-.807c-.441-.061-.8.062-.9.581a11.15,11.15,0,0,1-.289,1.233,5.486,5.486,0,0,1-.271.644.727.727,0,0,0-.64-.349H918.2v-1.7a.812.812,0,0,0-1.609,0v1.7h-1.072a.916.916,0,0,0,0,1.815h1.007a16.765,16.765,0,0,1-.6,2.156,15.893,15.893,0,0,1-.9,2.034,1.4,1.4,0,0,0-.062,1.477c.361.577.925.232,1.3-.415a5.2,5.2,0,0,0,.329-.754V336.2a.813.813,0,0,0,1.609,0V331.25c.019.046.039.089.056.123.262.611.808.929,1.26.572a.969.969,0,0,0,.169-1.354c-.4-.729-.944-1.886-1.485-3.005v-.034h.655a.835.835,0,0,0,.237-.037.868.868,0,0,0,.233.334c.334.3.874.424,1.4-.388a3.765,3.765,0,0,0,.2-.368h1.333v1.193h-2.2a.916.916,0,0,0,0,1.815h1.541c-.287.618-.785,1.644-1.224,2.365-.539.881-1.118,1.718-1.434,2.23a.9.9,0,0,0,.034,1.221.73.73,0,0,0,1.207-.07c.3-.4.914-1.42,1.468-2.371a12.479,12.479,0,0,0,.608-1.239V336.2a.815.815,0,0,0,1.613,0v-3.745a10.283,10.283,0,0,0,.516,1.02c.551.951,1.158,1.974,1.467,2.371a.725.725,0,0,0,1.2.07.9.9,0,0,0,.035-1.221" transform="translate(100 -48)"/>
  </g>
</svg>
