<svg xmlns="http://www.w3.org/2000/svg" xmlns:xlink="http://www.w3.org/1999/xlink" width="308.4" height="84.108" viewBox="0 0 308.4 84.108">
  <defs>
    <clipPath id="clip-path">
      <path id="長方形_934" data-name="長方形 934" d="M7.177,0H300.221A7.178,7.178,0,0,1,307.4,7.178V75.929a7.179,7.179,0,0,1-7.179,7.179H7.178A7.178,7.178,0,0,1,0,75.93V7.177A7.177,7.177,0,0,1,7.177,0Z" transform="translate(64.796 288.815)" fill="#fff"/>
    </clipPath>
  </defs>
  <g id="グループ_3922" data-name="グループ 3922" transform="translate(-164.295 -240.314)">
    <g id="グループ_3832" data-name="グループ 3832" transform="translate(100 -48)">
      <g id="グループ_3831" data-name="グループ 3831" clip-path="url(#clip-path)">
        <rect id="長方形_933" data-name="長方形 933" width="307.399" height="83.108" transform="translate(64.796 288.815)" fill="#fff"/>
      </g>
    </g>
    <rect id="長方形_935" data-name="長方形 935" width="307.4" height="83.108" rx="7.178" transform="translate(164.795 240.814)" fill="#fff" stroke="#b2b2b3" stroke-miterlimit="10" stroke-width="1"/>
    <path id="パス_8417" data-name="パス 8417" d="M145.716,331.925a6.315,6.315,0,1,1-6.316-6.316,6.315,6.315,0,0,1,6.316,6.316" transform="translate(100 -48)" fill="#0568af"/>
    <path id="パス_8418" data-name="パス 8418" d="M139.4,322.961a33.7,33.7,0,0,1,5.059,1.482,18.974,18.974,0,0,1,4.03,2.088,22.683,22.683,0,0,0-9.089-8.7,22.681,22.681,0,0,0-9.088,8.7,18.943,18.943,0,0,1,4.029-2.088,33.667,33.667,0,0,1,5.059-1.482" transform="translate(100 -48)" fill="#0aa5e9"/>
    <path id="パス_8419" data-name="パス 8419" d="M148.489,326.531a18.569,18.569,0,0,1-.193,4.505,32.881,32.881,0,0,1-1.234,5.087,33.421,33.421,0,0,1-3.825,3.6,18.877,18.877,0,0,1-3.837,2.418,22.926,22.926,0,0,0,12.141-3.457,22.462,22.462,0,0,0-3.052-12.156" transform="translate(100 -48)" fill="#0aa5e9"/>
    <path id="パス_8420" data-name="パス 8420" d="M131.737,336.124a33.116,33.116,0,0,1-1.236-5.087,18.67,18.67,0,0,1-.19-4.5,22.431,22.431,0,0,0-3.052,12.156,22.924,22.924,0,0,0,12.14,3.457,18.942,18.942,0,0,1-3.838-2.418,33.411,33.411,0,0,1-3.824-3.6" transform="translate(100 -48)" fill="#0aa5e9"/>
    <path id="パス_8421" data-name="パス 8421" d="M256.777,329.076H245.8a1,1,0,0,0,0,1.981h10.98a1,1,0,0,0,0-1.981" transform="translate(100 -48)"/>
    <path id="パス_8422" data-name="パス 8422" d="M203.308,323.948H193.46c-.7,0-1.048.373-1.048,1.113s.348,1.113,1.048,1.113h8.818c.145,0,.206.053.18.16A7.613,7.613,0,0,1,201,328.5a13.058,13.058,0,0,1-2.857,2.529c-.256-.231-.543-.476-.864-.743q-.749-.623-1.383-1.054a.964.964,0,0,0-1.518.38,1.028,1.028,0,0,0,.357,1.588,16.46,16.46,0,0,1,2.9,2.4,18.2,18.2,0,0,1,2.238,2.868.975.975,0,0,0,1.578.249,1.036,1.036,0,0,0,.215-1.558,9.519,9.519,0,0,0-.758-1.093c-.321-.407-.614-.759-.88-1.049l-.313-.339a14.939,14.939,0,0,0,3.357-3.18,7.253,7.253,0,0,0,1.753-3.791c.06-1.17-.447-1.759-1.518-1.759" transform="translate(100 -48)"/>
    <path id="パス_8423" data-name="パス 8423" d="M207.408,325.892a31.34,31.34,0,0,1,3.043,1.079c.613.249,1.15.16,1.4-.495a.878.878,0,0,0-.356-1.22,14.271,14.271,0,0,0-3.414-1.24c-.723-.128-1.107.082-1.256.692-.157.654.084,1.041.584,1.184m2.28,5.016c.618.233,1.153.134,1.386-.527a.876.876,0,0,0-.382-1.212,14.31,14.31,0,0,0-3.442-1.159c-.728-.112-1.1.108-1.24.719-.144.659.108,1.041.61,1.174a30.879,30.879,0,0,1,3.068,1m7.018-4.945a.992.992,0,0,0-1.265.743,9.615,9.615,0,0,1-2.371,4.935,9.107,9.107,0,0,1-5.741,2.521c-.78.088-1.207.452-1.14,1.222.076.889.715,1.06,1.644.954a10.817,10.817,0,0,0,6.9-3.423,12.276,12.276,0,0,0,2.709-5.678.939.939,0,0,0-.733-1.274" transform="translate(100 -48)"/>
    <path id="パス_8424" data-name="パス 8424" d="M230.727,326.21h-3.892v-2.123a1.024,1.024,0,0,0-2.048,0v2.123h-5.221c-.511,0-.812.459-.812,1.029s.3,1.029.812,1.029h5.221v1.1c0,2.636-1.754,4.149-4.764,4.785-.592.124-1.233.4-1.087,1.322.148.937.781.99,1.579.8,3.7-.885,6.32-2.979,6.32-6.909v-1.1h3.892c.508,0,.81-.461.81-1.029s-.3-1.029-.81-1.029" transform="translate(100 -48)"/>
    <path id="パス_8425" data-name="パス 8425" d="M234.185,323.708a.987.987,0,0,0-1.092.874v6.794a1.116,1.116,0,0,0,2.181,0v-6.794a.985.985,0,0,0-1.089-.874m8.337-.213a1.007,1.007,0,0,0-1.1.982v5.664c0,2.535-1.881,3.994-5.119,4.605-.633.118-1.325.386-1.167,1.274s.842.952,1.7.768c3.98-.849,6.789-2.866,6.789-6.647v-5.664a1,1,0,0,0-1.1-.982" transform="translate(100 -48)"/>
    <path id="パス_8426" data-name="パス 8426" d="M300.149,327.648h-2.506a.963.963,0,0,1,0-1.91h1.466v-1.377a.9.9,0,0,1,1.786,0v1.377h.94a.805.805,0,0,1,.8.691.774.774,0,0,1,.6-.268H304.6v-1.783a.929.929,0,0,1,1.839,0v1.783H308.2a.964.964,0,0,1,0,1.911H306.44v6.687h2.471a.963.963,0,0,1,0,1.909h-7.05a.963.963,0,0,1,0-1.909h2.74v-6.687h-1.362a.784.784,0,0,1-.762-.551,10.576,10.576,0,0,1-1.183,2.161c-.045.064-.093.131-.14.2l2.106,1.791a.865.865,0,0,1,.066,1.237.852.852,0,0,1-1.222.122l-1.352-1.15v4.439a.9.9,0,0,1-1.784,0v-3.707a6.635,6.635,0,0,1-.593.588c-.637.531-1.1.459-1.451.035a.966.966,0,0,1,.106-1.379,24.337,24.337,0,0,0,2.087-2.194,10.151,10.151,0,0,0,1.193-1.775c.075-.161.039-.241-.161-.241" transform="translate(100 -48)"/>
    <path id="パス_8427" data-name="パス 8427" d="M283.047,331.747a.746.746,0,0,0-.878.821c-.028.786-.13,1.568-.291,1.568-.318,0-.725-1.4-1.22-3.768-.2-.948-.35-1.943-.46-2.86h2.636a.963.963,0,0,0,0-1.91h-.123l.008-.007a.836.836,0,0,0-.128-1.193,4.875,4.875,0,0,0-.87-.69.968.968,0,0,0-1.234.1c-.387.353-.279.84.146,1.176l.746.617h-1.372c-.045-.524-.067-.958-.081-1.241a.825.825,0,0,0-.92-.8.834.834,0,0,0-.869.868c0,.337.021.737.058,1.173h-5.661a.964.964,0,0,0,0,1.91h5.877c.153,1.127.358,2.337.574,3.443a18.392,18.392,0,0,0,1.435,4.564c.636,1.168.975,1.38,1.611,1.38s1.069-.531,1.377-1.452a12.522,12.522,0,0,0,.423-2.688.827.827,0,0,0-.784-1.008m-5.625,1.513c-.419.164-.824.317-1.233.46v-3.2h1.361a.935.935,0,0,0,0-1.853h-4.8a.936.936,0,0,0,0,1.853h1.713v3.716c-.54.135-1.13.26-1.816.374-.651.109-.9.585-.8,1.291.117.8.582.9,1.464.753a19.518,19.518,0,0,0,4.7-1.514c.717-.378,1.01-.743.9-1.459-.085-.574-.6-.774-1.487-.424" transform="translate(100 -48)"/>
    <path id="パス_8428" data-name="パス 8428" d="M293.741,332.4a1,1,0,0,0-1.327-.08.777.777,0,0,0-.081,1.141c.157.183.33.4.512.632-.844.117-1.962.259-2.98.332-.441.03-.9.058-1.332.081l1.248-2.623h5.656a.915.915,0,0,0,0-1.814H285.348a.915.915,0,0,0,0,1.814h2.423l-1.3,2.722c-.38.018-.683.035-.889.05-.5.038-.885.282-.884,1.039a.827.827,0,0,0,.952.907c.885-.018,2.794-.142,4.634-.355,1.526-.175,2.991-.393,3.733-.517.161.236.315.469.459.694a.961.961,0,0,0,1.463.381.926.926,0,0,0,.2-1.335,19.954,19.954,0,0,0-2.4-3.069m2.112-5.256a22.722,22.722,0,0,1-3.345-2.068c-1.033-.743-1.409-1.487-2.149-1.487s-1.129.744-2.164,1.487a22.9,22.9,0,0,1-3.343,2.068.969.969,0,0,0-.489,1.427c.287.6.7.834,1.7.245.211-.124.425-.259.641-.4a.805.805,0,0,0,.789.862h5.662a.815.815,0,0,0,.793-.892c.23.148.459.293.69.426.992.589,1.414.355,1.7-.245a.97.97,0,0,0-.486-1.427m-7.763.323c.85-.621,1.639-1.265,2.264-1.827.623.562,1.41,1.206,2.259,1.827Z" transform="translate(100 -48)"/>
    <path id="パス_8429" data-name="パス 8429" d="M271.019,334.684c-.318-.513-.893-1.349-1.432-2.229a25.259,25.259,0,0,1-1.224-2.365h1.717a.915.915,0,0,0,0-1.814H267.8v-1.192h2.143a.916.916,0,0,0,0-1.815H267.8v-1.24a.815.815,0,0,0-1.613,0v1.24h-.73a5.968,5.968,0,0,0,.131-.842.741.741,0,0,0-.7-.807c-.441-.061-.795.062-.895.581a11.618,11.618,0,0,1-.288,1.231,5.682,5.682,0,0,1-.271.644.731.731,0,0,0-.641-.348h-.654v-1.7a.812.812,0,0,0-1.608,0v1.7h-1.071a.915.915,0,0,0,0,1.814h1.006a16.744,16.744,0,0,1-.6,2.154,15.644,15.644,0,0,1-.9,2.034,1.4,1.4,0,0,0-.061,1.477c.36.576.925.232,1.3-.415a5.348,5.348,0,0,0,.329-.753v4.148a.812.812,0,0,0,1.608,0v-4.949c.019.046.038.089.055.124.264.611.808.929,1.26.571a.969.969,0,0,0,.17-1.352c-.4-.73-.945-1.887-1.485-3.005v-.034h.654a.8.8,0,0,0,.237-.038.854.854,0,0,0,.233.334c.335.3.873.424,1.4-.387a3.637,3.637,0,0,0,.2-.367h1.331v1.192h-2.2a.915.915,0,0,0,0,1.814h1.539c-.287.618-.784,1.643-1.224,2.365-.538.88-1.116,1.716-1.433,2.229a.9.9,0,0,0,.034,1.22.729.729,0,0,0,1.206-.07c.306-.4.914-1.42,1.468-2.371a12.225,12.225,0,0,0,.607-1.237v3.961a.815.815,0,0,0,1.613,0v-3.743a10.379,10.379,0,0,0,.516,1.019c.551.951,1.158,1.974,1.466,2.371a.725.725,0,0,0,1.2.07.9.9,0,0,0,.035-1.22" transform="translate(100 -48)"/>
    <path id="パス_8430" data-name="パス 8430" d="M162.524,323.67c-3.2,0-5.8,2.367-5.8,6.533s2.6,6.534,5.8,6.534,5.8-2.363,5.8-6.534-2.6-6.533-5.8-6.533m0,11.076c-2.01,0-3.641-1.644-3.641-4.543s1.631-4.537,3.641-4.537,3.64,1.641,3.64,4.537-1.631,4.543-3.64,4.543" transform="translate(100 -48)"/>
    <path id="パス_8431" data-name="パス 8431" d="M169.555,327.27c0-2.591,2.181-3.6,4.748-3.6,3.212,0,4.381,1.674,4.68,2.225s.3,1.169-.3,1.467c-.641.321-1.193.251-1.514-.321-.38-.676-1.054-1.492-3.142-1.492-1.009,0-2.317.505-2.317,1.584s.857,1.4,1.858,1.584a23.022,23.022,0,0,1,4.015.914,3.171,3.171,0,0,1,1.926,3.144c0,2.018-1.377,3.968-4.977,3.968-4.634,0-5.183-2.657-5.482-3.6-.161-.505.091-1.053.94-1.171a1.019,1.019,0,0,1,1.285.691,2.836,2.836,0,0,0,3.1,2.156c2.569,0,2.982-1.217,2.982-1.973a1.769,1.769,0,0,0-1.6-1.742,28.557,28.557,0,0,1-4.245-.9,3.031,3.031,0,0,1-1.95-2.937" transform="translate(100 -48)"/>
    <path id="パス_8432" data-name="パス 8432" d="M180.727,325.188v10.707c0,.587.477.853,1.064.853s1.067-.266,1.067-.853v-4.876h5.437c2.591,0,3.53-1.653,3.53-3.671s-1.034-3.672-3.53-3.672h-5.971a1.4,1.4,0,0,0-1.6,1.512m2.772.4h4.437c1.2,0,1.7.606,1.7,1.765,0,1.12-.45,1.768-1.7,1.768h-5.078v-2.952c0-.469.243-.581.641-.581" transform="translate(100 -48)"/>
  </g>
</svg>
