<svg xmlns="http://www.w3.org/2000/svg" xmlns:xlink="http://www.w3.org/1999/xlink" width="308.4" height="84.108" viewBox="0 0 308.4 84.108">
  <defs>
    <clipPath id="clip-path">
      <path id="長方形_961" data-name="長方形 961" d="M7.176,0H300.22A7.178,7.178,0,0,1,307.4,7.178V75.931a7.177,7.177,0,0,1-7.177,7.177H7.179A7.179,7.179,0,0,1,0,75.929V7.176A7.176,7.176,0,0,1,7.176,0Z" transform="translate(390.242 493.196)" fill="#fff"/>
    </clipPath>
  </defs>
  <g id="グループ_3927" data-name="グループ 3927" transform="translate(-489.741 -444.696)">
    <g id="グループ_3860" data-name="グループ 3860" transform="translate(100 -48)">
      <g id="グループ_3859" data-name="グループ 3859" clip-path="url(#clip-path)">
        <rect id="長方形_960" data-name="長方形 960" width="307.398" height="83.108" transform="translate(390.242 493.196)" fill="#fff"/>
      </g>
    </g>
    <rect id="長方形_962" data-name="長方形 962" width="307.4" height="83.108" rx="7.178" transform="translate(490.241 445.196)" fill="#fff" stroke="#b2b2b3" stroke-miterlimit="10" stroke-width="1"/>
    <path id="パス_8516" data-name="パス 8516" d="M482.235,532.408c0,.447-.176.661-.538.661H476.67a8.785,8.785,0,0,0,.319,1.58,8.451,8.451,0,0,0,1.114,2.439,12.186,12.186,0,0,0,1.92,2.282,16.291,16.291,0,0,0,2.212,1.849.668.668,0,0,1,.2.47c-.02.515-.232.8-.636.833a1.331,1.331,0,0,1-.428-.175,18.333,18.333,0,0,1-2.638-2.377,13.946,13.946,0,0,1-1.607-2.215,10.078,10.078,0,0,1-1.058-2.313,10.307,10.307,0,0,1-1.03,2.239,14.681,14.681,0,0,1-1.661,2.232,16.437,16.437,0,0,1-2.6,2.434.666.666,0,0,1-.382.175c-.44-.029-.671-.318-.684-.833a.7.7,0,0,1,.208-.47,26.675,26.675,0,0,0,2.391-2.075,12.88,12.88,0,0,0,1.941-2.4,9.528,9.528,0,0,0,.944-2.191,9.7,9.7,0,0,0,.269-1.48h-4.9c-.36,0-.538-.214-.538-.661,0-.406.178-.59.538-.59h4.917V529.44c0-.422.2-.652.6-.652.38,0,.584.23.584.652v2.378H481.7c.362,0,.538.184.538.59" transform="translate(100 -48)"/>
    <path id="パス_8517" data-name="パス 8517" d="M487.263,529.079c.492,0,.755.285.755.835a1.775,1.775,0,0,1-.154.566l-1.067,2.8a1.3,1.3,0,0,0-.07.442.879.879,0,0,0,.155.5,12.971,12.971,0,0,1,.85,1.736,5.737,5.737,0,0,1,.175,1.324,2.435,2.435,0,0,1-.616,1.733,1.821,1.821,0,0,1-1.481.7,4.771,4.771,0,0,1-1.071-.125v2.685c0,.4-.177.594-.529.594s-.544-.2-.544-.594V530.1c0-.672.324-1.019.966-1.019h2.631Zm-2.477,9.3a5.148,5.148,0,0,0,.924.152.962.962,0,0,0,.824-.414,1.46,1.46,0,0,0,.3-.891,4.937,4.937,0,0,0-.131-.976,8.64,8.64,0,0,0-.92-1.858,1.013,1.013,0,0,1-.129-.49,1.36,1.36,0,0,1,.08-.535l1.1-2.923c0-.153-.076-.244-.214-.244h-1.552c-.223,0-.328.123-.328.365v7.8a.05.05,0,0,0,.047.018m4.839-4.308a22.924,22.924,0,0,1-.567,5.464,11.006,11.006,0,0,1-1.1,2.86.7.7,0,0,1-.489.251.565.565,0,0,1-.588-.595,1.34,1.34,0,0,1,.179-.472,9.225,9.225,0,0,0,1.02-2.771,19.884,19.884,0,0,0,.511-4.737v-3.383c0-.716.318-1.081.976-1.081a16.456,16.456,0,0,0,5.4-.654c.333.03.506.24.532.654-.012.334-.133.5-.366.532a14.474,14.474,0,0,1-5.037.594c-.326,0-.473.183-.473.55v1.536h5.2c.488,0,.737.318.737.958a5.623,5.623,0,0,1-.235,1.329,16.632,16.632,0,0,1-1.083,2.635c-.358.614-.7,1.137-1.026,1.6a4.552,4.552,0,0,0,.438.452,10.75,10.75,0,0,0,2.286,1.721.729.729,0,0,1,.259.535c0,.426-.2.65-.584.65a.843.843,0,0,1-.494-.224,10.663,10.663,0,0,1-2.208-1.69,3.693,3.693,0,0,1-.483-.486,10.545,10.545,0,0,1-2.671,2.254,1.275,1.275,0,0,1-.359.146c-.4,0-.591-.24-.591-.718a.725.725,0,0,1,.369-.652,11.479,11.479,0,0,0,2.422-1.93.3.3,0,0,1,.066-.078,11.6,11.6,0,0,1-.759-1.231,15.905,15.905,0,0,1-1.282-4.085Zm3.617,3.045a11.155,11.155,0,0,0,.928-2.258,2.982,2.982,0,0,0,.151-.667c0-.154-.04-.246-.092-.246H490.65a14.576,14.576,0,0,0,1.177,3.4,6.734,6.734,0,0,0,.617,1.019,9.662,9.662,0,0,0,.8-1.245" transform="translate(100 -48)"/>
    <path id="パス_8518" data-name="パス 8518" d="M509.961,533.6c0,.4-.179.6-.531.6h-6.936a3.429,3.429,0,0,1-.4.443,11.105,11.105,0,0,1-1.468,1.281h2.651v-.6c0-.392.18-.6.531-.6s.539.2.539.6v.6h3.643c.675,0,1.019.378,1.019,1.137v3.809c0,.939-.538,1.419-1.608,1.419a6.719,6.719,0,0,1-1.768-.3.558.558,0,0,1-.385-.529c0-.421.14-.652.439-.652a2.25,2.25,0,0,1,.383.059,4.607,4.607,0,0,0,1.223.226c.422,0,.639-.226.639-.713v-2.791c0-.346-.146-.531-.436-.531h-3.149v5.164c0,.394-.178.593-.539.593s-.531-.2-.531-.593v-5.164h-3c-.287,0-.425.185-.425.531V541.8c0,.4-.179.6-.533.6s-.534-.2-.534-.6v-4.762c-.291.135-.574.256-.866.361a.729.729,0,0,1-.318.066.478.478,0,0,1-.382-.2.639.639,0,0,1-.152-.454.585.585,0,0,1,.152-.413,12.719,12.719,0,0,0,2.1-1.023,9.1,9.1,0,0,0,1.56-1.184h-3.217c-.357,0-.54-.2-.54-.6s.183-.592.54-.592h4.287a7.331,7.331,0,0,0,.522-.835.491.491,0,0,1,.534-.415.706.706,0,0,1,.385.124.436.436,0,0,1,.154.291,2.465,2.465,0,0,1-.063.475c-.066.13-.136.257-.187.36h6.139c.352,0,.531.2.531.592m-1.71-4.219a.651.651,0,0,1-.372.536q-.781.369-1.686.715c.8.228,1.6.472,2.423.716.224.135.332.277.332.41,0,.388-.169.595-.478.595a4.2,4.2,0,0,1-.861-.139c-1.125-.343-2.222-.653-3.319-.957a25.141,25.141,0,0,1-3.5.741c-1.478.248-2.335.355-2.552.355-.439,0-.644-.207-.644-.658a.417.417,0,0,1,.372-.472c1.578-.15,2.906-.349,4-.56q-1.517-.363-3.039-.685a.47.47,0,0,1-.322-.49.425.425,0,0,1,.488-.47c.239,0,.676.064,1.341.154,1.209.257,2.479.56,3.83.929a24.77,24.77,0,0,0,3.445-1.31c.358,0,.537.2.537.59" transform="translate(100 -48)"/>
    <path id="パス_8519" data-name="パス 8519" d="M514.4,530.263c0,.4-.168.595-.474.595h-.76V534.6h.59c.327,0,.491.187.491.547,0,.4-.164.6-.491.6h-.59V539.8c.184-.123.372-.275.59-.428l.218-.062c.357,0,.536.23.536.661a.543.543,0,0,1-.179.344,8.447,8.447,0,0,1-1.136.869,11.714,11.714,0,0,1-1.668.872.809.809,0,0,1-.222.058c-.363,0-.538-.226-.538-.655a.614.614,0,0,1,.429-.652,6.128,6.128,0,0,0,.9-.384v-4.674h-.739c-.331,0-.492-.2-.492-.6,0-.36.161-.547.492-.547h.739v-3.745h-.9c-.331,0-.486-.2-.486-.595,0-.349.155-.533.486-.533h2.73c.306,0,.474.184.474.533m3.7,1.616c0,.406-.164.595-.48.595h-.7v.443l1.523,2.785a1.307,1.307,0,0,1,.138.458c0,.4-.182.593-.538.593-.167,0-.275-.091-.342-.3l-.781-1.8v7.514c0,.4-.178.608-.535.608s-.535-.211-.535-.608v-6.72c-.178.7-.341,1.263-.48,1.694a9.466,9.466,0,0,1-.534,1.522.625.625,0,0,1-.5.24c-.353,0-.532-.15-.532-.484a.96.96,0,0,1,.163-.476,25.9,25.9,0,0,0,1.234-3.26,21.109,21.109,0,0,0,.536-2.2h-1.123c-.331,0-.48-.189-.48-.595,0-.351.149-.533.48-.533h1.232V529.44c0-.392.182-.606.535-.606s.535.214.535.606v1.906h.7c.316,0,.48.182.48.533m5.084,0c0,.406-.158.595-.478.595H521.2v.121c.388,1.341.7,2.361.974,3.036a29.18,29.18,0,0,0,1.332,3.207.906.906,0,0,1,.164.6c-.1.36-.276.554-.533.59a.614.614,0,0,1-.427-.187,22.969,22.969,0,0,1-.866-2.373c-.2-.615-.424-1.324-.644-2.178v6.872c0,.4-.176.608-.533.608s-.531-.211-.531-.608v-6.841q-.052.182-.1.363c-.273,1.069-.523,1.889-.74,2.486a13.257,13.257,0,0,1-.712,1.8.619.619,0,0,1-.484.244.479.479,0,0,1-.534-.547,1.074,1.074,0,0,1,.147-.477,28.593,28.593,0,0,0,1.456-3.886c.235-.788.452-1.734.66-2.829h-.764c-.33,0-.481-.189-.481-.595,0-.351.151-.533.481-.533h1.067V529.44c0-.392.175-.606.531-.606s.533.214.533.606v1.906h1.51c.32,0,.478.182.478.533" transform="translate(100 -48)"/>
    <path id="パス_8520" data-name="パス 8520" d="M526.194,532.057v10.289c0,.389-.179.587-.537.587s-.533-.2-.533-.587V532.057c0-.409.176-.608.533-.608s.537.2.537.608m.792-2.977c.194.162.355.317.523.47.164.18.384.437.656.777a1.571,1.571,0,0,1,.054.365.464.464,0,0,1-.528.529.658.658,0,0,1-.431-.119c-.234-.289-.423-.52-.575-.7-.138-.137-.288-.27-.438-.424a.638.638,0,0,1-.166-.426c0-.4.183-.593.534-.593a.877.877,0,0,1,.371.123m1.412,4.81a3.738,3.738,0,0,1-.766.658.832.832,0,0,1-.319.055.409.409,0,0,1-.339-.166.661.661,0,0,1-.137-.426.581.581,0,0,1,.149-.413,3.647,3.647,0,0,0,.646-.547,5.065,5.065,0,0,0,.562-.753,5.151,5.151,0,0,0,.4-.952.533.533,0,0,1,.549-.426.553.553,0,0,1,.328.12.4.4,0,0,1,.153.306,2.149,2.149,0,0,1-.055.41h3.424c.631,0,.965.3.965.889a1.441,1.441,0,0,1-.321.7,8.819,8.819,0,0,1-1.53,1.688c-.061.063-.108.088-.139.121.163.08.346.139.5.2a17.056,17.056,0,0,0,2.389.685.693.693,0,0,1,.222.476c0,.438-.179.65-.538.65a1.868,1.868,0,0,1-.518-.086,13.622,13.622,0,0,1-2.3-.81,5.34,5.34,0,0,1-.8-.38c-.19.118-.367.225-.545.316a11.643,11.643,0,0,1-2.439.992,2.519,2.519,0,0,1-.621.152c-.391,0-.585-.209-.585-.652a.49.49,0,0,1,.428-.533,12.194,12.194,0,0,0,1.777-.551,7.983,7.983,0,0,0,.932-.409c-.083-.061-.162-.125-.231-.182a4.851,4.851,0,0,1-1.071-1.345,1.248,1.248,0,0,1-.165.217m7.154-4.449c.742,0,1.126.4,1.126,1.189v10.055c0,1.263-.7,1.9-2.081,1.9a3.577,3.577,0,0,1-1.18-.24.639.639,0,0,1-.538-.658.458.458,0,0,1,.016-.169h-4.252c-.709,0-1.067-.389-1.067-1.206v-1.778c0-.747.358-1.132,1.067-1.132h4.295c.713,0,1.068.385,1.068,1.132v1.778a1.254,1.254,0,0,1-.222.821,3.037,3.037,0,0,0,.813.144c.629,0,.955-.349.955-1.065v-8.926c0-.429-.176-.657-.534-.657h-5.3c-.361,0-.539-.2-.539-.592s.178-.6.539-.6Zm-2.614,10.4v-.83c0-.305-.151-.477-.426-.477h-3.428c-.3,0-.441.172-.441.477v.83c0,.371.141.535.441.535h3.428c.275,0,.426-.164.426-.535m-.678-6.529a.825.825,0,0,0,.2-.308c0-.118-.037-.182-.11-.182h-3a.383.383,0,0,1-.136-.012.12.12,0,0,0,.029.076,4.661,4.661,0,0,0,1.315,1.475,3.134,3.134,0,0,0,.357.241,6.885,6.885,0,0,0,1.352-1.29" transform="translate(100 -48)"/>
    <path id="パス_8521" data-name="パス 8521" d="M544.234,529.549a.615.615,0,0,1-.59.654,12.314,12.314,0,0,1-3.263.488c-.261,0-.384.137-.384.41v3.276h3.426c.358,0,.548.2.548.592,0,.443-.19.662-.548.662H540v3.861c0,.153.069.231.217.231a9.5,9.5,0,0,0,2.244-.841,1.9,1.9,0,0,1,.709-.165c.327.03.5.241.533.652a.677.677,0,0,1-.316.536,20.11,20.11,0,0,1-2.331,1.065,5.636,5.636,0,0,1-1.209.248c-.617,0-.919-.369-.919-1.136v-9.287a1.538,1.538,0,0,1,.289-1.018,1.079,1.079,0,0,1,.837-.292,14.286,14.286,0,0,0,3.649-.593c.355,0,.534.23.534.657m5.135-.292c.719,0,1.072.4,1.072,1.19v8.922c0,1.111-.521,1.667-1.548,1.667a6.237,6.237,0,0,1-1.933-.351.619.619,0,0,1-.369-.6c0-.469.147-.713.479-.713a1.657,1.657,0,0,1,.411.08,4.389,4.389,0,0,0,1.3.274c.383,0,.589-.242.589-.765V530.98c0-.351-.147-.533-.42-.533h-2.577c-.287,0-.424.182-.424.533v11.239c0,.394-.184.593-.539.593s-.532-.2-.532-.593V530.447a1.043,1.043,0,0,1,1.175-1.19Z" transform="translate(100 -48)"/>
    <path id="パス_8522" data-name="パス 8522" d="M553.657,535.2a35.662,35.662,0,0,1-.253,4.412,19.8,19.8,0,0,1-.495,2.373.576.576,0,0,1-.535.412.55.55,0,0,1-.587-.592c.241-1.155.431-2.172.576-3.073a27.5,27.5,0,0,0,.217-3.532v-5c0-.672.316-1.007.968-1.007h5.4a.875.875,0,0,1,.974,1.007v1.614c0,.718-.324,1.069-.974,1.069h-1.438v1.55h1.331c.683,0,1.027.381,1.027,1.127v5.18c0,.749-.4,1.128-1.18,1.128a2.357,2.357,0,0,1-.642-.119.511.511,0,0,1-.33-.475c0-.429.12-.654.386-.654a.759.759,0,0,0,.108.016.878.878,0,0,0,.368.1c.165,0,.263-.213.263-.66v-4.049c0-.351-.162-.531-.479-.531h-.852v6.716a.48.48,0,0,1-.534.551c-.329,0-.48-.185-.48-.551V535.5h-.921c-.284,0-.427.18-.427.531V541.4a.469.469,0,0,1-.531.533c-.327,0-.48-.179-.48-.533v-5.835c0-.746.357-1.127,1.071-1.127H556.5v-1.55h-2.842Zm.263-4.875c-.171,0-.263.105-.263.3v1.126h4.98c.138,0,.207-.1.207-.308v-.818c0-.167-.11-.276-.314-.3h-4.61Zm10.336-.777V541.09a1.4,1.4,0,0,1-1.6,1.559,5.742,5.742,0,0,1-1.821-.43.585.585,0,0,1-.429-.6c0-.361.163-.562.476-.587a1.755,1.755,0,0,1,.289.054,5.892,5.892,0,0,0,1.422.367c.393,0,.6-.23.6-.714V529.549c0-.4.178-.593.533-.593s.531.2.531.593m-2.409,1.019v8.444c0,.41-.176.6-.538.6s-.53-.191-.53-.6v-8.444c0-.4.175-.592.53-.592s.538.193.538.592" transform="translate(100 -48)"/>
    <path id="パス_8523" data-name="パス 8523" d="M571.693,542.718c-.1,0-.384-.236-.851-.732a7.512,7.512,0,0,1-1.682-2.853,9.395,9.395,0,0,1-.028-6.7,8.155,8.155,0,0,1,1.69-2.8c.438-.494.738-.736.871-.736a.583.583,0,0,1,.647.656c0,.094-.126.228-.348.438a7.512,7.512,0,0,0-2.368,5.79,8.443,8.443,0,0,0,.655,3.235,7.9,7.9,0,0,0,1.65,2.541c.271.271.411.454.411.536a.568.568,0,0,1-.647.629" transform="translate(100 -48)"/>
    <path id="パス_8524" data-name="パス 8524" d="M588.252,530.507c0,.4-.186.595-.531.595h-2.8v.833a.6.6,0,1,1-1.192,0V531.1h-4.4v.778a.592.592,0,1,1-1.184,0V531.1h-2.984c-.366,0-.533-.2-.533-.595a.469.469,0,0,1,.533-.531h2.984v-.6a.592.592,0,0,1,1.184,0v.6h4.4v-.535a.6.6,0,1,1,1.192,0v.535h2.8a.476.476,0,0,1,.531.531M577.9,536.4a.288.288,0,0,0-.063.123,9.293,9.293,0,0,1-1.08,1.616,9.476,9.476,0,0,1-1.052.992.692.692,0,0,1-.423.116.677.677,0,0,1-.6-.59.631.631,0,0,1,.184-.416,6.468,6.468,0,0,0,1.078-.911,5.793,5.793,0,0,0,.888-1.11.5.5,0,0,1,.473-.413.565.565,0,0,1,.592.593m1.917-2.741c.044-.457.08-.928.1-1.444.036-.3.233-.46.6-.46.422,0,.654.2.654.594,0,.368-.03.809-.078,1.31h3.046c.877,0,1.318.489,1.318,1.433,0,.3-.017.609-.017.884a1.3,1.3,0,0,1,.316.244,15.41,15.41,0,0,1,2.31,2.843v.492c-.057.271-.271.436-.652.472a.524.524,0,0,1-.469-.306,14.093,14.093,0,0,0-1.559-2.07c-.023.7-.054,1.366-.12,2.014a3.981,3.981,0,0,1-.774,2.388,2.577,2.577,0,0,1-1.83.6,4.947,4.947,0,0,1-1.737-.367.618.618,0,0,1-.474-.659c0-.5.2-.759.6-.759a4.274,4.274,0,0,0,1.5.413,1.07,1.07,0,0,0,1-.472,3.954,3.954,0,0,0,.429-1.741c.054-.944.108-2.1.108-3.434,0-.48-.229-.72-.656-.72h-2.488a15.3,15.3,0,0,1-.639,2.8,9.077,9.077,0,0,1-1.555,2.785,9.543,9.543,0,0,1-2.356,1.967.89.89,0,0,1-.331.121c-.525,0-.778-.239-.778-.716a.523.523,0,0,1,.357-.535,9.205,9.205,0,0,0,2.274-1.988,8.014,8.014,0,0,0,1.309-2.5,12.762,12.762,0,0,0,.445-1.936h-3.37a.577.577,0,0,1-.658-.654c0-.4.217-.6.658-.6Z" transform="translate(100 -48)"/>
    <path id="パス_8525" data-name="パス 8525" d="M591.362,532.594a24.42,24.42,0,0,1-.17,2.818,10.163,10.163,0,0,1-.854,3,.691.691,0,0,1-.529.242.576.576,0,0,1-.655-.656,1.138,1.138,0,0,1,.12-.349,9.217,9.217,0,0,0,.744-2.653,20.908,20.908,0,0,0,.154-2.464c0-.333.2-.54.6-.54a.535.535,0,0,1,.594.6m2.02-3.109V536.4a8.043,8.043,0,0,1-.833,3.581,8.238,8.238,0,0,1-1.966,2.539,1.205,1.205,0,0,1-.532.183c-.506-.025-.762-.271-.777-.718a.541.541,0,0,1,.179-.363,7.516,7.516,0,0,0,2.211-2.906,6.293,6.293,0,0,0,.475-2.316v-6.916a.526.526,0,0,1,.594-.593c.422,0,.649.2.649.593m1.787,2.865c.178.989.362,2.579.575,4.769.047.454.08.761.08.941,0,.365-.2.538-.6.538s-.577-.173-.6-.538q-.228-3.012-.551-5.135l-.039-.452c0-.3.165-.478.532-.478a.646.646,0,0,1,.594.355m2.5-2.313v11.42a.595.595,0,1,1-1.189,0v-11.42a.595.595,0,1,1,1.189,0m2.024,2.313q.316,1.484.688,4.769c.046.454.072.761.072.941,0,.365-.2.538-.592.538a.522.522,0,0,1-.592-.538c-.187-2.008-.4-3.717-.643-5.135l-.07-.452c0-.3.176-.478.547-.478a.674.674,0,0,1,.59.355m2.728-2.865v12.677c0,.4-.227.608-.653.608a.534.534,0,0,1-.6-.608V529.485a.525.525,0,0,1,.6-.593c.426,0,.653.2.653.593" transform="translate(100 -48)"/>
    <path id="パス_8526" data-name="パス 8526" d="M609.019,539.132a7.832,7.832,0,0,1-1.682,2.855c-.482.494-.767.728-.855.728-.437,0-.638-.211-.638-.619,0-.09.132-.271.41-.543a7.767,7.767,0,0,0,1.64-2.542,8.258,8.258,0,0,0,.661-3.234,7.529,7.529,0,0,0-2.37-5.79c-.236-.21-.341-.345-.341-.438a.572.572,0,0,1,.638-.656c.141,0,.426.241.884.737a8.806,8.806,0,0,1,1.685,2.8,9.452,9.452,0,0,1-.032,6.7" transform="translate(100 -48)"/>
    <path id="パス_8527" data-name="パス 8527" d="M626.277,530.448c0,.394-.169.593-.485.593h-6.787a10.707,10.707,0,0,1-.588.939c-.163.232-.326.451-.488.665h6.479c.743,0,1.123.406,1.123,1.2v7.127c0,1.038-.685,1.553-2.04,1.553a7.912,7.912,0,0,1-1.975-.3.545.545,0,0,1-.385-.532c0-.469.138-.718.44-.718a1.722,1.722,0,0,1,.429.078,5.946,5.946,0,0,0,1.38.23c.687,0,1.028-.23,1.028-.716v-1.5h-6.9v2.991a.53.53,0,0,1-.6.594c-.356,0-.537-.2-.537-.594v-7.769a9.14,9.14,0,0,1-2.094,1.461.94.94,0,0,1-.372.062.44.44,0,0,1-.378-.217.594.594,0,0,1-.154-.442.785.785,0,0,1,.164-.483,11.073,11.073,0,0,0,3.932-3.429,1.393,1.393,0,0,0,.139-.2h-3.429c-.325,0-.488-.2-.488-.593,0-.349.163-.534.488-.534h4.1a11.853,11.853,0,0,0,.493-1.126.538.538,0,0,1,.551-.428.636.636,0,0,1,.369.123.367.367,0,0,1,.161.305,4.163,4.163,0,0,1-.05.47c-.084.246-.18.46-.26.656h6.247c.316,0,.485.185.485.534m-1.869,4.812v-.944c0-.349-.152-.536-.439-.536h-6.1c-.243,0-.362.187-.362.536v.944Zm0,1.084h-6.9V538h6.9Z" transform="translate(100 -48)"/>
    <path id="パス_8528" data-name="パス 8528" d="M630.423,529.08c.5,0,.757.286.757.835a2.27,2.27,0,0,1-.1.533l-.766,2.724a1.952,1.952,0,0,0-.042.427,1.153,1.153,0,0,0,.137.539,10.536,10.536,0,0,1,.728,1.781,6.694,6.694,0,0,1,.151,1.368,2.4,2.4,0,0,1-.574,1.659,1.772,1.772,0,0,1-1.419.668,2.173,2.173,0,0,1-.961-.256v2.925c0,.4-.177.593-.531.593s-.536-.2-.536-.593V530.1c0-.673.316-1.02.96-1.02h2.192Zm-1.22,9.335a.889.889,0,0,0,.739-.367,1.361,1.361,0,0,0,.278-.819,4.608,4.608,0,0,0-.124-1.007,9.172,9.172,0,0,0-.8-1.936,1.266,1.266,0,0,1-.1-.505,2.66,2.66,0,0,1,.044-.516l.755-2.876c0-.151-.067-.246-.206-.246h-1.125c-.22,0-.333.152-.333.425v7.494a2.35,2.35,0,0,0,.865.353m3.85,2.451c0,.152.07.225.23.225a6.69,6.69,0,0,0,1.544-.634,1.007,1.007,0,0,1,.478-.143c.329.034.505.248.535.656a.675.675,0,0,1-.316.55c-.725.4-1.3.683-1.728.868a4.9,4.9,0,0,1-.9.2c-.6,0-.906-.383-.906-1.128V530.389c0-.7.318-1.072.963-1.072h4.824c.632,0,.96.367.96,1.072v4.523c0,.72-.328,1.066-.96,1.066h-2.495a7.816,7.816,0,0,0,.426,1.425,4.928,4.928,0,0,0,.577,1.133,16.133,16.133,0,0,0,2.176-1.842,1.82,1.82,0,0,1,.38-.123c.365,0,.54.2.54.59a.823.823,0,0,1-.221.552,16.48,16.48,0,0,1-2.283,1.645,6.294,6.294,0,0,0,.912.99,5.646,5.646,0,0,0,1.179.852.9.9,0,0,1,.574.488.678.678,0,0,1,.1.367c0,.4-.174.6-.532.6a2.654,2.654,0,0,1-.919-.474,9.737,9.737,0,0,1-1.453-1.192,9.938,9.938,0,0,1-1.058-1.293,8.425,8.425,0,0,1-.817-1.6,10.644,10.644,0,0,1-.567-2.117h-1.237Zm.322-10.418c-.219,0-.322.12-.322.349v1.374h4.662V530.8c0-.229-.113-.349-.322-.349h-4.018Zm-.322,4.4h4.34c.209,0,.322-.11.322-.351v-1.249h-4.662Z" transform="translate(100 -48)"/>
    <path id="パス_8529" data-name="パス 8529" d="M645.149,529.258a.411.411,0,0,1,.146.291,1.808,1.808,0,0,1-.055.427,13.126,13.126,0,0,1-.929,2.637,12.212,12.212,0,0,1-1.33,2.16,7.234,7.234,0,0,1-1.479,1.506.864.864,0,0,1-.33.066.445.445,0,0,1-.381-.215.632.632,0,0,1-.153-.446.624.624,0,0,1,.164-.424,8.508,8.508,0,0,0,1.387-1.359,12.014,12.014,0,0,0,1.216-1.967,11.821,11.821,0,0,0,.878-2.385.5.5,0,0,1,.535-.414.6.6,0,0,1,.331.123m1.178,5.028a.514.514,0,0,1,.2.382,1.906,1.906,0,0,1-.053.361,39.141,39.141,0,0,1-3.116,5.911,59.017,59.017,0,0,0,7.186-.638,17.708,17.708,0,0,0-2.042-3.072,1.822,1.822,0,0,1-.055-.415c0-.3.187-.47.585-.47a.738.738,0,0,1,.537.284,22.9,22.9,0,0,1,3.058,5.06,1.6,1.6,0,0,1,.115.531c0,.367-.271.551-.759.551-.22,0-.374-.174-.479-.488-.138-.3-.258-.588-.387-.841-.029,0-.06.015-.093.015-3.157.429-6.14.746-8.993.942-.4,0-.592-.255-.592-.774a.56.56,0,0,1,.511-.642A48.207,48.207,0,0,0,645.4,534.5a.419.419,0,0,1,.431-.362.947.947,0,0,1,.492.147m2.028-4.969a15.805,15.805,0,0,0,2.085,3.752,9,9,0,0,0,2.08,1.9.657.657,0,0,1-.364,1.191,1.356,1.356,0,0,1-.429-.217,10.24,10.24,0,0,1-2.52-2.679,12.95,12.95,0,0,1-1.55-2.877,1.281,1.281,0,0,1-.331-.777.471.471,0,0,1,.531-.53.9.9,0,0,1,.5.236" transform="translate(100 -48)"/>
    <path id="パス_8530" data-name="パス 8530" d="M664.6,529.317c.786,0,1.181.444,1.181,1.313V540.8q0,1.9-2.135,1.9a10.894,10.894,0,0,1-2.842-.422.6.6,0,0,1-.53-.595c0-.425.178-.652.53-.652a13.746,13.746,0,0,0,2.842.422c.668,0,1.011-.291,1.011-.9v-9.394c0-.43-.177-.663-.531-.663h-9.591c-.35,0-.529-.2-.529-.59s.179-.6.529-.6Zm-1.217,2.9c0,.411-.178.606-.533.606h-7.885c-.356,0-.533-.2-.533-.606,0-.387.177-.581.533-.581h7.885q.532,0,.533.581m-1.824,1.921c.782,0,1.184.42,1.184,1.241v3.157c0,.887-.4,1.306-1.184,1.306h-5.3c-.8,0-1.179-.419-1.179-1.306v-3.157c0-.821.381-1.241,1.179-1.241Zm.109,3.983v-2.311c0-.367-.165-.55-.49-.55h-4.55c-.328,0-.483.183-.483.55v2.311c0,.4.155.6.483.6h4.55c.325,0,.49-.2.49-.6" transform="translate(100 -48)"/>
    <path id="パス_8531" data-name="パス 8531" d="M438.182,523.143h-4.571a1.379,1.379,0,0,0-1.375,1.375v12.367a1.379,1.379,0,0,0,1.375,1.377h4.571a1.38,1.38,0,0,0,1.376-1.377V524.518a1.38,1.38,0,0,0-1.376-1.375m-1.7,12.206a.589.589,0,0,1-1.174,0v-9.293a.589.589,0,0,1,1.174,0Z" transform="translate(100 -48)" fill="#0568af"/>
    <path id="パス_8532" data-name="パス 8532" d="M454.707,523.144H448.76v15.117h3v-5.553h2.947a1.379,1.379,0,0,0,1.375-1.374v-6.816a1.379,1.379,0,0,0-1.375-1.374m-1.69,6.407a.458.458,0,0,1-.518.52h-.739v-4.5h.739a.458.458,0,0,1,.518.519Z" transform="translate(100 -48)" fill="#0568af"/>
    <path id="パス_8533" data-name="パス 8533" d="M447.771,528.529v-4.012a1.38,1.38,0,0,0-1.374-1.374h-4.574a1.379,1.379,0,0,0-1.375,1.374v3.866a1.843,1.843,0,0,0,.81,1.747c.8.533,2.28,1.406,2.814,1.746s.657.509.657.994v2.447a.629.629,0,0,1-1.258,0v-2.98h-3.023v4.548a1.38,1.38,0,0,0,1.375,1.376H446.4a1.38,1.38,0,0,0,1.374-1.376v-4.864a2,2,0,0,0-1.177-1.819c-.533-.315-1.891-1.066-2.3-1.334a1.314,1.314,0,0,1-.765-1.285V526.1a.587.587,0,1,1,1.173,0v2.424Z" transform="translate(100 -48)" fill="#0568af"/>
    <path id="パス_8534" data-name="パス 8534" d="M431.355,536.885V535.3h-9.25v2.961h9.721a2.25,2.25,0,0,1-.471-1.376m0-4.076h-9.25v2.045h9.25Zm0-1.747h-9.25v1.353h9.25Zm0-.825h-9.25v.415h9.25Zm21.285,8.024h11.893V535.3H452.64Zm4.322-6.927a2.26,2.26,0,0,1-.277,1.082h7.848v-1.354h-7.571Zm0-.682h7.571v-.415h-7.571Zm-2.255,2.937H452.64v1.265h11.893v-2.045h-8.125a2.242,2.242,0,0,1-1.7.78m-32.6,9.716h42.429v-4.578H422.105Z" transform="translate(100 -48)" fill="#0568af"/>
  </g>
</svg>
