<svg xmlns="http://www.w3.org/2000/svg" xmlns:xlink="http://www.w3.org/1999/xlink" width="308.4" height="84.108" viewBox="0 0 308.4 84.108">
  <defs>
    <clipPath id="clip-path">
      <path id="パス_8338" data-name="パス 8338" d="M722.418,390.814a7.178,7.178,0,0,0-7.177,7.178v68.752a7.177,7.177,0,0,0,7.177,7.178h293.045a7.178,7.178,0,0,0,7.177-7.065V397.88a7.178,7.178,0,0,0-7.177-7.066Z" fill="#fff"/>
    </clipPath>
  </defs>
  <g id="グループ_3925" data-name="グループ 3925" transform="translate(-814.741 -342.314)">
    <g id="グループ_3880" data-name="グループ 3880" transform="translate(100 -48)">
      <g id="グループ_3879" data-name="グループ 3879" clip-path="url(#clip-path)">
        <rect id="長方形_980" data-name="長方形 980" width="307.399" height="83.108" transform="translate(715.241 390.814)" fill="#fff"/>
      </g>
    </g>
    <rect id="長方形_981" data-name="長方形 981" width="307.4" height="83.108" rx="7.178" transform="translate(815.241 342.814)" fill="#fff" stroke="#b2b2b3" stroke-miterlimit="10" stroke-width="1"/>
    <g id="グループ_3916" data-name="グループ 3916" transform="translate(100 -48)">
      <g id="グループ_3915" data-name="グループ 3915">
        <g id="グループ_3906" data-name="グループ 3906">
          <path id="パス_8664" data-name="パス 8664" d="M843.531,428.425a2.555,2.555,0,0,0-.056.563,2.529,2.529,0,0,0,2.519,2.533,2.26,2.26,0,0,0,.451-.057v.958c0,5.11-2.97,7.812-8.572,7.812h-2.425v-4.048H838c3.223,0,5.644-.119,5.644-4.06v-.334H834.9l-.28-3.367Z"/>
          <g id="グループ_3899" data-name="グループ 3899">
            <path id="パス_8665" data-name="パス 8665" d="M844.01,428.988a1.991,1.991,0,1,1,1.984,2A1.983,1.983,0,0,1,844.01,428.988Zm1.152,0a.839.839,0,1,0,.835-.834A.836.836,0,0,0,845.162,428.99Z"/>
          </g>
          <g id="グループ_3900" data-name="グループ 3900">
            <path id="パス_8666" data-name="パス 8666" d="M853.251,434.846l-3.609.4v-7.079h3.609Z"/>
            <path id="パス_8667" data-name="パス 8667" d="M850.795,436.169l2.731-.014c3.73-.126,4.969-.266,5.008-3.362l.121-4.276,2.795-.354v4.828c0,4.587-2.21,7.234-8.079,7.261l-2.576.015Z"/>
          </g>
          <g id="グループ_3901" data-name="グループ 3901">
            <path id="パス_8668" data-name="パス 8668" d="M871.076,431.722l-7.049-.127-.171-3.39,7.22.282Z"/>
            <path id="パス_8669" data-name="パス 8669" d="M864.122,436.2h2.323c5.4,0,7.141-.442,7.141-4.425l.054-2.463,2.6-.269v2.845c0,5.489-2.66,8.374-9.43,8.374h-2.689Z"/>
          </g>
          <path id="パス_8670" data-name="パス 8670" d="M882.65,434.84l-.737-.082v5.509H878.7V427.6l3.217.361V431.5l.584.552,7.425.475v2.686Z"/>
          <g id="グループ_3902" data-name="グループ 3902">
            <path id="パス_8671" data-name="パス 8671" d="M903.861,437.1v3.165h-7.375c-3.07,0-4.349-1.041-4.349-3.927v-8.6l3.258.316V430l3.848-.286v.907h4.606l.012,1.513-8.466.647v3.233c0,1.112.021,1.549,1.456,1.549Z"/>
          </g>
          <g id="グループ_3903" data-name="グループ 3903">
            <path id="パス_8672" data-name="パス 8672" d="M913.205,428.176v2.447h3.04a17.4,17.4,0,0,1-.916,3.948,24.15,24.15,0,0,0,2.409,2.084,5.108,5.108,0,0,0,.957,0v3.556c-1.929,0-2.313-.071-3.35-1.183-.662-.708-.563-.717-1.516-1.874-1.183,1.759-3.607,3.113-7.225,3.113h-.7v-3.429l.746-.025c3.927,0,6.334-1.584,6.6-5.148h-6.752l-.285-3.489Z"/>
            <rect id="長方形_996" data-name="長方形 996" width="2.168" height="2.822" transform="translate(913.74 427.374)"/>
            <rect id="長方形_997" data-name="長方形 997" width="2.168" height="2.822" transform="translate(916.442 427.374)"/>
          </g>
          <path id="パス_8673" data-name="パス 8673" d="M933.5,436.623a3.108,3.108,0,0,1-1.7-2.021h2.228v-2.166h-2.941v-1.189h2.391v-2.166h-2.391v-1.7l-2.347-.2v1.9h-.466l.21-1-1.787-.375-.017.093a13.376,13.376,0,0,1-.833,2.92V429.27h-1.16v-1.888l-2.3-.2v2.089h-1.566l.2,2.166h1.164a12.445,12.445,0,0,1-1.728,3.069l-.032.04.961,2.727.1-.186a12.06,12.06,0,0,0,.9-2.327v5.475h2.3v-5.9a7.778,7.778,0,0,0,.528,1.2l.1.178.579-1.544v.431h2.121a10.2,10.2,0,0,1-2.77,3.012l-.069.05,1.29,2.15.083-.076a10.8,10.8,0,0,0,2.194-3.05v3.546h2.347v-3.5a7.918,7.918,0,0,0,1.783,2.618.782.782,0,0,0,.3.171h1l-.014-2.88Zm-4.761-5.376v1.189h-1.4a7.7,7.7,0,0,0,.46-1.189Zm-2.849,1.189v.444a8.158,8.158,0,0,1-1.037-1.444h.617l-.052.1,1.336.9Z"/>
          <g id="グループ_3904" data-name="グループ 3904">
            <path id="パス_8674" data-name="パス 8674" d="M940.926,437.055v-2.273h2.079v-2.307h-6.459l.2,2.307h1.887v2.657a11.211,11.211,0,0,1-2.074.327l-.088.005v2.395l.1-.007a56.8,56.8,0,0,0,7.011-1.123l.073-.015v-2.747l-.121.043A15.536,15.536,0,0,1,940.926,437.055Z"/>
            <path id="パス_8675" data-name="パス 8675" d="M948.068,435.154l-.042.2c-.335,1.61-.553,1.948-.677,1.948-.226,0-1.29-1.9-1.539-5.689h3.111V430.18l.816-.513-.047-.078a17.729,17.729,0,0,0-1.861-2.406l-.047-.05-1.8.887.071.09c.334.422.624.822.884,1.216h-1.263c-.027-.7-.039-1.32-.039-1.949v-.085l-2.419-.2v.1c0,.791.013,1.532.026,2.161h-6.965l.2,2.261h6.9c.459,5.953,2.307,8.62,3.942,8.62.961,0,1.821-.988,2.421-2.782l.016-.046Z"/>
          </g>
          <g id="グループ_3905" data-name="グループ 3905">
            <path id="パス_8676" data-name="パス 8676" d="M952.125,432.663a17.929,17.929,0,0,0,1.9-.82l.178,1.139h7.1v-1.2a16.415,16.415,0,0,0,1.863.848l.076.029,1.272-2.369-.11-.032a13.608,13.608,0,0,1-5.583-3.089l-.027-.026H956.51l-.027.028a12.766,12.766,0,0,1-5.525,3.141l-.109.031,1.2,2.343Zm3.5-1.776a14.752,14.752,0,0,0,2.05-1.649,15.807,15.807,0,0,0,2.11,1.649Z"/>
            <path id="パス_8677" data-name="パス 8677" d="M961.509,435.821h2.359v-2.164H951.429l.2,2.164h2.992a12.925,12.925,0,0,1-1.083,1.644l-.205,0c-.643.011-1.25.022-1.737.022h-.163l.005,2.373.1,0a70.392,70.392,0,0,0,9.724-.792c.287.4.435.776.638,1.09l.048.076,2.165-1.3-.058-.082A36.1,36.1,0,0,0,961.509,435.821Zm-2.006.962a17.723,17.723,0,0,1-3.088.554,10.656,10.656,0,0,0,1.028-1.516h2.618l-1.1.444.088.1Z"/>
          </g>
          <path id="パス_8678" data-name="パス 8678" d="M976.517,437.486l0-4.245h2.354v-2.257h-2.354v-3.706l-2.412-.2v3.907h-2.265c.019-.037.039-.074.057-.111l.01-1.975h-1.833v-1.62l-2.327-.2V428.9h-1.56l.2,2.189h2.821a10.222,10.222,0,0,1-3.7,2.98l-.073.034.734,2.4.1-.057a16.232,16.232,0,0,0,1.435-.914v4.708h2.342v-5.122a6.73,6.73,0,0,0,1.469,1.184l.088.049,1-2.169-.09-.036a9.213,9.213,0,0,1-2.018-1.129,11.674,11.674,0,0,0,1.286-1.914l.191,2.144h2.134v4.351l-3,.089,0,2.266h8.1v-2.658Z"/>
          <rect id="長方形_998" data-name="長方形 998" width="2.168" height="2.822" transform="translate(899.779 427.374)"/>
          <rect id="長方形_999" data-name="長方形 999" width="2.168" height="2.822" transform="translate(902.481 427.374)"/>
        </g>
        <g id="グループ_3914" data-name="グループ 3914">
          <g id="グループ_3913" data-name="グループ 3913">
            <g id="グループ_3912" data-name="グループ 3912">
              <g id="グループ_3911" data-name="グループ 3911">
                <path id="パス_8679" data-name="パス 8679" d="M787.819,431.607h-2.375a3.358,3.358,0,0,0-1.21.228v-.765h-2.165v9.174h2.165v-3.93h0v-1.332a1.21,1.21,0,0,1,1.209-1.209h2.375a1.21,1.21,0,0,1,1.209,1.209v5.262h2.166v-5.262A3.379,3.379,0,0,0,787.819,431.607Z"/>
                <g id="グループ_3907" data-name="グループ 3907">
                  <rect id="長方形_1000" data-name="長方形 1000" width="2.165" height="9.174" transform="translate(778.222 431.069)"/>
                  <rect id="長方形_1001" data-name="長方形 1001" width="2.165" height="9.174" transform="translate(778.222 431.069)"/>
                  <circle id="楕円形_46" data-name="楕円形 46" cx="1.536" cy="1.536" r="1.536" transform="translate(777.768 427.148)"/>
                </g>
                <g id="グループ_3908" data-name="グループ 3908">
                  <rect id="長方形_1002" data-name="長方形 1002" width="2.165" height="9.174" transform="translate(813.112 431.069)"/>
                  <circle id="楕円形_47" data-name="楕円形 47" cx="1.536" cy="1.536" r="1.536" transform="translate(812.659 427.148)"/>
                </g>
                <circle id="楕円形_48" data-name="楕円形 48" cx="1.536" cy="1.536" r="1.536" transform="translate(812.659 427.148)"/>
                <path id="パス_8680" data-name="パス 8680" d="M825.885,433.237h0v-2.164h-8.939v2.165H822.6l-5.656,4.842v2.166h8.938v-2.166h-5.552Z"/>
                <path id="パス_8681" data-name="パス 8681" d="M776.055,431.607h-2.376a3.353,3.353,0,0,0-1.209.228v-.765H770.3v9.174h2.165v-5.263a1.211,1.211,0,0,1,1.209-1.208h2.376a1.186,1.186,0,0,1,.5.111v-2.235A3.27,3.27,0,0,0,776.055,431.607Z"/>
                <path id="パス_8682" data-name="パス 8682" d="M798.1,433.237v-2.165h-1.938v-2.936H794v2.936H792.06v2.165H794v5.81a1.21,1.21,0,0,0,1.208,1.191h2.9v-2.165h-1.938v-4.836Z"/>
                <g id="グループ_3909" data-name="グループ 3909">
                  <path id="パス_8683" data-name="パス 8683" d="M760.833,424.469h-2.166V440.2h2.166V424.469Z" fill="#008fd4"/>
                  <path id="パス_8684" data-name="パス 8684" d="M765.906,426.634a1.211,1.211,0,0,1,1.21,1.209v2.376a1.211,1.211,0,0,1-1.21,1.209h-3.941v2.165h3.941a3.379,3.379,0,0,0,3.375-3.374v-2.376a3.379,3.379,0,0,0-3.375-3.374h-5.073v2.165Z" fill="#e1006b"/>
                </g>
                <path id="パス_8685" data-name="パス 8685" d="M809.9,431.635l.005-.01h-7.952v1.624h6.105a1.211,1.211,0,0,1,1.209,1.209v2.376a1.211,1.211,0,0,1-1.209,1.209h-4.973v2.165h4.973a3.378,3.378,0,0,0,3.374-3.374v-2.376A3.371,3.371,0,0,0,809.9,431.635Z" fill="#90007b"/>
                <g id="グループ_3910" data-name="グループ 3910">
                  <path id="パス_8686" data-name="パス 8686" d="M801.949,424.469h-2.166V440.2h2.166V424.469Z" fill="#f5d200"/>
                  <path id="パス_8687" data-name="パス 8687" d="M807.023,426.634a1.211,1.211,0,0,1,1.209,1.209v2.032a1.211,1.211,0,0,1-1.209,1.209h-5.074v2.165h5.074a3.378,3.378,0,0,0,3.374-3.374v-2.032a3.378,3.378,0,0,0-3.374-3.374h-5.074v2.165Z" fill="#7bc421"/>
                </g>
              </g>
            </g>
          </g>
        </g>
      </g>
    </g>
  </g>
</svg>
