<svg xmlns="http://www.w3.org/2000/svg" xmlns:xlink="http://www.w3.org/1999/xlink" width="308.4" height="84.108" viewBox="0 0 308.4 84.108">
  <defs>
    <clipPath id="clip-path">
      <path id="長方形_977" data-name="長方形 977" d="M7.176,0H300.219A7.179,7.179,0,0,1,307.4,7.179V75.932a7.176,7.176,0,0,1-7.176,7.176H7.176A7.176,7.176,0,0,1,0,75.932V7.176A7.176,7.176,0,0,1,7.176,0Z" transform="translate(388.515 390.815)" fill="#fff"/>
    </clipPath>
  </defs>
  <g id="グループ_3924" data-name="グループ 3924" transform="translate(-488.014 -342.314)">
    <g id="グループ_3876" data-name="グループ 3876" transform="translate(100 -48)">
      <g id="グループ_3875" data-name="グループ 3875" clip-path="url(#clip-path)">
        <rect id="長方形_976" data-name="長方形 976" width="307.398" height="83.108" transform="translate(388.515 390.815)" fill="#fff"/>
      </g>
    </g>
    <rect id="長方形_978" data-name="長方形 978" width="307.4" height="83.108" rx="7.178" transform="translate(488.514 342.814)" fill="#fff" stroke="#b2b2b3" stroke-miterlimit="10" stroke-width="1"/>
    <path id="パス_8355" data-name="パス 8355" d="M473.094,426.038c-3.2,0-5.792,2.361-5.792,6.519s2.594,6.521,5.792,6.521,5.792-2.359,5.792-6.521-2.594-6.519-5.792-6.519m0,11.052c-2.006,0-3.634-1.641-3.634-4.533s1.628-4.529,3.634-4.529,3.633,1.639,3.633,4.529-1.627,4.533-3.633,4.533" transform="translate(100 -48)"/>
    <path id="パス_8356" data-name="パス 8356" d="M480.11,429.629c0-2.585,2.175-3.592,4.738-3.592,3.205,0,4.372,1.672,4.671,2.221s.3,1.167-.3,1.464c-.641.32-1.19.251-1.51-.32-.379-.674-1.053-1.488-3.136-1.488-1.007,0-2.312.5-2.312,1.58s.855,1.4,1.854,1.581a22.855,22.855,0,0,1,4.007.912,3.163,3.163,0,0,1,1.921,3.137c0,2.014-1.373,3.959-4.967,3.959-4.624,0-5.171-2.65-5.47-3.594-.161-.5.091-1.05.938-1.169a1.02,1.02,0,0,1,1.283.69,2.828,2.828,0,0,0,3.089,2.152c2.563,0,2.976-1.215,2.976-1.97a1.768,1.768,0,0,0-1.6-1.739,28.227,28.227,0,0,1-4.237-.893,3.025,3.025,0,0,1-1.945-2.931" transform="translate(100 -48)"/>
    <path id="パス_8357" data-name="パス 8357" d="M491.258,427.552v10.685c0,.585.476.851,1.062.851s1.065-.266,1.065-.851v-4.866h5.426c2.585,0,3.524-1.65,3.524-3.663s-1.034-3.665-3.524-3.665h-5.958a1.4,1.4,0,0,0-1.6,1.509m2.767.394h4.427c1.2,0,1.7.6,1.7,1.762,0,1.118-.45,1.763-1.7,1.763h-5.067v-2.945c0-.468.243-.58.64-.58" transform="translate(100 -48)"/>
    <path id="パス_8358" data-name="パス 8358" d="M504.928,426.8a.912.912,0,0,0-.668-.228.989.989,0,0,0-.685.258.886.886,0,0,0-.3.721v8.968a3.706,3.706,0,0,0,.329,1.665,1.562,1.562,0,0,0,1.489.931,8.349,8.349,0,0,0,4.329-1.494l.121-.084.049-.04a7.962,7.962,0,0,0,1.115-1.022,9.3,9.3,0,0,0,2.031-2.909,1.305,1.305,0,0,0,.084-.439.819.819,0,0,0-.09-.383.954.954,0,0,0-.618-.456,1.087,1.087,0,0,0-1.307.5l-.138.267a6.462,6.462,0,0,1-2.345,2.788,7.89,7.89,0,0,1-2.843,1.072.071.071,0,0,1-.063-.018.728.728,0,0,1-.145-.536V427.55a.919.919,0,0,0-.345-.751" transform="translate(100 -48)"/>
    <path id="パス_8359" data-name="パス 8359" d="M540.616,427.675v3.09a12.25,12.25,0,0,1-.576,4.328,4.6,4.6,0,0,1-1.753,1.867.979.979,0,0,0-.391.8.861.861,0,0,0,.165.6,1.145,1.145,0,0,0,.894.4,1.549,1.549,0,0,0,.741-.358,6,6,0,0,0,2.048-2.486,13.955,13.955,0,0,0,.724-5.056V427.69a.922.922,0,0,0-.933-.992.908.908,0,0,0-.919.977" transform="translate(100 -48)"/>
    <path id="パス_8360" data-name="パス 8360" d="M543.552,427.572v0l-.052,9.768c0,1.613,1.026,1.787,1.466,1.787l.7-.1a6.682,6.682,0,0,0,4.4-4.17s.071-.388.071-.388a.946.946,0,0,0-.5-.863c-.005.009-.447-.128-.447-.128a.814.814,0,0,0-.762.563,5.254,5.254,0,0,1-2.935,2.921s-.082.026-.141.045v-.02l.051-9.412a.917.917,0,0,0-.932-.964.891.891,0,0,0-.92.962" transform="translate(100 -48)"/>
    <path id="パス_8361" data-name="パス 8361" d="M572.794,434.6a.8.8,0,0,1-.791-.619,9.631,9.631,0,0,0-.817-2.313.833.833,0,0,1-.112-.422.862.862,0,0,1,1.634-.353,9.148,9.148,0,0,1,1.058,2.862.925.925,0,0,1-.972.845m7.6-3.369a8.275,8.275,0,0,1-7.713,8.037.877.877,0,0,1-.929-.888.821.821,0,0,1,.719-.846c3.934-.536,5.866-2.778,6.119-6.5a.827.827,0,0,1,.873-.775.873.873,0,0,1,.931.875Zm-4.638,2.9a.755.755,0,0,1-.789-.635,10.613,10.613,0,0,0-.734-2.41.928.928,0,0,1-.1-.409.879.879,0,0,1,.916-.819.869.869,0,0,1,.8.537,17.4,17.4,0,0,1,.873,2.862c0,.734-.846.874-.972.874" transform="translate(100 -48)"/>
    <path id="パス_8362" data-name="パス 8362" d="M535.705,438.169a1.1,1.1,0,0,1-.82-.4c-1.078-1.207-2.17-2.563-3.227-3.874-1.008-1.25-1.959-2.431-2.892-3.484a.372.372,0,0,0-.28-.161.293.293,0,0,0-.254.164c-.325.515-.677,1.12-1.042,1.75-.582,1-1.183,2.036-1.787,2.9a1.183,1.183,0,0,1-.985.577,1.054,1.054,0,0,1-1.067-1.011,1.186,1.186,0,0,1,.3-.752,22.79,22.79,0,0,0,1.966-2.947c.324-.544.647-1.088.991-1.613a2.173,2.173,0,0,1,1.809-1.077,2.457,2.457,0,0,1,1.8.885c.757.847,1.522,1.758,2.331,2.722,1.275,1.519,2.593,3.09,3.884,4.4a1.161,1.161,0,0,1,.372.823,1.123,1.123,0,0,1-1.095,1.094" transform="translate(100 -48)"/>
    <path id="パス_8363" data-name="パス 8363" d="M534.514,429.834a.538.538,0,1,0,.972-.46l-.9-1.918a.537.537,0,0,0-.971.459Z" transform="translate(100 -48)"/>
    <path id="パス_8364" data-name="パス 8364" d="M533.058,430.344a.537.537,0,1,0,.972-.458l-.9-1.918a.537.537,0,1,0-.971.458Z" transform="translate(100 -48)"/>
    <path id="パス_8365" data-name="パス 8365" d="M590.66,427.267h-4.585a1.457,1.457,0,0,0-1.474.849,14.617,14.617,0,0,1-2.5,3.468c-.356.366-.622.873-.023,1.348a.963.963,0,0,0,1.375-.1,14.542,14.542,0,0,0,2.569-3.4.578.578,0,0,1,.57-.249h2.884c.35,0,.526.05.475.474a9.4,9.4,0,0,1-1.648,4.343,9.624,9.624,0,0,1-5.017,3.171c-.7.2-1,.624-.85,1.248a.926.926,0,0,0,1.151.774,10.716,10.716,0,0,0,5.566-3.245,11.83,11.83,0,0,0,2.7-6.47c.181-1.667-.437-2.217-1.192-2.217" transform="translate(100 -48)"/>
    <path id="パス_8366" data-name="パス 8366" d="M559.3,435.7c-.571-.652-1.241-1.374-1.9-2.018a12.639,12.639,0,0,0,1.673-4.954,1.177,1.177,0,0,0-1.235-1.238h-5.872a.963.963,0,0,0,0,1.908h4.788c.217,0,.3.036.28.257a9.1,9.1,0,0,1-2.173,4.216,13.317,13.317,0,0,1-4.2,3.364.881.881,0,0,0-.307,1.3c.414.73,1.317.4,1.808.118a14.25,14.25,0,0,0,2.4-1.67,10.785,10.785,0,0,0,1.672-1.775,19.816,19.816,0,0,1,1.563,1.727c.531.659.938,1.243,1.334,1.758a.885.885,0,0,0,1.353.118.935.935,0,0,0,.26-1.306,21.693,21.693,0,0,0-1.44-1.807" transform="translate(100 -48)"/>
    <path id="パス_8367" data-name="パス 8367" d="M569.861,433.1a13.9,13.9,0,0,0-2.383-.936c-1.452-.53-2.936-1-3.669-1.223V427.4a.919.919,0,0,0-.99-.822.907.907,0,0,0-.979.822v10.9a.906.906,0,0,0,.979.821.918.918,0,0,0,.99-.821v-5.437c.862.249,1.858.607,2.79.953a23.35,23.35,0,0,1,2.381,1.011.973.973,0,0,0,.881-1.733" transform="translate(100 -48)"/>
    <path id="パス_8368" data-name="パス 8368" d="M522.183,431.926h-7.677c-.468,0-.743.422-.743.946s.275.941.743.941h7.677c.466,0,.743-.421.743-.941s-.277-.946-.743-.946" transform="translate(100 -48)"/>
    <path id="パス_8369" data-name="パス 8369" d="M634.563,430h-2.5a.963.963,0,0,1,0-1.909h1.465v-1.375a.894.894,0,0,1,1.784,0v1.375h.939a.8.8,0,0,1,.8.692.772.772,0,0,1,.6-.267h1.36v-1.783a.928.928,0,0,1,1.837,0v1.783h1.762a.963.963,0,0,1,0,1.908h-1.762v6.68h2.468a.962.962,0,0,1,0,1.908h-7.042a.962.962,0,0,1,0-1.908h2.737v-6.68h-1.36a.788.788,0,0,1-.763-.55,10.541,10.541,0,0,1-1.181,2.158c-.045.064-.094.132-.14.2l2.1,1.79a.865.865,0,0,1,.065,1.235.851.851,0,0,1-1.22.122l-1.351-1.149v4.434a.9.9,0,0,1-1.783,0v-3.7a6.474,6.474,0,0,1-.593.587c-.636.529-1.1.459-1.448.035a.964.964,0,0,1,.105-1.378,24.184,24.184,0,0,0,2.084-2.192,10.086,10.086,0,0,0,1.193-1.773c.075-.161.039-.241-.161-.241" transform="translate(100 -48)"/>
    <path id="パス_8370" data-name="パス 8370" d="M617.477,434.091c-.427-.033-.849.133-.876.821-.028.785-.13,1.566-.292,1.566-.317,0-.723-1.4-1.219-3.765-.2-.947-.348-1.94-.46-2.857h2.635a.962.962,0,0,0,0-1.907h-.123l.007-.008a.834.834,0,0,0-.126-1.192,5.006,5.006,0,0,0-.87-.69.969.969,0,0,0-1.232.1.729.729,0,0,0,.144,1.175l.745.618h-1.371c-.044-.525-.066-.957-.08-1.241a.823.823,0,0,0-.918-.8.834.834,0,0,0-.869.867c0,.336.021.737.058,1.173h-5.656a.963.963,0,0,0,0,1.907h5.872c.153,1.127.358,2.336.574,3.44a18.336,18.336,0,0,0,1.433,4.56c.636,1.166.975,1.379,1.608,1.379s1.069-.53,1.377-1.45a12.445,12.445,0,0,0,.422-2.686.824.824,0,0,0-.783-1.008m-5.619,1.512c-.419.164-.824.315-1.231.46v-3.195h1.359a.934.934,0,0,0,0-1.851h-4.8a.935.935,0,0,0,0,1.851H608.9v3.713c-.54.135-1.13.259-1.816.374-.65.109-.9.584-.8,1.29.116.8.582.9,1.463.751a19.506,19.506,0,0,0,4.7-1.512c.716-.378,1.009-.742.9-1.458-.085-.573-.6-.772-1.485-.423" transform="translate(100 -48)"/>
    <path id="パス_8371" data-name="パス 8371" d="M628.161,434.741a1,1,0,0,0-1.326-.081.776.776,0,0,0-.08,1.14c.157.182.329.4.511.631-.843.118-1.961.259-2.977.333-.44.03-.9.058-1.33.081l1.247-2.622h5.649a.914.914,0,0,0,0-1.812H619.776a.914.914,0,0,0,0,1.812H622.2l-1.295,2.721c-.38.017-.684.034-.888.05-.5.037-.886.281-.885,1.036a.827.827,0,0,0,.952.907c.884-.017,2.792-.142,4.629-.354,1.523-.175,2.987-.392,3.73-.516.162.234.315.468.459.693a.958.958,0,0,0,1.46.38.925.925,0,0,0,.2-1.333,19.758,19.758,0,0,0-2.4-3.066m2.111-5.252a22.672,22.672,0,0,1-3.343-2.066c-1.032-.742-1.407-1.485-2.146-1.485s-1.128.743-2.163,1.485a22.722,22.722,0,0,1-3.34,2.066.967.967,0,0,0-.486,1.426c.286.6.7.833,1.7.245.212-.124.424-.259.64-.4a.8.8,0,0,0,.788.861h5.655a.815.815,0,0,0,.794-.891c.231.149.46.293.69.426.991.588,1.413.355,1.7-.245a.968.968,0,0,0-.484-1.426m-7.757.323c.851-.621,1.638-1.264,2.263-1.824.622.56,1.408,1.2,2.256,1.824Z" transform="translate(100 -48)"/>
    <path id="パス_8372" data-name="パス 8372" d="M605.461,437.025c-.317-.512-.892-1.348-1.429-2.227a25.142,25.142,0,0,1-1.225-2.362h1.716a.915.915,0,0,0,0-1.813h-2.278v-1.191h2.141a.916.916,0,0,0,0-1.814h-2.141V426.38a.814.814,0,0,0-1.611,0v1.238H599.9a5.629,5.629,0,0,0,.132-.841.74.74,0,0,0-.7-.805.69.69,0,0,0-.9.581,11.3,11.3,0,0,1-.287,1.23,5.826,5.826,0,0,1-.272.643.726.726,0,0,0-.638-.349h-.654v-1.7a.811.811,0,0,0-1.607,0v1.7h-1.071a.916.916,0,0,0,0,1.814h1.006a16.654,16.654,0,0,1-.6,2.152,15.956,15.956,0,0,1-.9,2.032,1.4,1.4,0,0,0-.063,1.475c.361.575.926.233,1.3-.415a5.293,5.293,0,0,0,.329-.753v4.145a.812.812,0,0,0,1.607,0v-4.945c.018.047.038.089.055.125.262.611.807.928,1.259.57a.97.97,0,0,0,.168-1.352c-.4-.728-.943-1.883-1.482-3v-.034h.654a.792.792,0,0,0,.235-.039.856.856,0,0,0,.234.334c.333.3.873.424,1.4-.388.064-.106.131-.231.2-.366h1.33v1.191h-2.2a.915.915,0,0,0,0,1.813h1.539c-.288.617-.784,1.642-1.224,2.362-.537.879-1.115,1.715-1.431,2.227a.9.9,0,0,0,.033,1.22.729.729,0,0,0,1.205-.071c.307-.4.915-1.419,1.467-2.368a11.9,11.9,0,0,0,.607-1.237v3.958a.814.814,0,0,0,1.611,0v-3.74a10.479,10.479,0,0,0,.515,1.019c.552.949,1.157,1.972,1.466,2.368a.724.724,0,0,0,1.2.071.9.9,0,0,0,.035-1.22" transform="translate(100 -48)"/>
    <path id="パス_8373" data-name="パス 8373" d="M450.772,441.224l1.059-3.87h4.042A2,2,0,0,0,457.76,436a1.144,1.144,0,0,0-.179-1.022,1.346,1.346,0,0,0-1.094-.491,4.925,4.925,0,0,1-4-1.724,3.929,3.929,0,0,1-.581-3.5c.811-2.965,4.243-5.376,7.651-5.376h2.729l-1.056,3.863h-2.867a2,2,0,0,0-1.888,1.349,1.149,1.149,0,0,0,.179,1.022,1.35,1.35,0,0,0,1.1.491,4.918,4.918,0,0,1,4,1.724,3.932,3.932,0,0,1,.582,3.505c-.811,2.967-4.243,5.378-7.65,5.378Z" transform="translate(100 -48)" fill="#0aa5e9"/>
    <path id="パス_8374" data-name="パス 8374" d="M440.278,441.224l4.739-17.333h5.245l-3.682,13.469h3.559l-1.058,3.864Z" transform="translate(100 -48)" fill="#0568af"/>
  </g>
</svg>
